<svg width="32" height="32" viewBox="0 0 32 32" fill="none" xmlns="http://www.w3.org/2000/svg">
<rect width="32" height="32" rx="4" fill="#F83A46"/>
<path d="M27.7644 21.845L19.9421 8.14059C19.6483 7.66078 18.9459 7.66278 18.6561 8.14658L16.0802 12.6947C15.8387 13.1285 15.3799 13.3964 14.8828 13.3964H9.61834C9.12731 13.3964 8.6725 13.6583 8.429 14.0822L3.84067 21.849C3.55893 22.3408 3.91513 22.7506 4.48465 22.7506H9.64651C9.91215 22.7506 10.1577 22.6087 10.2905 22.3788L14.4824 15.4996C14.9271 14.7239 15.9454 14.6099 16.5652 15.1457C16.5511 15.2037 20.9443 22.3728 20.9443 22.3728C21.0791 22.6067 21.3306 22.7526 21.6023 22.7526H27.3277C27.9092 22.7526 28.036 22.3148 27.7684 21.847L27.7644 21.845Z" fill="white"/>
</svg>
