<?xml version="1.0" encoding="UTF-8"?><svg version="1.1" width="140px" height="28px" viewBox="0 0 140.0 28.0" xmlns="http://www.w3.org/2000/svg" xmlns:xlink="http://www.w3.org/1999/xlink"><defs><clipPath id="i0"><path d="M140,0 L140,26.6700191 L0,26.6700191 L0,0 L140,0 Z"></path></clipPath><clipPath id="i1"><path d="M9.71271466,0 C10.74884,0 11.6719446,0.250894727 12.1761015,1.67697227 L17.7182796,17.1010956 C17.8857402,17.5484461 18.166811,18.3608954 18.166811,18.8626853 C18.166811,19.9834284 17.186309,20.8775387 16.0111263,20.8775387 C15.0051793,20.8775387 14.2755719,20.5148049 13.940059,19.6206957 L12.7648771,16.2614258 L5.37471646,16.2614258 L4.17054022,19.6195129 C3.8628388,20.513622 3.21903105,20.8763541 2.12728268,20.8763541 C0.86748199,20.8763541 0,20.0940832 0,18.8615025 C0,18.3597126 0.279893421,17.5472633 0.447353999,17.0999128 L6.38184804,1.39708262 C6.77357562,0.360957404 7.50140886,0 8.62037691,0 L9.71271466,0 Z M9.15234476,4.98002861 L9.09672167,4.98002861 L6.38184804,13.0672481 L11.7559722,13.0672481 L9.15234476,4.98002861 Z"></path></clipPath><clipPath id="i2"><path d="M15.646611,0 C16.9626261,0 18.0271606,0.671025918 18.0271606,1.93082639 C18.0271606,3.19062687 16.9620344,3.86342746 15.646611,3.86342746 L11.3086169,3.86342746 L11.3086169,18.2224292 C11.3086169,19.5940672 10.4127332,20.5153961 9.01269186,20.5153961 C7.61265055,20.5153961 6.71794785,19.5940672 6.71794785,18.2224292 L6.72031348,3.86342746 L2.37995016,3.86342746 C1.06452675,3.86342746 0,3.19003512 0,1.93082639 C0,0.671617665 1.06689362,0 2.37995016,0 L15.646611,0 Z"></path></clipPath><clipPath id="i3"><path d="M10.3287104,0 C15.7874516,0 17.2431145,2.99417095 17.2431145,5.59779793 C17.2431145,7.78188593 15.9549093,9.93579579 13.7725963,10.4405444 L13.7725963,10.4949846 C16.1229617,10.8328644 16.5425041,12.540014 16.5425041,14.5820859 C16.5425041,16.9052312 17.1590857,17.7727124 17.1590857,18.7242197 C17.1590857,19.7893399 16.0667498,20.5153961 15.0034048,20.5153961 C12.4838036,20.5153961 12.2891237,18.080414 12.2891237,17.2709226 C12.2891237,13.7424163 11.6441298,12.3163382 9.126304,12.3163382 L4.59007327,12.3163382 L4.59007327,18.2224292 C4.59007327,19.5940672 3.69597007,20.5153961 2.29592871,20.5153961 C0.895887357,20.5153961 0,19.5940672 0,18.2224292 L0,2.6858779 C0,0.643806009 1.06512226,0 2.68706366,0 L10.3287104,0 Z M9.32098662,3.52673101 L4.58711894,3.52673101 L4.59007327,8.95825291 L9.1819307,8.95825291 C10.9174849,8.95825291 12.653034,8.51090214 12.653034,6.24278789 C12.653034,4.08828657 11.3376144,3.52673101 9.32098662,3.52673101 Z"></path></clipPath><clipPath id="i4"><path d="M2.29532902,0 C3.69537028,0 4.59125757,0.921920714 4.59125757,2.29355871 L4.59125757,18.5851612 C4.59125757,19.9567992 3.69418678,20.8781281 2.29532902,20.8781281 C0.896471253,20.8781281 0,19.9567992 0,18.5851612 L0,2.29355871 C0,0.921920714 0.895287759,0 2.29532902,0 Z"></path></clipPath><clipPath id="i5"><path d="M15.2270756,0 C16.6253419,0 17.5230045,0.921920766 17.5230045,2.29355884 L17.5230045,12.9571866 C17.5230045,18.5005452 14.1081105,20.9929256 8.76534868,20.9929256 C3.42258682,20.9929256 0.00295433353,18.5005452 0.00295433353,12.9571866 L0,2.29355884 C0,0.921920766 0.8958802,0 2.29592166,0 C3.69596312,0 4.59185054,0.921920766 4.59185054,2.29355884 L4.59185054,13.3228774 C4.59185054,16.0655617 6.13035652,17.2957764 8.76238712,17.2957764 C11.3944177,17.2957764 12.9329237,16.0655617 12.9329237,13.3228774 L12.9329237,2.29355884 C12.9329237,0.921920766 13.8288094,0 15.2270756,0 Z"></path></clipPath><clipPath id="i6"><path d="M3.82969672,0 C5.25695769,0 5.9279833,0.559188202 6.40373694,2.09710324 L10.4085844,15.0300279 L10.4648107,15.0300279 L14.4116694,2.09769465 C14.8850561,0.559187864 15.5590417,0.00059163406 16.9868943,0.00059163406 L18.275099,0.00059163406 C19.5059044,0.00059163406 20.7656956,0.420722582 20.7656956,2.26633903 L20.7656956,18.6396015 C20.7656956,19.7875642 20.2053223,20.8781281 18.7224385,20.8781281 C17.2395546,20.8781281 16.6786035,19.7875642 16.6786035,18.6396015 L16.6786035,6.15402715 L16.6229696,6.15402715 L12.3406026,19.5337097 C12.0323095,20.485217 11.3346495,20.8751701 10.381367,20.8751701 C9.42808449,20.8751701 8.73043896,20.485217 8.42214587,19.5337097 L4.13857981,6.15402715 L4.08296034,6.15402715 L4.08296034,18.6396015 C4.08296034,19.7875642 3.52377112,20.8781281 2.04029555,20.8781281 C0.556819976,20.8781281 0,19.7857891 0,18.6396015 L0,2.26397204 C0,0.418355594 1.25624995,0 2.48528021,0 L3.82969672,0 Z"></path></clipPath><clipPath id="i7"><path d="M21.0160065,0 L21.3336615,0.00892215934 C21.9675932,0.0445634671 22.5917857,0.186702732 23.1797957,0.430228358 C23.8658073,0.714341589 24.4891321,1.13081011 25.0141713,1.65584925 C25.5392104,2.18088839 25.9556784,2.80421302 26.2397916,3.49022462 C26.5239049,4.17623622 26.6700191,4.91149651 26.6700191,5.65401403 L26.6700191,21.0160065 C26.6700191,22.5154959 26.0741237,23.9535254 25.0138245,25.0138245 C23.9535254,26.0741237 22.5154959,26.6700191 21.0160065,26.6700191 L5.65342262,26.6700191 C4.91093304,26.6700191 4.17570119,26.5239013 3.48972282,26.2397808 C2.80374446,25.9556603 2.18045906,25.539182 1.65546709,25.0141351 C1.13047513,24.4890883 0.714062391,23.8657586 0.430013691,23.1797505 C0.14596499,22.4937424 0,21.7584961 0,21.0160065 L0,5.65401403 C-0.000388062723,4.91145882 0.145572307,4.17610671 0.429538335,3.48999325 C0.713504363,2.80387978 1.12990815,2.1804581 1.65494656,1.65536473 C2.17998497,1.13027135 2.80336304,0.713802409 3.48944676,0.429764571 C4.17553048,0.145726734 4.91086741,-0.000310623677 5.65342262,0 L21.0160065,0 Z M6.20551007,13.8157939 C4.67824599,13.8157939 3.43974746,15.080328 3.43974746,16.6371787 L3.43974746,20.0218931 C3.43974746,21.5787439 4.67647075,22.8432797 6.20551007,22.8432797 C7.73454939,22.8432797 8.97304735,21.5787439 8.97304735,20.0218931 L8.97304735,16.637771 C8.97576443,15.8925663 8.68471147,15.1763083 8.16296407,14.6442208 C7.908467,14.382516 7.60416513,14.1743946 7.26798705,14.0321185 C6.93180897,13.8898424 6.57055517,13.8162895 6.20551007,13.8157939 Z M13.30572,8.43042786 C11.7790476,8.43042786 10.5405497,9.6949619 10.5405497,11.2518127 L10.5405497,20.0218931 C10.5405497,21.5787439 11.7760889,22.8432797 13.30572,22.8432797 C14.835351,22.8432797 16.0738491,21.5787439 16.0738491,20.0218931 L16.0773994,11.2518127 C16.0797513,10.5058661 15.7885573,9.7889358 15.2667238,9.25589588 C15.0113784,8.99454011 14.7063545,8.78687665 14.369587,8.64511724 C14.0328195,8.50335784 13.6711076,8.43036429 13.30572,8.43042786 Z M20.4615525,3.05452861 C18.9325132,3.05452861 17.6940139,4.31669634 17.6940139,5.87591408 L17.6940139,20.0218931 C17.6940139,21.5787439 18.9342884,22.8432797 20.4615525,22.8432797 C21.9888166,22.8432797 23.2273142,21.5787439 23.2273142,20.0218931 L23.2249468,5.87591408 C23.2268533,5.13005387 22.9357271,4.41328547 22.414273,3.87999686 C22.1601857,3.61926328 21.8565591,3.41193073 21.5212264,3.27017644 C21.1858936,3.12842214 20.8256157,3.0551041 20.4615525,3.05452861 Z"></path></clipPath></defs><g transform="translate(0.0 -9.0)"><g transform="translate(0.0 9.664978027343752)"><g clip-path="url(#i0)"><g transform="translate(33.94921875 2.84033203125)"><g clip-path="url(#i1)"><polygon points="0,0 18.166811,0 18.166811,20.8775387 0,20.8775387 0,0" stroke="none" fill="#222222"></polygon></g></g><g transform="translate(49.87109375 3.2012939453125)"><g clip-path="url(#i2)"><polygon points="0,0 18.0271606,0 18.0271606,20.5153961 0,20.5153961 0,0" stroke="none" fill="#222222"></polygon></g></g><g transform="translate(69.8828125 3.2012939453125)"><g clip-path="url(#i3)"><polygon points="0,0 17.2431145,0 17.2431145,20.5153961 0,20.5153961 0,0" stroke="none" fill="#222222"></polygon></g></g><g transform="translate(90.19921875 2.83856201171875)"><g clip-path="url(#i4)"><polygon points="0,0 4.59125757,0 4.59125757,20.8781281 0,20.8781281 0,0" stroke="none" fill="#222222"></polygon></g></g><g transform="translate(98.35546875 2.83856201171875)"><g clip-path="url(#i5)"><polygon points="0,0 17.5230045,0 17.5230045,20.9929256 0,20.9929256 0,0" stroke="none" fill="#222222"></polygon></g></g><g transform="translate(119.234375 2.84033203125)"><g clip-path="url(#i6)"><polygon points="0,0 20.765625,0 20.765625,20.8781281 0,20.8781281 0,0" stroke="none" fill="#222222"></polygon></g></g><g clip-path="url(#i7)"><polygon points="0,0 26.6700191,0 26.6700191,26.6700191 0,26.6700191 0,0" stroke="none" fill="#222222"></polygon></g></g></g></g></svg>