<svg width="334" height="84" viewBox="0 0 334 84" fill="none" xmlns="http://www.w3.org/2000/svg">
<g clip-path="url(#clip0_72_583)">
<path d="M44.1948 83.802L44.1948 0L39.8587 0L39.8587 83.802H44.1948Z" fill="#3F4D3C"/>
<path d="M54.9981 81.8141L33.2434 0.867554L29.0551 1.98646L50.8097 82.933L54.9981 81.8141Z" fill="#3F4D3C"/>
<path d="M64.9182 77.1073L22.8914 4.53259L19.1362 6.69415L61.163 79.2688L64.9182 77.1073Z" fill="#3F4D3C"/>
<path d="M73.2774 70.0013L13.8425 10.7444L10.7764 13.8013L70.2114 73.0583L73.2774 70.0013Z" fill="#3F4D3C"/>
<path d="M79.507 60.9792L6.71436 19.0782L4.5463 22.8222L77.3389 64.7232L79.507 60.9792Z" fill="#3F4D3C"/>
<path d="M83.183 50.6572L1.99341 28.9677L0.871143 33.1435L82.0607 54.833L83.183 50.6572Z" fill="#3F4D3C"/>
<path d="M5.34058e-05 44.0626L84.0537 44.0626V39.7395L5.34058e-05 39.7395V44.0626Z" fill="#3F4D3C"/>
<path d="M47.6254 39.7395C47.6254 39.7395 47.617 39.7395 47.6137 39.7395C45.7258 39.7395 44.1948 38.2131 44.1948 36.3308C44.1948 36.3275 44.1948 36.3225 44.1948 36.3192C43.5227 36.0598 42.7906 35.9152 42.0268 35.9152C38.7113 35.9152 36.0229 38.5955 36.0229 41.901C36.0229 42.6642 36.168 43.3925 36.4282 44.0626C36.4315 44.0626 36.4365 44.0626 36.4399 44.0626C38.3278 44.0626 39.8587 45.589 39.8587 47.4712C39.8587 47.4745 39.8587 47.4795 39.8587 47.4828C40.5308 47.7422 41.263 47.8869 42.0268 47.8869C45.3422 47.8869 48.0306 45.2065 48.0306 41.901C48.0306 41.1378 47.8855 40.4095 47.6254 39.7395Z" fill="#3F4D3C"/>
<path d="M126.739 36.4339C126.704 34.6963 126.381 33.1134 125.772 31.6868C125.162 30.2618 124.341 29.0447 123.314 28.0354C122.285 27.0278 121.091 26.2446 119.73 25.6876C118.369 25.1323 116.886 24.8529 115.284 24.8529C113.296 24.8529 111.508 25.2353 109.922 26.0002C108.334 26.7651 106.992 27.7993 105.894 29.1045C104.795 30.4081 103.95 31.9395 103.358 33.6954C102.764 35.4512 102.469 37.3384 102.469 39.3553C102.469 41.2675 102.764 43.1031 103.358 44.8573C103.95 46.6132 104.805 48.1529 105.921 49.4731C107.037 50.795 108.406 51.8458 110.029 52.6289C111.65 53.4104 113.507 53.8028 115.6 53.8028C117.1 53.8028 118.521 53.5767 119.865 53.1244C121.207 52.6722 122.393 52.0121 123.422 51.1425C124.451 50.2745 125.288 49.2303 125.934 48.0132C126.579 46.7961 126.954 45.406 127.058 43.8397H133.545C133.335 46.239 132.7 48.3956 131.636 50.3078C130.572 52.2199 129.229 53.8544 127.608 55.2112C125.987 56.568 124.138 57.6105 122.063 58.3405C119.988 59.0704 117.833 59.4362 115.602 59.4362C112.915 59.4362 110.397 58.949 108.042 57.9763C105.687 57.0036 103.621 55.6285 101.843 53.8561C100.064 52.0819 98.6596 49.9619 97.6323 47.4928C96.6033 45.0236 96.0896 42.3117 96.0896 39.3553C96.0896 36.399 96.5949 33.7486 97.6072 31.296C98.6179 28.8451 99.9871 26.7235 101.715 24.9327C103.441 23.142 105.472 21.7336 107.81 20.7077C110.147 19.6818 112.659 19.1697 115.344 19.1697C117.68 19.1697 119.921 19.5953 122.066 20.4483C124.211 21.3013 126.094 22.4918 127.716 24.0215C129.339 25.5513 130.647 27.377 131.641 29.4986C132.635 31.6203 133.167 33.9315 133.237 36.4355H126.749L126.739 36.4339Z" fill="#3F4D3C"/>
<path d="M136.522 41.8062C136.522 40.1368 136.811 38.642 137.386 37.3202C137.961 35.9983 138.754 34.8942 139.766 34.008C140.777 33.1217 141.971 32.4433 143.35 31.9745C144.727 31.5056 146.218 31.2711 147.823 31.2711C149.149 31.2711 150.464 31.4457 151.772 31.7932C153.079 32.1407 154.248 32.6894 155.277 33.436C156.306 34.1842 157.144 35.1486 157.789 36.3308C158.434 37.513 158.756 38.9563 158.756 40.6606L158.808 55.0566C159.052 55.0566 159.348 55.03 159.697 54.9784C160.046 54.9269 160.404 54.8737 160.769 54.8221C161.135 54.7706 161.493 54.7274 161.842 54.6924C162.19 54.6575 162.487 54.606 162.731 54.5361V58.3954C162.277 58.6049 161.685 58.7778 160.951 58.9175C160.219 59.0555 159.503 59.1253 158.806 59.1253C158.248 59.1253 157.707 59.0638 157.185 58.9424C156.662 58.8194 156.173 58.6564 155.721 58.4469C155.267 58.2374 154.876 57.9697 154.544 57.6388C154.212 57.3079 153.923 56.9006 153.68 56.4134V54.1188H153.313C153.068 54.6758 152.719 55.2761 152.267 55.9179C151.814 56.5614 151.222 57.1433 150.488 57.6654C149.756 58.1875 148.892 58.6132 147.898 58.9424C146.904 59.2733 145.726 59.4379 144.367 59.4379C142.903 59.4379 141.629 59.2301 140.548 58.8127C139.467 58.3954 138.595 57.8483 137.931 57.1699C137.269 56.4915 136.781 55.7184 136.467 54.8487C136.154 53.9808 135.997 53.1112 135.997 52.2416C135.997 50.5023 136.424 49.1372 137.278 48.1462C138.132 47.1553 139.187 46.3721 140.443 45.7985C141.699 45.2248 143.066 44.7725 144.551 44.4417C146.033 44.1108 147.411 43.7466 148.683 43.3459C149.956 42.9469 151.02 42.4248 151.874 41.7813C152.727 41.1378 153.156 40.225 153.156 39.0428C153.156 38.3826 153.016 37.7824 152.738 37.2437C152.457 36.7049 152.075 36.2444 151.587 35.8619C151.098 35.4795 150.541 35.1935 149.912 35.0006C149.285 34.8094 148.587 34.713 147.819 34.713C145.936 34.713 144.479 35.3315 143.452 36.5653C142.423 37.8007 141.909 39.5466 141.909 41.8079H136.52L136.522 41.8062ZM151.38 45.4825C150.648 45.8483 149.844 46.1609 148.973 46.422C148.101 46.683 147.229 46.9175 146.358 47.127C145.486 47.3365 144.701 47.6142 144.004 47.9617C143.305 48.3092 142.729 48.7615 142.277 49.3185C141.824 49.8755 141.597 50.6221 141.597 51.5615C141.597 52.2216 141.719 52.8219 141.964 53.3606C142.207 53.8993 142.548 54.3599 142.985 54.7423C143.42 55.1248 143.944 55.4124 144.554 55.6036C145.164 55.7948 145.836 55.8913 146.569 55.8913C147.406 55.8913 148.225 55.735 149.027 55.4224C149.829 55.1098 150.534 54.6143 151.146 53.9359C151.757 53.2575 152.246 52.4062 152.611 51.3803C152.978 50.3544 153.159 49.1289 153.159 47.7023V43.9994C152.706 44.6246 152.114 45.1201 151.38 45.4859V45.4825Z" fill="#3F4D3C"/>
<path d="M185.463 54.872C184.818 55.863 183.964 56.6894 182.9 57.3495C181.836 58.0096 180.615 58.5134 179.238 58.8626C177.86 59.2101 176.456 59.3847 175.027 59.3847C173.352 59.3847 171.775 59.1502 170.292 58.6797C168.809 58.2108 167.537 57.5407 166.473 56.6711C165.409 55.8031 164.58 54.7157 163.988 53.4105C163.394 52.1069 163.132 50.6204 163.202 48.951L169.115 49.0025C169.01 49.942 169.106 50.8282 169.401 51.6629C169.697 52.4976 170.125 53.2192 170.684 53.8278C171.241 54.4364 171.93 54.9236 172.75 55.2877C173.569 55.6535 174.451 55.8347 175.392 55.8347C176.194 55.8347 176.935 55.7134 177.615 55.4689C178.295 55.2262 178.879 54.9219 179.368 54.5561C179.856 54.1903 180.222 53.748 180.467 53.2259C180.71 52.7038 180.834 52.1651 180.834 51.6097C180.834 50.5672 180.423 49.7674 179.605 49.2104C178.784 48.655 177.755 48.2028 176.518 47.8536C175.279 47.5061 173.936 47.1752 172.49 46.8626C171.043 46.55 169.7 46.1061 168.463 45.5324C167.223 44.9588 166.186 44.2022 165.349 43.2644C164.512 42.325 164.093 41.0214 164.093 39.352C164.093 37.927 164.415 36.7016 165.06 35.674C165.706 34.6481 166.543 33.8134 167.572 33.17C168.601 32.5265 169.77 32.0493 171.078 31.735C172.385 31.4224 173.684 31.2661 174.975 31.2661C176.718 31.2661 178.235 31.5105 179.526 31.9961C180.815 32.4832 181.881 33.1882 182.717 34.1077C183.554 35.0289 184.181 36.1413 184.599 37.4465C185.018 38.7501 185.21 40.185 185.175 41.7497H179.995C180.03 40.4976 179.925 39.4202 179.681 38.5157C179.436 37.6111 179.098 36.8812 178.661 36.3242C178.224 35.7688 177.667 35.3598 176.986 35.0987C176.306 34.8377 175.565 34.708 174.763 34.708C173.961 34.708 173.281 34.8127 172.619 35.0206C171.956 35.2301 171.379 35.5344 170.892 35.9334C170.404 36.3341 170.02 36.8113 169.742 37.3684C169.461 37.9254 169.323 38.5506 169.323 39.2456C169.323 40.3929 169.75 41.2974 170.606 41.9575C171.459 42.6193 172.523 43.1497 173.796 43.5488C175.068 43.9495 176.438 44.297 177.904 44.5913C179.368 44.8873 180.729 45.288 181.984 45.7918C183.24 46.2956 184.294 46.974 185.15 47.8253C186.004 48.6783 186.432 49.8855 186.432 51.4501C186.432 52.737 186.109 53.876 185.465 54.867L185.463 54.872Z" fill="#3F4D3C"/>
<path d="M189.466 20.5764H195.116V58.3921H189.466V20.5764ZM207.724 42.5362C207.724 41.2509 207.567 40.1635 207.254 39.2756C206.94 38.3877 206.538 37.676 206.05 37.1373C205.561 36.5986 204.986 36.2078 204.324 35.9634C203.662 35.7206 202.998 35.5976 202.336 35.5976C201.323 35.5976 200.374 35.8237 199.484 36.276C198.595 36.7283 197.826 37.3717 197.182 38.2064C196.537 39.0411 196.032 40.0504 195.665 41.2309C195.298 42.4132 195.116 43.7533 195.116 45.2465L193.755 43.4208C193.755 41.7514 194.025 40.1784 194.566 38.7003C195.106 37.2221 195.865 35.9285 196.842 34.8144C197.818 33.7021 198.987 32.8241 200.348 32.1807C201.709 31.5372 203.208 31.2163 204.847 31.2163C205.928 31.2163 206.984 31.3825 208.013 31.7118C209.042 32.0427 209.949 32.608 210.733 33.4078C211.518 34.2075 212.154 35.2418 212.642 36.5104C213.131 37.7808 213.374 39.3703 213.374 41.2825L207.724 42.5345V42.5362ZM207.724 42.5362L213.374 41.2842V58.3921H207.724V42.5362Z" fill="#3F4D3C"/>
<path d="M217.821 32.3121H223.471V58.3921H217.821V32.3121ZM233.619 42.5362C233.619 41.2509 233.506 40.1635 233.279 39.2756C233.052 38.3894 232.747 37.676 232.363 37.1373C231.98 36.5986 231.526 36.2078 231.003 35.9634C230.479 35.7207 229.922 35.5976 229.328 35.5976C228.526 35.5976 227.759 35.8238 227.027 36.276C226.295 36.7283 225.666 37.3718 225.144 38.2065C224.62 39.0412 224.21 40.0504 223.915 41.231C223.618 42.4132 223.469 43.7534 223.469 45.2465L222.109 43.6303C222.109 41.9609 222.335 40.3797 222.789 38.8832C223.243 37.3884 223.888 36.0665 224.725 34.9192C225.562 33.7719 226.583 32.8674 227.785 32.2073C228.99 31.5472 230.34 31.2163 231.84 31.2163C232.85 31.2163 233.809 31.3992 234.717 31.7633C235.624 32.1292 236.408 32.7028 237.071 33.4843C237.734 34.2674 238.266 35.3017 238.667 36.5886C239.068 37.8756 239.269 39.4402 239.269 41.2825L233.619 42.5346V42.5362ZM233.619 42.5362L239.269 41.2842V58.3921H233.619V42.5362ZM249.471 42.1704C249.471 40.8851 249.348 39.8226 249.104 38.9879C248.859 38.1533 248.537 37.4848 248.137 36.9794C247.735 36.4755 247.281 36.1181 246.776 35.9102C246.271 35.7024 245.739 35.5976 245.18 35.5976C244.308 35.5976 243.506 35.8238 242.773 36.276C242.041 36.7283 241.421 37.3718 240.916 38.2065C240.41 39.0412 240.008 40.0504 239.711 41.231C239.415 42.4132 239.266 43.7534 239.266 45.2465L237.905 43.5256C237.905 41.8562 238.122 40.2749 238.559 38.7784C238.994 37.2836 239.631 35.9701 240.469 34.8411C241.306 33.7121 242.316 32.8242 243.502 32.1807C244.688 31.5372 246.047 31.2163 247.583 31.2163C248.559 31.2163 249.509 31.3726 250.435 31.6852C251.359 31.9978 252.161 32.5382 252.841 33.3014C253.522 34.0662 254.071 35.0672 254.489 36.301C254.908 37.5364 255.116 39.091 255.116 40.9699L249.466 42.1704H249.471ZM249.471 42.1704L255.121 40.9699V58.3904H249.471V42.1688V42.1704Z" fill="#3F4D3C"/>
<path d="M259.856 39.5881C260.536 37.9021 261.46 36.4422 262.629 35.2068C263.796 33.973 265.192 33.0086 266.815 32.3119C268.436 31.6169 270.224 31.2694 272.177 31.2694C274.13 31.2694 275.899 31.6086 277.487 32.287C279.073 32.9654 280.399 33.9564 281.463 35.26C282.527 36.5636 283.311 38.1465 283.818 40.0071C284.323 41.8677 284.471 43.9794 284.263 46.3438H278.664C278.803 44.8141 278.778 43.3974 278.586 42.0922C278.394 40.7886 278.027 39.6579 277.487 38.7018C276.947 37.7458 276.223 36.9892 275.315 36.4322C274.408 35.8769 273.344 35.5975 272.123 35.5975C271.006 35.5975 269.979 35.832 269.036 36.3025C268.094 36.7731 267.292 37.4332 266.63 38.2845C265.966 39.1375 265.444 40.1451 265.061 41.309C264.677 42.4746 264.485 43.7699 264.485 45.1948C264.485 46.6198 264.659 47.9334 265.009 49.1322C265.357 50.3327 265.873 51.3669 266.552 52.2365C267.232 53.1061 268.078 53.7845 269.088 54.2701C270.099 54.7572 271.268 55 272.594 55C273.361 55 274.145 54.8869 274.949 54.6608C275.751 54.4347 276.5 54.0705 277.198 53.5651C277.895 53.0613 278.488 52.4178 278.978 51.6346C279.466 50.8531 279.78 49.9054 279.92 48.7913H284.89C284.645 50.3909 284.148 51.8425 283.399 53.1461C282.649 54.4496 281.725 55.5637 280.626 56.4848C279.527 57.406 278.271 58.111 276.858 58.5982C275.446 59.0854 273.971 59.3281 272.437 59.3281C270.798 59.3281 269.167 59.0671 267.546 58.5466C265.924 58.0245 264.477 57.1998 263.203 56.0691C261.929 54.9401 260.883 53.4786 260.064 51.6878C259.244 49.8971 258.835 47.7505 258.835 45.2464C258.835 43.1596 259.175 41.2741 259.856 39.5864V39.5881ZM261.398 43.2661H283.424L283.267 46.3438H261.033L261.4 43.2661H261.398Z" fill="#3F4D3C"/>
<path d="M288.134 32.3121H293.784V58.3921H288.134V32.3121ZM305.293 36.5371C303.829 36.2943 302.406 36.3292 301.029 36.6418C299.651 36.9544 298.42 37.538 297.341 38.3894C296.261 39.2423 295.397 40.363 294.751 41.7531C294.106 43.1448 293.784 44.8308 293.784 46.8128L292.842 44.2056C292.842 42.6759 293.034 41.1462 293.417 39.6148C293.801 38.0851 294.384 36.6934 295.17 35.4413C295.955 34.1893 296.949 33.1717 298.152 32.3902C299.354 31.6087 300.759 31.2163 302.363 31.2163C302.887 31.2163 303.417 31.2778 303.959 31.3992C304.499 31.5206 304.945 31.7218 305.293 31.9995V36.5371Z" fill="#3F4D3C"/>
<path d="M306.679 39.5881C307.359 37.9021 308.283 36.4422 309.452 35.2068C310.62 33.973 312.016 33.0086 313.638 32.3119C315.259 31.6169 317.047 31.2694 319 31.2694C320.953 31.2694 322.722 31.6086 324.31 32.287C325.896 32.9654 327.222 33.9564 328.286 35.26C329.35 36.5636 330.134 38.1465 330.641 40.0071C331.146 41.8677 331.295 43.9794 331.086 46.3438H325.488C325.626 44.8141 325.601 43.3974 325.409 42.0922C325.217 40.7886 324.85 39.6579 324.31 38.7018C323.77 37.7458 323.046 36.9892 322.139 36.4322C321.231 35.8769 320.167 35.5975 318.947 35.5975C317.829 35.5975 316.802 35.832 315.86 36.3025C314.917 36.7731 314.115 37.4332 313.453 38.2845C312.789 39.1375 312.267 40.1451 311.884 41.309C311.5 42.4746 311.308 43.7699 311.308 45.1948C311.308 46.6198 311.482 47.9334 311.832 49.1322C312.181 50.3327 312.696 51.3669 313.375 52.2365C314.055 53.1061 314.901 53.7845 315.911 54.2701C316.922 54.7572 318.091 55 319.417 55C320.184 55 320.968 54.8869 321.772 54.6608C322.574 54.4347 323.323 54.0705 324.022 53.5651C324.719 53.0613 325.311 52.4178 325.801 51.6346C326.29 50.8531 326.603 49.9054 326.743 48.7913H331.713C331.468 50.3909 330.971 51.8425 330.222 53.1461C329.472 54.4496 328.548 55.5637 327.449 56.4848C326.35 57.406 325.094 58.111 323.681 58.5982C322.269 59.0854 320.795 59.3281 319.26 59.3281C317.621 59.3281 315.99 59.0671 314.369 58.5466C312.748 58.0245 311.3 57.1998 310.026 56.0691C308.752 54.9401 307.706 53.4786 306.887 51.6878C306.067 49.8971 305.658 47.7505 305.658 45.2464C305.658 43.1596 305.998 41.2741 306.679 39.5864V39.5881ZM308.222 43.2661H330.247L330.09 46.3438H307.856L308.223 43.2661H308.222Z" fill="#3F4D3C"/>
</g>
<defs>
<clipPath id="clip0_72_583">
<rect width="333.213" height="83.802" fill="white"/>
</clipPath>
</defs>
</svg>
