<svg width="508" height="284" viewBox="0 0 508 284" fill="none" xmlns="http://www.w3.org/2000/svg">
<path d="M176.343 27.8635L168.505 24.9888C166.041 24.0647 166.452 22.6616 166.863 20.6766L170.08 10.9571C170.285 10.3411 169.635 9.75928 169.053 10.0673L162.242 13.6265C160.873 14.4137 159.162 14.1399 158.067 12.9763C152.215 6.67916 144.515 2.19588 136.061 0.690042C136.061 0.690042 130.312 -0.815795 119.703 0.826936C109.127 2.46967 100.948 10.3753 100.948 10.3753C82.6042 24.9203 92.1868 54.8317 53.5484 87.7548C44.3765 95.5577 22.405 103.224 13.4384 106.133C11.4534 106.783 10.7689 109.35 12.1721 110.89C24.2873 124.169 65.5609 144.497 119.087 120.746C124.562 118.316 134.282 111.266 138.697 108.323C171.072 83.5795 169.635 47.987 169.635 47.987C169.635 43.6406 169.292 39.1231 168.813 35.6323C168.642 34.5029 168.676 32.8602 170.422 32.073L176.377 29.1983C176.959 28.9245 176.924 28.0689 176.308 27.8635" fill="#FCC551"/>
<path d="M148.485 19.7186C148.93 23.0383 146.671 26.1184 143.386 26.5975C140.1 27.0767 137.089 24.7495 136.644 21.3955C136.199 18.0759 138.458 14.9957 141.743 14.5166C144.994 14.0375 148.04 16.3647 148.485 19.7186Z" fill="#312781"/>
<path d="M136.3 84.1275C138.011 82.211 139.38 79.8838 140.304 77.2486C143.555 68.0082 139.928 58.0834 132.159 54.1477C131.988 54.045 131.817 53.9766 131.645 53.9081C131.406 53.8055 131.166 53.7028 130.927 53.6001C130.927 53.6001 130.927 53.6001 130.893 53.6001C130.721 53.5317 130.585 53.4632 130.413 53.3948C128.942 52.8472 127.47 52.5734 125.999 52.4708C118.127 51.7521 110.495 55.5509 103.753 61.54C78.9412 83.6484 46.908 78.9256 33.1843 75.4348C31.1994 74.9214 29.6935 77.6251 31.0625 79.1993C64.0197 116.811 118.401 106.578 136.266 84.0933" fill="#FFA639"/>
<path d="M374.052 71.3953L379.46 69.4446C381.171 68.8286 380.863 67.8703 380.589 66.5356L378.364 59.9304C378.227 59.5198 378.672 59.1091 379.049 59.3144L383.772 61.7443C384.73 62.2919 385.894 62.0865 386.646 61.2994C390.685 57.0214 396.024 54.0098 401.876 52.9488C401.876 52.9488 405.846 51.9221 413.17 53.0515C420.494 54.1809 426.14 59.5198 426.14 59.5198C438.803 69.3761 432.198 89.6365 458.927 111.95C465.258 117.255 480.453 122.457 486.648 124.408C488.017 124.853 488.496 126.564 487.503 127.625C479.153 136.625 450.576 150.383 413.615 134.298C409.85 132.655 403.108 127.864 400.062 125.879C377.68 109.11 378.672 84.9821 378.672 84.9821C378.672 82.0389 378.912 78.9587 379.254 76.5973C379.357 75.8102 379.357 74.715 378.159 74.1674L374.018 72.2167C373.607 72.0114 373.642 71.4638 374.052 71.2927" fill="#FCC551"/>
<path d="M394.517 65.8506C394.209 68.1094 395.783 70.197 398.042 70.505C400.301 70.813 402.388 69.2387 402.696 66.98C403.004 64.7212 401.43 62.6336 399.171 62.3256C396.913 62.0176 394.825 63.5919 394.517 65.8506Z" fill="#312781"/>
<path d="M402.939 109.519C401.775 108.219 400.817 106.645 400.167 104.865C397.942 98.602 400.441 91.8942 405.779 89.2248C405.882 89.1563 406.019 89.1221 406.122 89.0536C406.293 88.9852 406.43 88.9168 406.601 88.8483C406.704 88.8141 406.806 88.7456 406.943 88.7114C407.936 88.3692 408.962 88.1638 409.989 88.0954C415.431 87.6163 420.701 90.183 425.355 94.2556C442.501 109.246 464.644 106.029 474.124 103.667C475.493 103.325 476.52 105.139 475.596 106.234C452.837 131.73 415.225 124.783 402.87 109.554" fill="#FFA639"/>
<path d="M506.907 254.491L500.439 243.232C498.18 239.33 492.978 238.269 489.419 241.076C482.369 246.654 472.82 250.829 466.284 250.829C456.975 250.829 451.259 245.593 451.259 236.524V198.125C451.259 194.018 454.579 190.699 458.686 190.699H477.406C481.513 190.699 484.833 187.379 484.833 183.272V168.522C484.833 164.415 481.513 161.095 477.406 161.095H458.686C454.579 161.095 451.259 157.775 451.259 153.669V141.656C440.787 142.204 428.638 140.527 415.393 135.051C413.716 136.42 412.621 138.508 412.621 140.835V236.216C396.091 248.639 379.493 256.374 356.323 256.374C341.778 256.374 331.032 251.856 325.317 242.787C362.073 240.87 390.444 230.124 390.444 200.315C390.444 174.305 369.465 160 339.143 160C308.821 160 280.45 178.138 280.45 218.214C280.45 227.181 281.853 235.292 284.488 242.547C283.633 242.958 282.845 243.54 282.195 244.293C277.986 248.947 273.331 252.677 269.327 252.096C262.653 250.898 260.258 245.182 260.258 237.79V170.13C260.258 165.852 256.801 162.396 252.523 162.396H229.354C225.076 162.396 221.619 165.852 221.619 170.13V235.908C221.619 237.722 220.969 239.501 219.806 240.904C214.569 247.099 205.74 252.335 199.203 252.335C191.092 252.335 186.335 245.662 186.335 237.79V170.13C186.335 165.852 182.878 162.396 178.6 162.396H155.431C151.153 162.396 147.697 165.852 147.697 170.13V244.053C146.909 244.464 146.157 244.977 145.472 245.593C141.091 249.734 136.403 252.472 131.954 251.616C126.718 250.898 124.801 246.62 124.801 238.988V124.613C124.801 122.457 124.082 120.472 122.85 118.863C121.516 119.616 120.284 120.301 119.188 120.78C107.518 125.948 96.4639 129.028 86.1284 130.568V154.456C86.1284 161.164 79.3521 165.75 73.1235 163.251C67.7504 161.095 61.6586 160 54.8481 160C26.6821 160 0.432617 178.378 0.432617 221.568C0.432617 264.758 26.6821 283.136 54.8481 283.136C66.8948 283.136 76.9223 279.885 84.4857 273.485C88.1476 270.405 93.4865 270.405 97.0457 273.622C103.685 279.646 113.541 283.136 126.889 283.136C140.236 283.136 149.031 278.893 156.629 272.116C163.2 279.132 172.817 283.136 183.631 283.136C197.56 283.136 208.991 276.873 217.889 268.968C221.209 266.025 226.24 266.435 229.08 269.823C235.754 277.797 246.979 283.136 263.098 283.136C280.176 283.136 290.203 275.676 299.204 264.69C312.243 276.668 331.546 283.136 355.365 283.136C381.854 283.136 400.848 276.668 417.481 264.827C423.71 274.786 436.338 281.87 457.488 281.87C480.213 281.87 495.75 274.307 505.949 263.218C508.139 260.823 508.55 257.298 506.941 254.491H506.907ZM86.06 239.056C86.06 240.836 85.5808 242.547 84.6568 244.053C80.3446 251.069 73.1577 254.525 64.8413 254.525C49.5776 254.525 39.071 243.779 39.071 221.363C39.071 198.946 49.5776 188.679 64.8413 188.679C73.1577 188.679 80.3104 191.896 84.6568 198.878C85.5808 200.384 86.0942 202.129 86.0942 203.909V239.091L86.06 239.056ZM319.088 216.092C320.046 197.714 328.157 188.645 339.862 188.645C349.65 188.645 354.886 193.402 354.886 201.068C354.886 212.533 341.539 217.051 319.328 219.686C319.088 218.728 319.088 217.53 319.088 216.092Z" fill="#312781"/>
</svg>
