<svg xmlns="http://www.w3.org/2000/svg" width="102" height="24" viewBox="0 0 102 24" fill="none"><path d="M25.9943 19V8.09091H29.9148V19H25.9943ZM27.9545 6.95455C27.4242 6.95455 26.9697 6.77936 26.5909 6.42898C26.2121 6.0786 26.0227 5.6572 26.0227 5.16477C26.0227 4.67235 26.2121 4.25095 26.5909 3.90057C26.9697 3.55019 27.4242 3.375 27.9545 3.375C28.4896 3.375 28.9441 3.55019 29.3182 3.90057C29.697 4.25095 29.8864 4.67235 29.8864 5.16477C29.8864 5.6572 29.697 6.0786 29.3182 6.42898C28.9441 6.77936 28.4896 6.95455 27.9545 6.95455ZM35.2327 12.8636V19H31.3123V8.09091H35.0339V10.1648H35.1475C35.3843 9.47348 35.8009 8.93134 36.3975 8.53835C36.9988 8.14536 37.6996 7.94886 38.4998 7.94886C39.2716 7.94886 39.9415 8.12642 40.5097 8.48153C41.0826 8.83191 41.5254 9.31487 41.8379 9.9304C42.1551 10.5459 42.3113 11.2491 42.3066 12.0398V19H38.3862V12.8636C38.3909 12.3239 38.2536 11.9001 37.9742 11.5923C37.6996 11.2846 37.3161 11.1307 36.8237 11.1307C36.5017 11.1307 36.22 11.2017 35.9785 11.3438C35.7417 11.4811 35.5594 11.6799 35.4316 11.9403C35.3038 12.196 35.2375 12.5038 35.2327 12.8636ZM53.6136 11.642H50.0056C49.9867 11.4195 49.9085 11.2277 49.7712 11.0668C49.6339 10.9058 49.4564 10.7827 49.2386 10.6974C49.0255 10.6075 48.7888 10.5625 48.5283 10.5625C48.1922 10.5625 47.9033 10.6241 47.6619 10.7472C47.4204 10.8703 47.302 11.0455 47.3067 11.2727C47.302 11.4337 47.3707 11.5829 47.5127 11.7202C47.6595 11.8575 47.9412 11.964 48.3579 12.0398L50.5738 12.4375C51.6912 12.6411 52.5222 12.9844 53.0667 13.4673C53.6159 13.9455 53.8929 14.5871 53.8977 15.392C53.8929 16.1686 53.6609 16.8433 53.2016 17.4162C52.7471 17.9844 52.1245 18.4247 51.3337 18.7372C50.5478 19.045 49.6505 19.1989 48.642 19.1989C46.9753 19.1989 45.6709 18.858 44.7286 18.1761C43.7911 17.4943 43.2679 16.5947 43.159 15.4773H47.0511C47.1031 15.8229 47.2736 16.0904 47.5624 16.2798C47.856 16.4645 48.2253 16.5568 48.6704 16.5568C49.0302 16.5568 49.3262 16.4953 49.5582 16.3722C49.7949 16.2491 49.9156 16.0739 49.9204 15.8466C49.9156 15.6383 49.8115 15.4725 49.6079 15.3494C49.409 15.2263 49.0965 15.1269 48.6704 15.0511L46.7386 14.7102C45.6259 14.5161 44.7925 14.1468 44.2386 13.6023C43.6846 13.0578 43.41 12.357 43.4147 11.5C43.41 10.7424 43.6088 10.1009 44.0113 9.57528C44.4185 9.04498 44.9985 8.64252 45.7513 8.3679C46.5089 8.08854 47.4062 7.94886 48.4431 7.94886C50.0198 7.94886 51.2627 8.27557 52.1718 8.92898C53.0856 9.58239 53.5662 10.4867 53.6136 11.642ZM60.0555 19.1989C58.8718 19.1989 57.8585 18.9645 57.0157 18.4957C56.1729 18.0223 55.5266 17.3641 55.0768 16.5213C54.627 15.6738 54.4021 14.6913 54.4021 13.5739C54.4021 12.4564 54.627 11.4763 55.0768 10.6335C55.5266 9.78598 56.1729 9.12784 57.0157 8.65909C57.8585 8.18561 58.8718 7.94886 60.0555 7.94886C61.1255 7.94886 62.0512 8.14299 62.8325 8.53125C63.6184 8.91477 64.2269 9.45928 64.6577 10.1648C65.0886 10.8655 65.3064 11.6894 65.3112 12.6364H61.6748C61.6227 12.0634 61.457 11.6278 61.1776 11.3295C60.903 11.0265 60.5479 10.875 60.1123 10.875C59.7714 10.875 59.4731 10.9744 59.2174 11.1733C58.9617 11.3674 58.7629 11.6634 58.6208 12.0611C58.4788 12.4541 58.4077 12.9489 58.4077 13.5455C58.4077 14.142 58.4788 14.6392 58.6208 15.0369C58.7629 15.4299 58.9617 15.7259 59.2174 15.9247C59.4731 16.1188 59.7714 16.2159 60.1123 16.2159C60.4011 16.2159 60.6568 16.1496 60.8793 16.017C61.1019 15.8797 61.2818 15.6809 61.4191 15.4205C61.5612 15.1553 61.6464 14.8333 61.6748 14.4545H65.3112C65.2969 15.4157 65.0768 16.2538 64.6506 16.9688C64.2245 17.679 63.6208 18.2282 62.8396 18.6165C62.063 19.0047 61.135 19.1989 60.0555 19.1989ZM71.5844 19.1989C70.4007 19.1989 69.3874 18.9645 68.5446 18.4957C67.7018 18.0223 67.0555 17.3641 66.6057 16.5213C66.1559 15.6738 65.931 14.6913 65.931 13.5739C65.931 12.4564 66.1559 11.4763 66.6057 10.6335C67.0555 9.78598 67.7018 9.12784 68.5446 8.65909C69.3874 8.18561 70.4007 7.94886 71.5844 7.94886C72.7681 7.94886 73.7813 8.18561 74.6241 8.65909C75.4669 9.12784 76.1133 9.78598 76.5631 10.6335C77.0129 11.4763 77.2378 12.4564 77.2378 13.5739C77.2378 14.6913 77.0129 15.6738 76.5631 16.5213C76.1133 17.3641 75.4669 18.0223 74.6241 18.4957C73.7813 18.9645 72.7681 19.1989 71.5844 19.1989ZM71.6128 16.3011C71.9442 16.3011 72.2307 16.1899 72.4722 15.9673C72.7136 15.7448 72.9007 15.4276 73.0332 15.0156C73.1658 14.6037 73.2321 14.1136 73.2321 13.5455C73.2321 12.9725 73.1658 12.4825 73.0332 12.0753C72.9007 11.6634 72.7136 11.3461 72.4722 11.1236C72.2307 10.901 71.9442 10.7898 71.6128 10.7898C71.2624 10.7898 70.9617 10.901 70.7108 11.1236C70.4598 11.3461 70.2681 11.6634 70.1355 12.0753C70.0029 12.4825 69.9366 12.9725 69.9366 13.5455C69.9366 14.1136 70.0029 14.6037 70.1355 15.0156C70.2681 15.4276 70.4598 15.7448 70.7108 15.9673C70.9617 16.1899 71.2624 16.3011 71.6128 16.3011ZM78.2287 23.0909V8.09091H82.1207V9.99432H82.206C82.348 9.625 82.5563 9.28646 82.831 8.97869C83.1056 8.66619 83.4465 8.41761 83.8537 8.23295C84.2609 8.04356 84.7344 7.94886 85.2741 7.94886C85.9938 7.94886 86.678 8.14062 87.3267 8.52415C87.9801 8.90767 88.5104 9.51136 88.9176 10.3352C89.3295 11.1591 89.5355 12.2292 89.5355 13.5455C89.5355 14.8049 89.339 15.849 88.946 16.6776C88.5578 17.5062 88.0369 18.1241 87.3835 18.5312C86.7348 18.9384 86.0223 19.142 85.2457 19.142C84.7344 19.142 84.2775 19.0592 83.875 18.8935C83.4773 18.723 83.1364 18.4934 82.8523 18.2045C82.5729 17.911 82.3575 17.5795 82.206 17.2102H82.1491V23.0909H78.2287ZM82.0639 13.5455C82.0639 14.0758 82.1326 14.535 82.2699 14.9233C82.4119 15.3068 82.6108 15.6051 82.8665 15.8182C83.1269 16.0265 83.437 16.1307 83.7969 16.1307C84.1567 16.1307 84.4621 16.0289 84.7131 15.8253C84.9688 15.617 85.1629 15.321 85.2955 14.9375C85.4328 14.5492 85.5014 14.0852 85.5014 13.5455C85.5014 13.0057 85.4328 12.544 85.2955 12.1605C85.1629 11.7723 84.9688 11.4763 84.7131 11.2727C84.4621 11.0644 84.1567 10.9602 83.7969 10.9602C83.437 10.9602 83.1269 11.0644 82.8665 11.2727C82.6108 11.4763 82.4119 11.7723 82.2699 12.1605C82.1326 12.544 82.0639 13.0057 82.0639 13.5455ZM95.8052 19.1989C94.6404 19.1989 93.6366 18.9763 92.7938 18.5312C91.9558 18.0814 91.3094 17.4375 90.8549 16.5994C90.4051 15.7566 90.1802 14.7481 90.1802 13.5739C90.1802 12.447 90.4075 11.4621 90.862 10.6193C91.3165 9.77651 91.9581 9.12074 92.7867 8.65199C93.6153 8.18324 94.5931 7.94886 95.72 7.94886C96.5438 7.94886 97.2896 8.0767 97.9572 8.33239C98.6248 8.58807 99.1953 8.95975 99.6688 9.44744C100.142 9.9304 100.507 10.5175 100.763 11.2088C101.018 11.9001 101.146 12.679 101.146 13.5455V14.4545H91.4018V12.2955H97.5381C97.5334 11.983 97.4529 11.7083 97.2967 11.4716C97.1451 11.2301 96.9392 11.0431 96.6788 10.9105C96.4231 10.7732 96.1319 10.7045 95.8052 10.7045C95.488 10.7045 95.1968 10.7732 94.9316 10.9105C94.6665 11.0431 94.4534 11.2277 94.2924 11.4645C94.1362 11.7012 94.0533 11.9782 94.0438 12.2955V14.625C94.0438 14.9754 94.1172 15.2879 94.264 15.5625C94.4108 15.8371 94.6215 16.0526 94.8961 16.2088C95.1707 16.3651 95.5022 16.4432 95.8904 16.4432C96.1603 16.4432 96.4065 16.4053 96.6291 16.3295C96.8563 16.2538 97.0505 16.1449 97.2114 16.0028C97.3724 15.8561 97.4908 15.6809 97.5666 15.4773H101.146C101.023 16.2348 100.732 16.893 100.273 17.4517C99.8132 18.0057 99.2048 18.4366 98.4472 18.7443C97.6944 19.0473 96.8137 19.1989 95.8052 19.1989Z" fill="#0F4B47"></path><rect x="15" y="15" width="10" height="10" transform="rotate(180 15 15)" fill="#34A290"></rect><rect x="10" y="20" width="10" height="10" transform="rotate(180 10 20)" fill="#34A290"></rect><rect x="10" y="15" width="5" height="5" transform="rotate(180 10 15)" fill="white"></rect></svg>
