<svg width="146" height="36" viewBox="0 0 146 36" fill="none" xmlns="http://www.w3.org/2000/svg">
<rect x="0.400391" width="36" height="36" rx="7.2" fill="#EE1881"/>
<path d="M4.67773 15.3268C4.67773 14.5393 5.31606 13.901 6.10348 13.901H8.59853C9.38594 13.901 10.0243 14.5393 10.0243 15.3268C10.0243 16.1142 9.38594 16.7525 8.59853 16.7525H6.10348C5.31606 16.7525 4.67773 16.1142 4.67773 15.3268Z" fill="white"/>
<path d="M4.67773 24.5941C4.67773 23.8067 5.31606 23.1683 6.10348 23.1683H12.5193C13.3067 23.1683 13.9451 23.8067 13.9451 24.5941C13.9451 25.3815 13.3067 26.0198 12.5193 26.0198H6.10348C5.31606 26.0198 4.67773 25.3815 4.67773 24.5941Z" fill="white"/>
<path d="M10.7371 15.3268C10.7371 14.5393 11.3755 13.901 12.1629 13.901H17.153C17.9404 13.901 18.5787 14.5393 18.5787 15.3268C18.5787 16.1142 17.9404 16.7525 17.153 16.7525H12.1629C11.3755 16.7525 10.7371 16.1142 10.7371 15.3268Z" fill="white"/>
<path d="M10.7371 19.9604C10.7371 19.173 11.3755 18.5347 12.1629 18.5347H17.153C17.9404 18.5347 18.5787 19.173 18.5787 19.9604C18.5787 20.7478 17.9404 21.3862 17.153 21.3862H12.1629C11.3755 21.3862 10.7371 20.7478 10.7371 19.9604Z" fill="white"/>
<path d="M14.6579 24.5941C14.6579 23.8067 15.2963 23.1683 16.0837 23.1683H17.153C17.9404 23.1683 18.5787 23.8067 18.5787 24.5941C18.5787 25.3815 17.9404 26.0198 17.153 26.0198H16.0837C15.2963 26.0198 14.6579 25.3815 14.6579 24.5941Z" fill="white"/>
<path d="M22.856 10.8713C22.856 10.3792 22.457 9.98022 21.9649 9.98022H20.1827C19.6906 9.98022 19.2916 10.3792 19.2916 10.8713V25.1287C19.2916 25.6209 19.6906 26.0198 20.1827 26.0198H21.9649C22.457 26.0198 22.856 25.6209 22.856 25.1287V18.8075L27.6142 25.6381C27.7809 25.8773 28.0539 26.0198 28.3454 26.0198H30.5171C31.2371 26.0198 31.6599 25.2102 31.2483 24.6194L26.5453 17.8681L31.0637 11.3806C31.4752 10.7898 31.0525 9.98022 30.3325 9.98022H28.1606C27.8691 9.98022 27.596 10.1228 27.4294 10.362L22.856 16.9285V10.8713Z" fill="white"/>
<path fill-rule="evenodd" clip-rule="evenodd" d="M45.4004 8.67773V27.1176H48.1826V21.3822L50.3615 18.8791L56.3221 27.1176H59.6715L52.2073 16.9793L59.6445 8.67773H56.142L48.4077 17.4835H48.1826V8.67773H45.4004ZM63.1621 26.9375C63.8704 27.2617 64.6627 27.4237 65.5391 27.4237C66.3014 27.4237 66.9557 27.3127 67.5019 27.0906C68.0482 26.8685 68.4953 26.5894 68.8434 26.2532C69.1916 25.9171 69.4529 25.5749 69.6269 25.2268H69.7349V27.1176H72.3639V17.9337C72.3639 16.9253 72.19 16.1059 71.8419 15.4756C71.4937 14.8394 71.0464 14.3502 70.5003 14.008C69.96 13.6658 69.3777 13.4318 68.7536 13.3057C68.1353 13.1736 67.55 13.1076 66.9977 13.1076C66.1634 13.1076 65.368 13.2277 64.6117 13.4678C63.8554 13.7019 63.1861 14.08 62.6038 14.6023C62.0276 15.1185 61.5894 15.7968 61.2893 16.6371L63.8194 17.2134C64.0174 16.7272 64.3746 16.286 64.8908 15.8898C65.413 15.4876 66.1274 15.2865 67.0337 15.2865C67.9042 15.2865 68.5584 15.5026 68.9965 15.9348C69.4409 16.367 69.6629 16.9763 69.6629 17.7626V17.8256C69.6629 18.1498 69.5459 18.3839 69.3118 18.5279C69.0775 18.672 68.7024 18.777 68.1862 18.8431L66.1694 19.0772C65.5151 19.1552 64.8728 19.2692 64.2426 19.4193C63.6123 19.5694 63.042 19.7915 62.5318 20.0856C62.0216 20.3797 61.6164 20.7789 61.3163 21.2831C61.0162 21.7873 60.8661 22.4296 60.8661 23.2099C60.8661 24.1163 61.0702 24.8816 61.4784 25.5059C61.8926 26.1302 62.4538 26.6074 63.1621 26.9375ZM68.0332 24.8216C67.5049 25.1157 66.8687 25.2628 66.1244 25.2628C65.362 25.2628 64.7348 25.0947 64.2426 24.7586C63.7503 24.4164 63.5042 23.9122 63.5042 23.2459C63.5042 22.7657 63.6303 22.3816 63.8824 22.0934C64.1405 21.7993 64.4827 21.5742 64.9088 21.4182C65.341 21.2621 65.8182 21.151 66.3404 21.085C66.5625 21.055 66.8387 21.019 67.1688 20.977C67.4989 20.929 67.8381 20.8779 68.1862 20.8239C68.5344 20.7639 68.8434 20.6949 69.1137 20.6168C69.3897 20.5328 69.5758 20.4427 69.6718 20.3467V22.1295C69.6718 22.6757 69.5307 23.1889 69.2487 23.6691C68.9725 24.1433 68.5675 24.5275 68.0332 24.8216ZM77.6307 26.5323C78.507 27.1026 79.5033 27.3877 80.6198 27.3877C81.4602 27.3877 82.1445 27.2466 82.6727 26.9645C83.201 26.6824 83.6151 26.3523 83.9153 25.9741C84.2214 25.5959 84.4554 25.2598 84.6175 24.9657H84.8428V27.1176H87.4718V8.67773H84.7796V15.5297H84.6175C84.4554 15.2415 84.2275 14.9084 83.9334 14.5302C83.6452 14.1521 83.237 13.8219 82.7089 13.5398C82.1866 13.2517 81.4962 13.1076 80.638 13.1076C79.5275 13.1076 78.534 13.3897 77.6576 13.954C76.7813 14.5182 76.0911 15.3316 75.5867 16.394C75.0886 17.4565 74.8394 18.735 74.8394 20.2297C74.8394 21.7243 75.0855 23.0058 75.5779 24.0743C76.0759 25.1367 76.7603 25.9561 77.6307 26.5323ZM83.1771 24.4795C82.6428 24.8876 81.9885 25.0917 81.2141 25.0917C80.4159 25.0917 79.7435 24.8786 79.1973 24.4525C78.6571 24.0203 78.2489 23.435 77.9728 22.6967C77.6966 21.9584 77.5587 21.127 77.5587 20.2026C77.5587 19.2902 77.6936 18.4709 77.9637 17.7446C78.2399 17.0183 78.6481 16.4451 79.1882 16.0249C79.7286 15.6047 80.4039 15.3946 81.2141 15.3946C82.0005 15.3946 82.6607 15.5957 83.1949 15.9979C83.7292 16.4 84.1344 16.9613 84.4106 17.6816C84.6866 18.4019 84.8247 19.2422 84.8247 20.2026C84.8247 21.1751 84.6836 22.0274 84.4016 22.7597C84.1254 23.492 83.7172 24.0653 83.1771 24.4795ZM107.873 27.1176V18.9061C107.873 18.1738 108.011 17.5495 108.287 17.0333C108.57 16.5111 108.951 16.1149 109.431 15.8448C109.917 15.5747 110.472 15.4396 111.097 15.4396C112.009 15.4396 112.726 15.7247 113.249 16.295C113.771 16.8592 114.032 17.6425 114.032 18.645V27.1176H116.724V18.3208C116.724 17.1804 116.529 16.2229 116.139 15.4486C115.749 14.6743 115.199 14.092 114.491 13.7019C113.783 13.3057 112.957 13.1076 112.015 13.1076C110.977 13.1076 110.115 13.3297 109.431 13.7739C108.753 14.2181 108.254 14.8063 107.936 15.5387H107.765V13.2877H105.181V27.1176H107.873ZM122.195 26.4873C123.162 27.0936 124.314 27.3967 125.653 27.3967C126.745 27.3967 127.697 27.1956 128.507 26.7935C129.324 26.3913 129.975 25.8391 130.461 25.1367C130.947 24.4344 131.238 23.6361 131.334 22.7417H128.714C128.6 23.2399 128.399 23.6661 128.111 24.0203C127.829 24.3744 127.478 24.6475 127.058 24.8396C126.643 25.0257 126.181 25.1187 125.671 25.1187C124.909 25.1187 124.245 24.9177 123.681 24.5155C123.123 24.1133 122.691 23.5461 122.385 22.8137C122.078 22.0814 121.925 21.2111 121.925 20.2026C121.925 19.2182 122.082 18.3659 122.393 17.6456C122.706 16.9193 123.141 16.361 123.699 15.9708C124.263 15.5747 124.921 15.3766 125.671 15.3766C126.529 15.3766 127.214 15.6107 127.724 16.0789C128.24 16.5471 128.57 17.1053 128.714 17.7536H131.334C131.238 16.8232 130.935 16.0099 130.425 15.3136C129.921 14.6173 129.257 14.077 128.435 13.6929C127.613 13.3027 126.676 13.1076 125.626 13.1076C124.323 13.1076 123.192 13.4108 122.231 14.017C121.271 14.6233 120.527 15.4666 119.999 16.5471C119.47 17.6215 119.206 18.8611 119.206 20.2657C119.206 21.6523 119.464 22.8828 119.98 23.9572C120.497 25.0317 121.235 25.8751 122.195 26.4873ZM136.146 26.5233C137.131 27.1056 138.304 27.3967 139.667 27.3967C140.675 27.3967 141.573 27.2436 142.359 26.9375C143.151 26.6254 143.809 26.1902 144.331 25.632C144.859 25.0677 145.225 24.4104 145.429 23.6601L142.881 23.2009C142.719 23.6331 142.485 23.9963 142.179 24.2904C141.873 24.5845 141.51 24.8066 141.089 24.9567C140.669 25.1007 140.204 25.1728 139.694 25.1728C138.907 25.1728 138.22 25.0047 137.632 24.6685C137.044 24.3264 136.584 23.8312 136.254 23.1829C135.953 22.5793 135.791 21.856 135.77 21.013H145.6V20.0586C145.6 18.804 145.432 17.7386 145.096 16.8622C144.76 15.9798 144.301 15.2625 143.718 14.7103C143.136 14.1581 142.479 13.7529 141.747 13.4948C141.014 13.2367 140.258 13.1076 139.478 13.1076C138.193 13.1076 137.071 13.4108 136.11 14.017C135.156 14.6233 134.412 15.4666 133.877 16.5471C133.349 17.6275 133.085 18.8761 133.085 20.2927C133.085 21.7273 133.349 22.9788 133.877 24.0473C134.412 25.1097 135.168 25.9351 136.146 26.5233ZM135.775 18.9961C135.807 18.4016 135.955 17.8464 136.218 17.3304C136.524 16.7362 136.957 16.256 137.515 15.8898C138.079 15.5177 138.739 15.3316 139.496 15.3316C140.192 15.3316 140.798 15.4906 141.315 15.8088C141.837 16.1269 142.242 16.5621 142.53 17.1143C142.818 17.6606 142.962 18.2878 142.962 18.9961H135.775ZM93.2474 26.5234C94.2318 27.1056 95.4053 27.3967 96.7679 27.3967C97.7762 27.3967 98.6736 27.2437 99.4601 26.9375C100.252 26.6254 100.91 26.1902 101.432 25.632C101.96 25.0677 102.326 24.4105 102.53 23.6601L99.9823 23.201C99.8202 23.6331 99.5862 23.9963 99.2799 24.2904C98.9738 24.5845 98.6107 24.8066 98.1905 24.9567C97.7703 25.1007 97.3051 25.1728 96.7949 25.1728C96.0086 25.1728 95.3213 25.0047 94.733 24.6686C94.1448 24.3264 93.6855 23.8312 93.3554 23.1829C93.0536 22.5793 92.8923 21.856 92.8715 21.013H102.701V20.0586C102.701 18.8041 102.533 17.7386 102.197 16.8623C101.861 15.9799 101.402 15.2626 100.82 14.7103C100.237 14.1581 99.58 13.7529 98.8477 13.4948C98.1156 13.2367 97.3592 13.1076 96.5789 13.1076C95.2942 13.1076 94.1718 13.4108 93.2114 14.017C92.257 14.6233 91.5127 15.4667 90.9784 16.5471C90.4503 17.6276 90.1861 18.8761 90.1861 20.2927C90.1861 21.7273 90.4503 22.9788 90.9784 24.0473C91.5127 25.1098 92.269 25.9351 93.2474 26.5234ZM99.6311 17.1144C99.9191 17.6607 100.063 18.2879 100.063 18.9962H92.8759C92.9083 18.4017 93.0561 17.8465 93.3194 17.3305C93.6255 16.7363 94.0576 16.2561 94.6159 15.8899C95.1802 15.5178 95.8404 15.3317 96.5967 15.3317C97.2931 15.3317 97.8993 15.4908 98.4155 15.8089C98.9377 16.127 99.343 16.5622 99.6311 17.1144Z" fill="#171717"/>
</svg>
