<svg width="966" height="251" viewBox="0 0 966 251" fill="none" xmlns="http://www.w3.org/2000/svg">
<mask id="mask0_67_288" style="mask-type:alpha" maskUnits="userSpaceOnUse" x="702" y="27" width="74" height="151">
<mask id="path-1-outside-1_67_288" maskUnits="userSpaceOnUse" x="701.763" y="26.002" width="74" height="152" fill="black">
<rect fill="white" x="701.763" y="26.002" width="74" height="152"/>
<path d="M760.079 72.9502C757.278 83.6285 755.177 92.7315 753.777 100.259C752.552 107.786 751.764 114.088 751.414 119.164C750.713 124.941 750.538 129.843 750.888 133.869C751.413 137.545 752.289 141.484 753.514 145.686C754.564 149.186 756.14 153.213 758.241 157.764C760.341 162.315 763.142 166.867 766.643 171.418C764.542 170.718 762.267 170.193 759.816 169.843C757.365 169.493 755.089 169.23 752.989 169.055C750.538 168.88 748.087 168.88 745.636 169.055C743.186 169.23 740.472 169.493 737.497 169.843C735.046 170.193 732.07 170.63 728.569 171.155C725.068 171.68 721.391 172.381 717.54 173.256C720.165 165.378 722.179 158.551 723.58 152.774C725.155 146.998 726.292 142.184 726.993 138.333C727.693 133.782 728.131 130.106 728.306 127.305V102.359C728.306 98.1582 728.219 94.482 728.043 91.3311C727.868 88.0052 727.518 85.9046 726.993 85.0293L724.367 82.4033C723.316 81.5281 721.742 80.3019 719.641 78.7266C717.716 76.976 715.089 74.8756 711.763 72.4248L760.079 72.9502ZM730.407 31.9873C734.083 30.0618 737.759 29.5369 741.435 30.4121C745.286 31.2874 748.262 32.9506 750.363 35.4014C752.463 37.8521 753.164 40.7404 752.463 44.0664C751.938 47.3924 749.138 50.6313 744.061 53.7822C738.985 56.7581 734.521 57.8078 730.669 56.9326C726.818 56.0574 724.104 54.2198 722.529 51.4189C720.953 48.6181 720.691 45.3793 721.742 41.7031C722.792 37.852 725.68 34.6131 730.407 31.9873Z"/>
</mask>
<path d="M760.079 72.9502C757.278 83.6285 755.177 92.7315 753.777 100.259C752.552 107.786 751.764 114.088 751.414 119.164C750.713 124.941 750.538 129.843 750.888 133.869C751.413 137.545 752.289 141.484 753.514 145.686C754.564 149.186 756.14 153.213 758.241 157.764C760.341 162.315 763.142 166.867 766.643 171.418C764.542 170.718 762.267 170.193 759.816 169.843C757.365 169.493 755.089 169.23 752.989 169.055C750.538 168.88 748.087 168.88 745.636 169.055C743.186 169.23 740.472 169.493 737.497 169.843C735.046 170.193 732.07 170.63 728.569 171.155C725.068 171.68 721.391 172.381 717.54 173.256C720.165 165.378 722.179 158.551 723.58 152.774C725.155 146.998 726.292 142.184 726.993 138.333C727.693 133.782 728.131 130.106 728.306 127.305V102.359C728.306 98.1582 728.219 94.482 728.043 91.3311C727.868 88.0052 727.518 85.9046 726.993 85.0293L724.367 82.4033C723.316 81.5281 721.742 80.3019 719.641 78.7266C717.716 76.976 715.089 74.8756 711.763 72.4248L760.079 72.9502ZM730.407 31.9873C734.083 30.0618 737.759 29.5369 741.435 30.4121C745.286 31.2874 748.262 32.9506 750.363 35.4014C752.463 37.8521 753.164 40.7404 752.463 44.0664C751.938 47.3924 749.138 50.6313 744.061 53.7822C738.985 56.7581 734.521 57.8078 730.669 56.9326C726.818 56.0574 724.104 54.2198 722.529 51.4189C720.953 48.6181 720.691 45.3793 721.742 41.7031C722.792 37.852 725.68 34.6131 730.407 31.9873Z" fill="black"/>
<path d="M760.079 72.9502L762.98 73.7113L763.956 69.9922L760.111 69.9504L760.079 72.9502ZM753.777 100.259L750.827 99.7101L750.821 99.7433L750.816 99.7768L753.777 100.259ZM751.414 119.164L754.392 119.525L754.401 119.448L754.406 119.37L751.414 119.164ZM750.888 133.869L747.899 134.129L747.907 134.211L747.918 134.293L750.888 133.869ZM753.514 145.686L750.634 146.526L750.637 146.537L750.641 146.548L753.514 145.686ZM758.241 157.764L755.517 159.021L755.517 159.021L758.241 157.764ZM766.643 171.418L765.694 174.264L775.004 177.367L769.021 169.589L766.643 171.418ZM759.816 169.843L760.24 166.873L760.24 166.873L759.816 169.843ZM752.989 169.055L753.238 166.065L753.22 166.064L753.203 166.062L752.989 169.055ZM745.636 169.055L745.422 166.062L745.422 166.062L745.636 169.055ZM737.497 169.843L737.146 166.863L737.109 166.868L737.072 166.873L737.497 169.843ZM728.569 171.155L728.124 168.188L728.124 168.188L728.569 171.155ZM717.54 173.256L714.694 172.307L713.008 177.362L718.204 176.181L717.54 173.256ZM723.58 152.774L720.685 151.985L720.674 152.026L720.664 152.068L723.58 152.774ZM726.993 138.333L729.944 138.87L729.952 138.83L729.958 138.789L726.993 138.333ZM728.306 127.305L731.3 127.492L731.306 127.398V127.305H728.306ZM728.043 91.3311L725.048 91.4887L725.048 91.4975L728.043 91.3311ZM726.993 85.0293L729.565 83.4859L729.375 83.1692L729.114 82.908L726.993 85.0293ZM724.367 82.4033L726.488 80.282L726.392 80.1858L726.287 80.0986L724.367 82.4033ZM719.641 78.7266L717.623 80.9464L717.728 81.0416L717.841 81.1266L719.641 78.7266ZM711.763 72.4248L711.796 69.425L702.497 69.3239L709.984 74.84L711.763 72.4248ZM730.407 31.9873L729.015 29.3298L728.982 29.3469L728.95 29.3648L730.407 31.9873ZM741.435 30.4121L740.74 33.3305L740.755 33.3341L740.77 33.3375L741.435 30.4121ZM750.363 35.4014L752.641 33.449L752.641 33.449L750.363 35.4014ZM752.463 44.0664L749.528 43.4484L749.512 43.5231L749.5 43.5985L752.463 44.0664ZM744.061 53.7822L745.578 56.3703L745.611 56.3512L745.643 56.3312L744.061 53.7822ZM730.669 56.9326L730.005 59.858L730.005 59.858L730.669 56.9326ZM722.529 51.4189L719.914 52.8897L719.914 52.8898L722.529 51.4189ZM721.742 41.7031L724.626 42.5273L724.631 42.5099L724.636 42.4925L721.742 41.7031ZM760.079 72.9502L757.177 72.1891C754.365 82.9099 752.246 92.0879 750.827 99.7101L753.777 100.259L756.726 100.808C758.109 93.375 760.191 84.3471 762.98 73.7113L760.079 72.9502ZM753.777 100.259L750.816 99.7768C749.582 107.355 748.779 113.756 748.421 118.958L751.414 119.164L754.406 119.37C754.748 114.42 755.521 108.217 756.738 100.741L753.777 100.259ZM751.414 119.164L748.435 118.803C747.72 124.704 747.525 129.828 747.899 134.129L750.888 133.869L753.877 133.609C753.551 129.858 753.707 125.178 754.392 119.525L751.414 119.164ZM750.888 133.869L747.918 134.293C748.467 138.132 749.376 142.211 750.634 146.526L753.514 145.686L756.394 144.846C755.202 140.757 754.36 136.958 753.858 133.445L750.888 133.869ZM753.514 145.686L750.641 146.548C751.743 150.223 753.377 154.385 755.517 159.021L758.241 157.764L760.965 156.506C758.903 152.04 757.386 148.15 756.388 144.823L753.514 145.686ZM758.241 157.764L755.517 159.021C757.724 163.802 760.647 168.544 764.265 173.247L766.643 171.418L769.021 169.589C765.637 165.19 762.959 160.828 760.965 156.506L758.241 157.764ZM766.643 171.418L767.592 168.572C765.302 167.809 762.848 167.246 760.24 166.873L759.816 169.843L759.392 172.813C761.685 173.14 763.783 173.627 765.694 174.264L766.643 171.418ZM759.816 169.843L760.24 166.873C757.741 166.516 755.406 166.246 753.238 166.065L752.989 169.055L752.74 172.044C754.772 172.214 756.989 172.469 759.392 172.813L759.816 169.843ZM752.989 169.055L753.203 166.062C750.609 165.877 748.016 165.877 745.422 166.062L745.636 169.055L745.85 172.047C748.158 171.882 750.467 171.882 752.775 172.047L752.989 169.055ZM745.636 169.055L745.422 166.062C742.917 166.241 740.158 166.509 737.146 166.863L737.497 169.843L737.847 172.822C740.787 172.476 743.454 172.218 745.85 172.047L745.636 169.055ZM737.497 169.843L737.072 166.873C734.613 167.224 731.629 167.663 728.124 168.188L728.569 171.155L729.014 174.122C732.51 173.598 735.479 173.161 737.921 172.813L737.497 169.843ZM728.569 171.155L728.124 168.188C724.541 168.726 720.791 169.44 716.875 170.33L717.54 173.256L718.204 176.181C721.991 175.321 725.594 174.635 729.014 174.122L728.569 171.155ZM717.54 173.256L720.386 174.205C723.028 166.276 725.069 159.364 726.495 153.481L723.58 152.774L720.664 152.068C719.289 157.738 717.302 164.481 714.694 172.307L717.54 173.256ZM723.58 152.774L726.474 153.564C728.062 147.742 729.223 142.838 729.944 138.87L726.993 138.333L724.041 137.796C723.362 141.531 722.248 146.253 720.685 151.985L723.58 152.774ZM726.993 138.333L729.958 138.789C730.664 134.198 731.117 130.421 731.3 127.492L728.306 127.305L725.312 127.118C725.145 129.79 724.722 133.366 724.028 137.877L726.993 138.333ZM728.306 127.305H731.306V102.359H728.306H725.306V127.305H728.306ZM728.306 102.359H731.306C731.306 98.1195 731.218 94.3856 731.039 91.1646L728.043 91.3311L725.048 91.4975C725.219 94.5784 725.306 98.1968 725.306 102.359H728.306ZM728.043 91.3311L731.039 91.1734C730.949 89.4528 730.809 87.9727 730.608 86.7677C730.424 85.6608 730.136 84.4379 729.565 83.4859L726.993 85.0293L724.42 86.5726C724.374 86.496 724.524 86.7611 724.69 87.7548C724.84 88.6503 724.963 89.8834 725.048 91.4887L728.043 91.3311ZM726.993 85.0293L729.114 82.908L726.488 80.282L724.367 82.4033L722.245 84.5246L724.871 87.1506L726.993 85.0293ZM724.367 82.4033L726.287 80.0986C725.177 79.1736 723.554 77.9111 721.441 76.3266L719.641 78.7266L717.841 81.1266C719.929 82.6928 721.456 83.8825 722.446 84.708L724.367 82.4033ZM719.641 78.7266L721.659 76.5067C719.627 74.659 716.909 72.4903 713.543 70.0096L711.763 72.4248L709.984 74.84C713.269 77.2608 715.804 79.293 717.623 80.9464L719.641 78.7266ZM711.763 72.4248L711.731 75.4246L760.046 75.95L760.079 72.9502L760.111 69.9504L711.796 69.425L711.763 72.4248ZM730.407 31.9873L731.799 34.6448C734.901 33.0198 737.839 32.6399 740.74 33.3305L741.435 30.4121L742.13 27.4937C737.679 26.4339 733.264 27.1039 729.015 29.3298L730.407 31.9873ZM741.435 30.4121L740.77 33.3375C744.136 34.1026 746.49 35.4929 748.085 37.3538L750.363 35.4014L752.641 33.449C750.034 30.4083 746.436 28.4722 742.1 27.4867L741.435 30.4121ZM750.363 35.4014L748.085 37.3537C749.542 39.0539 750.048 40.9786 749.528 43.4484L752.463 44.0664L755.399 44.6844C756.279 40.5022 755.385 36.6503 752.641 33.449L750.363 35.4014ZM752.463 44.0664L749.5 43.5985C749.186 45.5889 747.354 48.2074 742.479 51.2333L744.061 53.7822L745.643 56.3312C750.921 53.0551 754.691 49.1959 755.427 44.5343L752.463 44.0664ZM744.061 53.7822L742.544 51.1941C737.809 53.9696 734.148 54.6467 731.334 54.0072L730.669 56.9326L730.005 59.858C734.893 60.9689 740.16 59.5466 745.578 56.3703L744.061 53.7822ZM730.669 56.9326L731.334 54.0072C728.105 53.2732 726.211 51.8454 725.144 49.9481L722.529 51.4189L719.914 52.8898C721.998 56.5941 725.532 58.8415 730.005 59.858L730.669 56.9326ZM722.529 51.4189L725.144 49.9482C724.034 47.9765 723.751 45.5907 724.626 42.5273L721.742 41.7031L718.857 40.879C717.632 45.1678 717.872 49.2597 719.914 52.8897L722.529 51.4189ZM721.742 41.7031L724.636 42.4925C725.407 39.6661 727.586 36.9864 731.864 34.6098L730.407 31.9873L728.95 29.3648C723.775 32.2397 720.177 36.038 718.847 40.9137L721.742 41.7031Z" fill="black" mask="url(#path-1-outside-1_67_288)"/>
</mask>
<g mask="url(#mask0_67_288)">
<rect x="717.715" y="31.502" width="41.5665" height="29.6818" fill="black" stroke="black" stroke-width="3"/>
</g>
<path d="M927.803 127.131L927.841 127.133C932.519 127.367 936.871 128.128 940.89 129.427H940.891C944.949 130.702 948.472 132.221 951.439 133.995C954.496 135.642 957.019 137.435 958.974 139.39C960.829 141.245 962.138 143.056 962.601 144.805C964.026 149.439 964.407 153.797 963.671 157.848L963.669 157.855C962.972 161.572 962.043 165.231 960.882 168.831C959.869 172.209 958.969 175.586 958.181 178.962C957.563 182.071 957.806 185.493 958.979 189.261C959.195 189.745 959.411 190.229 959.626 190.714C959.849 191.216 960.073 191.719 960.296 192.222C960.706 193.037 961.223 193.866 961.854 194.706C962.434 195.481 963.099 196.093 963.847 196.561L962.916 199.326C961.705 199.216 960.494 199.161 959.283 199.161H959.215L959.147 199.155C957.883 199.04 956.731 198.925 955.691 198.81H955.69C954.445 198.696 953.309 198.582 952.282 198.468V198.469C951.212 198.362 949.727 198.305 947.807 198.305C944.534 198.305 939.426 198.474 932.464 198.816L930.065 198.935L931.012 196.728C932.033 194.345 932.819 192.378 933.376 190.819L933.386 190.792L933.396 190.767C934.072 189.076 934.642 187.705 935.105 186.659C935.553 185.427 935.887 184.485 936.106 183.826L936.123 183.775L936.144 183.727C937.438 180.597 938.209 177 938.43 172.914L938.431 172.895L938.432 172.874C938.762 168.799 938.488 164.662 937.603 160.457H937.602C937.28 159.072 936.738 157.383 935.96 155.382C935.208 153.449 934.183 151.557 932.878 149.708L932.86 149.684L932.844 149.658C931.683 147.864 930.262 146.339 928.578 145.076L928.541 145.047C927.065 143.866 925.344 143.172 923.334 142.971C921.413 142.779 919.131 143.246 916.441 144.534C913.956 145.778 911.148 148.118 908.026 151.681C905.771 154.59 903.971 158.177 902.649 162.474L902.644 162.49L902.639 162.507C901.434 166.122 900.593 170.732 900.142 176.369L900.141 176.372C899.701 181.76 900.357 188.159 902.159 195.595L902.681 197.746L900.489 197.434C898.949 197.214 897.536 197.105 896.248 197.105H896.186L896.123 197.101C894.741 196.985 893.577 196.87 892.636 196.752H892.635C891.534 196.642 890.536 196.53 889.64 196.419C888.605 196.415 887.474 196.359 886.25 196.249H881.98L881.931 196.246C880.228 196.133 878.239 196.018 875.961 195.904L874.203 195.816L874.568 194.096C875.361 190.357 875.923 187.091 876.259 184.293L876.262 184.269L876.266 184.243C876.721 181.284 877.061 178.848 877.286 176.931C877.508 174.71 877.616 172.844 877.618 171.325C877.504 169.384 877.391 167.107 877.277 164.496L877.276 164.463V164.431C877.276 161.732 877.164 159.091 876.939 156.51L876.937 156.477L876.935 156.442C876.821 153.726 876.652 151.364 876.429 149.352L876.428 149.343C876.207 147.247 875.943 145.89 875.681 145.153C875.282 144.373 874.729 143.516 874.004 142.582C872.552 140.826 870.372 139.053 867.392 137.287L864.108 135.341L867.838 134.53C870.458 133.961 872.689 133.503 874.528 133.157C876.427 132.71 877.984 132.32 879.204 131.988L882.743 130.809C883.703 130.451 884.82 130.099 886.09 129.753L886.124 129.744L886.159 129.736C887.182 129.509 888.433 129.224 889.915 128.882C891.397 128.54 893.108 128.141 895.048 127.685L896.955 127.235L896.891 129.194L896.512 140.678C899.365 137.73 902.281 135.386 905.263 133.669C909.113 131.452 912.771 129.852 916.232 128.897C920.119 127.723 923.965 127.131 927.766 127.131H927.803Z" fill="black" stroke="black" stroke-width="3"/>
<path d="M814.507 135.012C817.657 135.012 820.896 135.616 824.216 136.797L824.833 137C827.9 138.031 830.862 139.37 833.718 141.015L834.846 141.638C837.439 143.106 839.817 144.714 841.978 146.461C844.207 148.084 846.109 149.681 847.669 151.255L848.321 151.933L848.325 151.937C851.407 155.266 853.443 159.699 854.512 165.135L854.722 166.133C855.718 171.135 855.883 176.285 855.221 181.576V181.58C854.513 187.124 852.861 192.377 850.266 197.331C847.623 202.378 843.924 206.153 839.172 208.59L839.166 208.593L839.159 208.597C835.891 210.23 832.67 211.521 829.494 212.462C826.355 213.392 823.322 214.092 820.397 214.56C817.475 215.027 814.712 215.264 812.11 215.264C809.577 215.264 807.374 215.207 805.506 215.09H805.5V215.089C801.794 214.842 797.976 213.55 794.061 211.296L794.052 211.29L794.043 211.285C790.281 209.051 786.706 206.296 783.318 203.024L783.309 203.015L783.299 203.006C780.019 199.726 777.204 196.147 774.856 192.273L774.85 192.266L774.845 192.257C772.489 188.252 771.03 184.406 770.541 180.731L770.542 180.73C769.841 175.929 769.725 170.908 770.191 165.67C770.67 160.283 772.409 155.306 775.399 150.761L775.407 150.75L775.415 150.738C778.565 146.134 783.247 142.383 789.363 139.442L789.373 139.438C795.703 136.451 804.116 135.012 814.507 135.012ZM814.144 147.217C811.642 146.591 809.681 146.735 808.142 147.452C807.482 147.786 806.495 148.587 805.161 150.033C803.878 151.423 802.567 153.219 801.234 155.44L801.216 155.47C799.907 157.542 798.693 159.961 797.582 162.736C796.593 165.488 795.877 168.353 795.436 171.332C794.998 174.29 794.885 177.487 795.105 180.927C795.437 184.335 796.151 187.569 797.244 190.633L797.451 191.175C798.507 193.846 799.93 196.171 801.713 198.162C803.496 199.937 805.72 201.029 808.454 201.413L809.009 201.48L809.067 201.486L809.124 201.497C809.973 201.651 811.364 201.482 813.433 200.724C815.4 199.892 817.358 198.578 819.301 196.743L819.316 196.729L819.332 196.716C821.353 194.907 823.135 192.596 824.664 189.757L824.667 189.749L824.672 189.74C826.259 186.884 827.242 183.391 827.572 179.217V179.213C827.908 175.06 827.906 171.268 827.574 167.831L827.572 167.808L827.571 167.783C827.348 164.327 826.848 161.363 826.09 158.874L826.088 158.865L826.085 158.857C825.308 156.192 824.439 154.095 823.499 152.528C822.551 150.949 821.633 149.981 820.791 149.465C819.009 148.528 816.821 147.775 814.202 147.229L814.172 147.224L814.144 147.217Z" fill="black" stroke="black" stroke-width="3"/>
<path d="M698.926 82.126C698.36 85.4103 697.907 88.5779 697.568 91.6289C697.227 94.7023 696.943 97.5455 696.716 100.158C696.491 103.087 696.379 105.898 696.379 108.593V108.669L696.371 108.745C695.805 114.292 695.464 120.358 695.351 126.946C695.351 133.438 695.408 140.044 695.521 146.765C695.635 153.485 695.864 160.033 696.205 166.408C696.547 172.795 696.889 178.611 697.23 183.854C697.685 188.968 698.084 193.345 698.425 196.984C698.878 200.492 699.209 202.687 699.42 203.648C699.869 205.333 700.319 206.961 700.768 208.532C701.101 209.531 701.465 210.562 701.861 211.625L702.273 212.713L702.28 212.729L702.286 212.747C702.817 214.234 703.421 215.305 704.058 216.032L706.234 218.52H686.313C684.867 218.52 683.482 218.575 682.156 218.686C680.9 218.8 679.586 218.914 678.217 219.028C676.894 219.139 675.695 219.303 674.618 219.519L671.066 220.229L673.075 217.216C674.184 215.552 675.057 214.021 675.702 212.623C676.374 211.168 676.933 209.935 677.382 208.926C677.806 207.753 678.12 206.706 678.328 205.779C678.414 205.21 678.477 203.372 678.477 200.062C678.477 196.781 678.363 192.638 678.135 187.626V187.608L678.134 187.592C678.02 182.576 677.849 176.93 677.621 170.654L677.62 170.641V170.627C677.506 164.364 677.278 157.987 676.937 151.494L676.936 151.481V151.468C676.708 144.968 676.422 138.641 676.08 132.485L676.079 132.472V132.457C675.851 126.294 675.623 120.761 675.395 115.856V115.854C675.166 110.837 674.939 106.74 674.712 103.561C674.598 101.966 674.498 100.723 674.414 99.8252C674.372 99.376 674.335 99.0217 674.302 98.7578C674.285 98.6262 674.271 98.5234 674.259 98.4463C674.254 98.4196 674.249 98.3983 674.246 98.3818C674.084 97.9275 673.799 97.4245 673.343 96.877C672.411 95.7586 670.705 94.5596 668.046 93.3408L664.188 91.5723L668.301 90.5234C674.119 89.0404 678.55 87.8476 681.605 86.9424L681.637 86.9326L681.668 86.9248C683.466 86.4753 685.025 86.029 686.349 85.5879C686.965 85.3636 687.582 85.1393 688.199 84.915C688.811 84.6927 689.422 84.4694 690.033 84.2471C691.03 83.804 692.135 83.3071 693.348 82.7559C694.522 82.1126 695.581 81.4233 696.527 80.6875L699.584 78.3096L698.926 82.126Z" fill="black" stroke="black" stroke-width="3"/>
<path d="M651.443 82.126C650.877 85.4103 650.425 88.5779 650.086 91.6289C649.744 94.7023 649.461 97.5455 649.233 100.158C649.008 103.087 648.896 105.898 648.896 108.593V108.669L648.889 108.745C648.323 114.292 647.982 120.358 647.868 126.946C647.868 133.438 647.925 140.044 648.039 146.765C648.153 153.485 648.381 160.033 648.723 166.408C649.065 172.795 649.406 178.611 649.748 183.854C650.203 188.968 650.601 193.345 650.942 196.984C651.395 200.492 651.727 202.687 651.938 203.648C652.387 205.333 652.836 206.961 653.285 208.532C653.618 209.531 653.983 210.562 654.379 211.625L654.791 212.713L654.798 212.729L654.804 212.747C655.335 214.234 655.939 215.305 656.575 216.032L658.752 218.52H638.831C637.385 218.52 635.999 218.575 634.674 218.686C633.417 218.8 632.104 218.914 630.734 219.028C629.411 219.139 628.213 219.303 627.136 219.519L623.584 220.229L625.593 217.216C626.702 215.552 627.574 214.021 628.22 212.623C628.891 211.168 629.45 209.935 629.899 208.926C630.324 207.753 630.637 206.706 630.846 205.779C630.932 205.21 630.994 203.372 630.994 200.062C630.994 196.781 630.88 192.638 630.652 187.626V187.608L630.651 187.592C630.537 182.576 630.367 176.93 630.139 170.654L630.138 170.641V170.627C630.024 164.364 629.796 157.987 629.454 151.494L629.453 151.481V151.468C629.225 144.968 628.94 138.641 628.598 132.485L628.597 132.472V132.457C628.368 126.294 628.14 120.761 627.912 115.856V115.854C627.684 110.837 627.457 106.74 627.229 103.561C627.116 101.966 627.016 100.723 626.932 99.8252C626.89 99.376 626.852 99.0217 626.819 98.7578C626.803 98.6262 626.789 98.5234 626.776 98.4463C626.772 98.4196 626.767 98.3983 626.764 98.3818C626.602 97.9275 626.317 97.4245 625.86 96.877C624.928 95.7586 623.223 94.5596 620.563 93.3408L616.705 91.5723L620.818 90.5234C626.636 89.0404 631.068 87.8476 634.123 86.9424L634.154 86.9326L634.186 86.9248C635.984 86.4753 637.542 86.029 638.866 85.5879C639.483 85.3636 640.1 85.1393 640.717 84.915C641.328 84.6927 641.939 84.4694 642.551 84.2471C643.547 83.804 644.652 83.3071 645.865 82.7559C647.039 82.1126 648.099 81.4233 649.045 80.6875L652.102 78.3096L651.443 82.126Z" fill="black" stroke="black" stroke-width="3"/>
<path d="M559.48 113.096C563.409 112.62 567.183 112.796 570.793 113.639C574.35 114.469 577.679 115.774 580.772 117.556C583.922 119.305 586.79 121.236 589.374 123.349C591.338 124.92 592.84 127.154 593.937 129.947H593.938C595.012 132.574 595.838 135.534 596.424 138.816C597.003 142.058 597.406 145.465 597.639 149.036L597.763 150.33C598.04 153.342 598.229 156.312 598.33 159.238C598.444 162.431 598.5 165.401 598.501 168.147C598.599 170.402 598.783 172.278 599.042 173.788L599.158 174.414L599.161 174.427L599.163 174.439C599.59 176.786 600.326 178.761 601.342 180.396C602.413 182.001 603.579 183.379 604.837 184.537C606.125 185.608 607.391 186.448 608.636 187.07C609.8 187.652 610.811 188.093 611.675 188.404L612.036 188.53L612.138 188.563L612.232 188.611C612.833 188.912 613.334 189.086 613.74 189.167L613.876 189.194L614.003 189.245C614.482 189.437 614.768 189.48 614.902 189.48C615.004 189.48 614.9 189.461 614.783 189.577L617.223 191.229C616.53 192.846 615.89 194.244 615.302 195.42C614.739 196.546 614.296 197.489 613.969 198.252L613.951 198.293L613.932 198.332C613.478 199.239 613.068 200.001 612.705 200.609C612.337 201.338 611.908 202.016 611.416 202.641C611.032 203.266 610.548 203.927 609.974 204.616C609.429 205.27 608.881 205.983 608.329 206.755L607.654 207.7L606.57 207.283C605.011 206.683 603.51 205.963 602.07 205.123L602.045 205.108L602.021 205.093C600.768 204.296 599.626 203.553 598.595 202.866C597.304 202.045 596.123 201.219 595.054 200.387C593.95 199.528 592.912 198.551 591.941 197.459L591.934 197.45C591.137 196.54 590.283 195.572 589.372 194.547L589.34 194.51L589.31 194.471C588.969 194.033 588.649 193.578 588.348 193.105C587.401 194.392 586.123 195.862 584.554 197.5L584.553 197.499C581.91 200.376 578.468 202.975 574.264 205.311L574.25 205.318L574.235 205.325C569.958 207.583 565.003 209.169 559.394 210.104L559.393 210.103C553.729 211.065 547.539 210.39 540.858 208.163V208.162C537.87 207.204 535.062 205.829 532.438 204.039L532.418 204.026L532.399 204.013C529.76 202.093 527.479 199.812 525.56 197.173L525.547 197.154L525.533 197.136C523.713 194.465 522.388 191.445 521.55 188.09L521.542 188.061L521.536 188.03C520.803 184.485 520.874 180.624 521.705 176.47C522.54 172.295 524.045 168.708 526.258 165.758C528.426 162.867 531.026 160.507 534.052 158.691C537.042 156.897 540.375 155.531 544.041 154.585C547.662 153.65 551.397 153.009 555.243 152.659L555.282 152.656L555.321 152.654C558.387 152.536 561.451 152.713 564.514 153.185L564.534 153.188L564.554 153.191C567.194 153.671 569.925 154.564 572.742 155.852L573.296 156.093C574.855 156.8 576.288 157.703 577.596 158.795C577.468 154.519 577.273 151.024 577.01 148.303L577.006 148.252C576.78 144.644 576.555 141.898 576.334 140C575.912 137.898 575.555 136.475 575.271 135.659C574.723 134.888 574.128 134.022 573.486 133.061L573.453 133.01L573.423 132.956C572.939 132.085 572.307 131.305 571.52 130.616L571.482 130.583L571.447 130.548C570.691 129.792 569.721 129.152 568.505 128.646C567.39 128.181 566.029 127.969 564.379 128.072L564.374 128.073C562.642 128.175 561.429 128.623 560.598 129.288C559.613 130.076 558.834 131.002 558.247 132.071C557.776 133.022 557.486 134.082 557.388 135.265C557.286 136.49 557.339 137.506 557.513 138.335C557.699 138.875 557.979 139.487 558.367 140.172C558.752 140.741 559.3 141.394 560.036 142.13C560.661 142.755 561.564 143.343 562.808 143.861L567.966 146.011L562.424 146.733C559.791 147.077 557.44 147.364 555.373 147.594L555.332 147.598L555.291 147.601C553.268 147.713 551.548 147.88 550.125 148.099L550.11 148.102L550.096 148.104C548.369 148.334 546.862 148.507 545.579 148.624C544.392 148.732 542.963 148.95 541.284 149.286L541.251 149.293L541.218 149.298C539.736 149.526 537.911 149.811 535.743 150.153C533.599 150.492 531.107 150.946 528.267 151.514L524.005 152.365L526.833 149.066C527.501 148.288 528.112 147.564 528.669 146.896C529.219 146.127 529.724 145.454 530.182 144.88C530.649 144.181 531.121 143.534 531.597 142.938L531.606 142.927L531.616 142.916C531.858 142.626 532.187 141.798 532.299 140.014L532.302 139.973L532.307 139.933C532.547 137.893 533.022 135.642 533.724 133.187L533.743 133.124C534.598 130.56 535.987 127.919 537.875 125.205C539.88 122.324 543.06 119.732 547.284 117.385C551.413 115.027 555.481 113.58 559.48 113.096ZM568.705 167.197C565.74 166.032 562.364 165.539 558.548 165.757H558.545C556.687 165.86 554.809 166.325 552.904 167.172L552.872 167.187L552.839 167.199C550.982 167.921 549.33 169.004 547.875 170.459L547.855 170.479L547.835 170.497C546.361 171.866 545.086 173.509 544.015 175.437C543.121 177.136 542.661 179.053 542.661 181.218C542.661 183.348 543.161 185.164 544.12 186.717C545.24 188.23 546.667 189.504 548.419 190.536C550.292 191.573 552.256 192.192 554.321 192.399C556.512 192.608 558.644 192.402 560.726 191.783C562.677 191.058 564.552 189.918 566.351 188.336C568.211 186.584 569.788 184.733 571.088 182.783C572.385 180.724 573.281 178.756 573.803 176.876C574.332 174.855 574.322 173.419 573.997 172.442L573.991 172.426L573.986 172.409C573.226 169.939 571.549 168.214 568.749 167.214L568.727 167.206L568.705 167.197Z" fill="black" stroke="black" stroke-width="3"/>
<path d="M450.437 117.065C457.318 115.229 463.865 114.751 470.062 115.665L470.063 115.664C476.399 116.485 482.072 118.31 487.058 121.159C491.977 123.97 495.58 127.096 497.702 130.59C499.626 133.759 501.06 136.224 501.995 137.972C502.976 139.5 503.721 140.755 504.211 141.717C504.687 142.382 505.077 142.918 505.382 143.328C505.853 143.691 506.449 144.18 507.16 144.789L507.204 144.827L507.245 144.867C507.778 145.401 508.428 145.998 509.2 146.66L510.329 147.615C510.733 147.962 511.165 148.337 511.625 148.739C512.519 149.522 513.53 150.363 514.658 151.266L519.155 154.863L513.474 153.917C512.177 153.701 510.523 153.533 508.499 153.421H508.494C506.58 153.308 504.725 153.252 502.929 153.252C500.901 153.252 498.756 153.309 496.495 153.422H496.492C495.293 153.479 494.093 153.536 492.894 153.593C491.695 153.65 490.496 153.708 489.297 153.765L489.296 153.764C487.263 153.877 484.942 154.047 482.333 154.274L482.302 154.277L482.271 154.278C479.782 154.391 477.351 154.561 474.979 154.787L474.167 151.952C474.896 151.588 475.537 151.086 476.096 150.434L476.134 150.39L476.174 150.349C476.912 149.611 477.533 148.886 478.044 148.174C478.554 147.354 479.015 146.482 479.43 145.557C479.853 144.23 479.841 142.522 479.219 140.345L479.216 140.337L479.214 140.328C478.593 138.052 477.454 135.971 475.772 134.078L475.755 134.061L475.741 134.042C474.199 132.192 472.178 130.729 469.635 129.67L469.6 129.655L469.565 129.639C467.278 128.545 464.715 128.271 461.806 128.892C458.523 129.659 455.591 130.802 453 132.311C450.595 133.776 448.532 135.828 446.819 138.501L446.525 138.987C445.08 141.453 443.978 144.531 443.252 148.258C442.596 152.101 442.424 156.766 442.761 162.274L442.853 163.545C443.354 169.812 444.442 174.735 446.061 178.378C447.822 182.339 449.917 185.195 452.294 187.056C454.723 188.956 457.33 190.097 460.127 190.517C463.183 190.842 466.178 190.842 469.115 190.521C471.005 190.112 472.761 189.261 474.391 187.939C475.679 186.847 476.937 185.199 478.133 182.916C479.222 180.838 479.786 177.817 479.675 173.718L479.635 172.239L481.114 172.179L502.011 171.322L504.231 171.231L503.486 173.324C501.047 180.177 498.055 185.722 494.475 189.898L494.468 189.906L494.461 189.915C490.979 193.862 487.574 196.983 484.244 199.242L484.234 199.249C480.344 201.843 476.415 203.636 472.45 204.598L472.4 204.609L472.349 204.618C467.596 205.43 463.324 205.784 459.545 205.666H459.522L459.499 205.664C455.747 205.43 452.316 204.842 449.216 203.888C446.159 202.947 443.325 201.768 440.717 200.346C438.16 198.951 435.716 197.438 433.387 195.808C431.716 194.65 429.948 192.797 428.081 190.346C426.181 187.852 424.418 184.907 422.785 181.523L422.78 181.515L422.776 181.506C421.132 177.984 419.788 174.124 418.74 169.931C417.675 165.672 417.263 161.297 417.499 156.812C417.736 152.177 418.806 147.558 420.692 142.961C422.604 138.3 425.634 133.86 429.74 129.638L429.745 129.633C435.939 123.321 442.612 119.16 449.769 117.248L450.437 117.065Z" fill="black" stroke="black" stroke-width="3"/>
<path d="M404.42 116.012C403.401 118.503 402.495 120.766 401.703 122.803C401.024 124.837 400.4 126.652 399.832 128.246C399.267 130.052 398.756 131.638 398.301 133.005C397.847 134.594 397.337 136.411 396.769 138.455L396.763 138.479L396.755 138.501C396.181 140.34 395.435 142.634 394.52 145.38C393.721 148.003 392.754 151.135 391.617 154.773L388.706 154.573C387.817 149.242 386.227 145.153 384.018 142.208L384.002 142.188C381.671 138.969 379.325 136.527 376.975 134.817C374.172 132.881 371.163 131.481 367.942 130.614C361.853 129.606 357.816 129.802 355.524 130.853C352.976 132.02 351.487 133.412 350.775 134.924L350.75 134.978L350.72 135.029C350.299 135.766 349.811 136.736 349.258 137.951C348.836 139.011 348.464 140.126 348.142 141.298C347.947 142.401 347.9 143.5 348 144.599C348.07 145.376 348.343 145.983 348.819 146.481L349.036 146.688L349.073 146.722L349.108 146.757C349.229 146.878 349.579 147.136 350.3 147.524C350.983 147.892 351.9 148.324 353.065 148.824C355.45 149.733 358.286 150.811 361.573 152.058C364.999 153.2 368.593 154.456 372.356 155.824L375.239 156.856C378.079 157.889 380.791 158.923 383.376 159.957C386.843 161.343 389.868 162.738 392.445 164.144C394.831 165.445 396.67 166.751 397.723 168.099L397.923 168.368L397.954 168.412L397.981 168.457C398.715 169.681 399.484 171.285 400.292 173.243C401.262 175.201 401.921 177.376 402.282 179.755C402.763 182.064 402.88 184.477 402.643 186.988C402.512 189.488 401.822 191.96 400.605 194.395C399.341 196.923 397.348 199.202 394.7 201.248L394.699 201.247C392.108 203.337 388.671 205.005 384.458 206.292L384.457 206.291C379.47 207.834 374.618 208.262 369.917 207.539C365.378 206.841 361.169 205.791 357.298 204.383L357.292 204.38L357.285 204.378C353.607 202.999 350.375 201.672 347.594 200.397L347.571 200.387L347.548 200.375C346.221 199.712 345.138 199.268 344.284 199.017C343.398 198.756 342.906 198.748 342.689 198.791L342.676 198.794L342.664 198.796C341.671 198.976 340.431 199.498 338.924 200.467C337.361 201.472 335.853 202.533 334.403 203.648L334.395 203.653L334.388 203.659C333.043 204.668 331.877 205.612 330.887 206.492L330.85 206.525L330.812 206.555C330.292 206.959 329.829 207.293 329.463 207.496C329.327 207.572 329 207.75 328.611 207.793C328.41 207.815 327.916 207.834 327.453 207.474C326.939 207.075 326.849 206.522 326.849 206.228C326.849 205.897 326.945 205.486 327.022 205.179C327.116 204.804 327.252 204.322 327.426 203.741L327.446 203.677L327.47 203.615C327.903 202.534 328.344 201.215 328.792 199.649L328.8 199.618L328.81 199.587C329.365 197.921 329.867 196.138 330.315 194.236L330.322 194.207L330.33 194.179C330.884 192.183 331.268 190.314 331.486 188.57L331.488 188.549L331.492 188.527C331.719 187.051 332.002 185.238 332.341 183.089C332.57 181.145 332.856 178.803 333.199 176.065L333.202 176.04L333.206 176.015C333.661 173.171 334.173 169.753 334.744 165.762L337.702 165.691C338.252 168.554 339.013 170.989 339.969 173.014C341.09 175.141 342.147 176.974 343.14 178.52C344.344 180.268 345.48 181.726 346.546 182.904C348.163 184.407 350.06 185.816 352.246 187.127H352.245C354.574 188.457 356.899 189.619 359.22 190.615C361.511 191.486 363.661 192.019 365.676 192.231C367.664 192.441 369.201 192.216 370.372 191.676C371.498 191.156 372.545 190.164 373.461 188.534L373.479 188.504L373.497 188.475C374.543 186.801 375.278 184.968 375.7 182.966C376.133 180.909 376.288 178.987 376.183 177.196V177.191C376.082 175.368 375.64 174.033 374.965 173.078C374.752 172.844 374.333 172.493 373.616 172.032C372.878 171.558 371.901 171.014 370.672 170.399L370.647 170.386C368.291 169.152 365.415 167.798 362.011 166.323L361.994 166.315C358.692 164.836 355.162 163.297 351.402 161.702L351.386 161.696C347.716 160.091 344.216 158.483 340.886 156.876L340.858 156.862L340.831 156.848C337.602 155.118 334.869 153.491 332.641 151.967L332.603 151.941L332.567 151.913C330.477 150.287 328.922 148.561 328.586 146.716L328.579 146.675L328.574 146.633C328.34 144.765 328.166 142.73 328.05 140.53V140.526C327.931 138.144 328.049 135.813 328.409 133.537L328.414 133.508L328.419 133.478C328.907 131.04 329.761 128.724 330.978 126.534L330.993 126.507L331.009 126.48C332.416 124.179 334.441 122.298 337.026 120.821C338.827 119.792 341.123 119.065 343.851 118.591C346.571 118.118 349.562 117.884 352.82 117.883C356.065 117.768 359.418 117.885 362.877 118.229C366.327 118.459 369.612 118.804 372.729 119.265C375.954 119.611 378.855 120.075 381.425 120.658L382.389 120.871C384.261 121.293 385.804 121.689 387.004 122.06L387.577 122.242L387.591 122.247L387.607 122.253C388.896 122.713 390.304 122.775 391.876 122.382L391.902 122.375L391.926 122.37C393.31 122.074 394.861 121.415 396.584 120.338C398.145 119.362 399.887 117.512 401.777 114.622L404.42 116.012Z" fill="black" stroke="black" stroke-width="3"/>
<path d="M238.188 125.803C237.299 126.914 236.593 127.893 236.062 128.743C235.605 129.538 235.136 130.246 234.653 130.86C234.213 131.521 233.831 132.12 233.507 132.66C233.263 133.067 232.966 133.773 232.64 134.854C232.422 135.732 232.145 137.007 231.808 138.691L231.805 138.701L231.803 138.712C231.616 139.584 231.445 140.633 231.29 141.863C236.519 138.729 241.393 136.301 245.908 134.596L245.918 134.592C251.216 132.634 255.86 131.238 259.839 130.419L259.847 130.417C264.51 129.484 268.754 129.125 272.568 129.363L272.578 129.364H272.586C277.299 129.718 281.682 130.779 285.724 132.558C289.815 134.195 293.514 136.19 296.813 138.547C300.097 140.893 302.983 143.482 305.463 146.316C307.93 149.136 309.892 151.981 311.329 154.855C312.367 156.932 312.957 159.772 313.193 163.257L313.252 163.939C313.507 167.368 313.122 170.976 312.123 174.752C311.045 178.824 309.136 182.804 306.426 186.693L306.427 186.694C303.739 190.604 299.916 193.677 295.031 195.941L295.023 195.945L295.016 195.948C286.759 199.67 278.53 201.777 270.333 202.245L270.333 202.244C266.81 202.478 263.179 202.36 259.442 201.893H259.436C255.756 201.418 252.033 200.411 248.272 198.883L248.264 198.879L248.256 198.876C244.565 197.328 241.014 195.134 237.602 192.311L237.59 192.301L237.58 192.291C234.997 190.065 232.597 187.387 230.376 184.267C229.755 188.475 229.27 192.238 228.919 195.558C228.578 199.771 228.352 203.29 228.239 206.117C228.126 209.382 228.126 212.12 228.236 214.339C228.429 216.248 228.789 218.296 229.321 220.484L229.561 221.438L229.563 221.444L229.565 221.452C230.12 223.674 230.902 226.247 231.915 229.175L232.347 230.312C233.387 232.981 234.645 235.743 236.123 238.599L237.819 241.878L234.316 240.711C233.802 240.54 232.986 240.383 231.809 240.273C230.787 240.278 229.701 240.382 228.549 240.592L228.528 240.596C227.158 240.824 225.624 241.051 223.927 241.277C222.351 241.615 220.606 242.01 218.69 242.461L218.661 242.467C217.073 242.807 215.204 243.203 213.055 243.655C211.03 244.218 208.948 244.839 206.808 245.515L201.858 247.077L205.211 243.115C206.343 241.778 207.225 240.226 207.853 238.446L207.872 238.395L207.894 238.344C208.667 236.578 209.266 234.939 209.701 233.424C210.141 231.549 210.528 229.674 210.86 227.8C210.973 226.082 211.142 222.868 211.367 218.147L211.368 218.129L211.369 218.109C211.71 213.45 211.994 208.044 212.222 201.891C212.45 195.621 212.622 189.065 212.736 182.223V182.198C212.964 175.36 213.078 169.039 213.078 163.234V163.22L213.079 163.206C213.193 157.282 213.192 152.282 213.079 148.202C213.022 146.161 212.937 144.571 212.828 143.421C212.773 142.845 212.714 142.401 212.654 142.075C212.609 141.834 212.573 141.707 212.557 141.658C212.241 141.134 211.588 140.445 210.441 139.61L210.421 139.596L210.403 139.581C209.527 138.9 208.181 138.161 206.298 137.386L206.284 137.38L206.269 137.373C204.523 136.609 202.133 135.773 199.079 134.868L199.273 131.948C202.913 131.379 205.875 130.923 208.16 130.58C210.53 130.129 212.467 129.787 213.964 129.556C215.658 129.217 216.936 128.938 217.811 128.72C218.71 128.495 220.009 128.156 221.711 127.702C223.229 127.237 225.184 126.72 227.566 126.152C229.942 125.473 232.942 124.567 236.57 123.434L241.254 121.97L238.188 125.803ZM271.96 139.212C268.69 139.212 265.447 140.054 262.217 141.776C258.915 143.537 255.887 145.74 253.129 148.387C250.352 151.054 247.909 153.938 245.801 157.043C243.8 160.045 242.451 162.709 241.707 165.041C240.971 167.457 240.823 169.785 241.234 172.045C241.638 174.267 242.648 176.367 244.319 178.355C246.094 180.333 248.592 182.158 251.873 183.802C255.248 185.323 259.496 186.489 264.649 187.273C269.824 188.061 273.511 187.901 275.887 187.01C278.36 186.082 280.057 184.687 281.111 182.866L281.123 182.847C282.381 180.75 283.237 178.312 283.667 175.511C284.129 172.4 284.704 169.177 285.394 165.843L285.396 165.832C286.028 162.883 285.927 159.872 285.075 156.781L285.071 156.77C284.192 153.474 282.935 150.53 281.308 147.928L281.285 147.889C279.758 145.272 278.038 143.188 276.139 141.605L276.104 141.576L276.071 141.545C274.207 139.791 272.856 139.212 271.96 139.212Z" fill="black" stroke="black" stroke-width="3"/>
<path d="M141.223 113.096C145.151 112.62 148.926 112.796 152.535 113.639C156.092 114.469 159.421 115.774 162.515 117.556C165.664 119.305 168.533 121.236 171.116 123.349C173.08 124.92 174.583 127.154 175.679 129.947H175.68C176.754 132.574 177.58 135.534 178.166 138.816C178.745 142.058 179.149 145.465 179.381 149.036L179.505 150.33C179.782 153.342 179.971 156.312 180.072 159.238C180.186 162.431 180.242 165.401 180.243 168.147C180.342 170.402 180.525 172.278 180.784 173.788L180.9 174.414L180.903 174.427L180.905 174.439C181.332 176.786 182.068 178.761 183.084 180.396C184.155 182.001 185.321 183.379 186.579 184.537C187.867 185.608 189.134 186.448 190.378 187.07C191.542 187.652 192.553 188.093 193.417 188.404L193.778 188.53L193.88 188.563L193.975 188.611C194.576 188.912 195.076 189.086 195.482 189.167L195.618 189.194L195.745 189.245C196.224 189.437 196.51 189.48 196.645 189.48C196.746 189.48 196.642 189.461 196.525 189.577L198.965 191.229C198.272 192.846 197.632 194.244 197.044 195.42C196.481 196.546 196.038 197.489 195.711 198.252L195.693 198.293L195.674 198.332C195.22 199.239 194.81 200.001 194.447 200.609C194.079 201.338 193.65 202.016 193.158 202.641C192.774 203.266 192.291 203.927 191.716 204.616C191.171 205.27 190.623 205.983 190.071 206.755L189.396 207.7L188.312 207.283C186.753 206.683 185.253 205.963 183.812 205.123L183.787 205.108L183.763 205.093C182.51 204.296 181.368 203.553 180.337 202.866C179.047 202.045 177.866 201.219 176.796 200.387C175.692 199.528 174.655 198.551 173.684 197.459L173.676 197.45C172.879 196.54 172.026 195.572 171.114 194.547L171.082 194.51L171.052 194.471C170.712 194.033 170.391 193.578 170.09 193.105C169.143 194.392 167.865 195.862 166.296 197.5L166.295 197.499C163.652 200.376 160.21 202.975 156.006 205.311L155.992 205.318L155.978 205.325C151.7 207.583 146.745 209.169 141.136 210.104L141.135 210.103C135.471 211.065 129.281 210.39 122.601 208.163V208.162C119.613 207.204 116.805 205.829 114.18 204.039L114.16 204.026L114.142 204.013C111.503 202.093 109.221 199.812 107.302 197.173L107.289 197.154L107.275 197.136C105.455 194.465 104.131 191.445 103.292 188.09L103.284 188.061L103.278 188.03C102.545 184.485 102.616 180.624 103.447 176.47C104.282 172.295 105.787 168.708 108 165.758C110.168 162.867 112.768 160.507 115.794 158.691C118.784 156.897 122.117 155.531 125.783 154.585C129.404 153.65 133.139 153.009 136.985 152.659L137.024 152.656L137.063 152.654C140.129 152.536 143.194 152.713 146.256 153.185L146.276 153.188L146.296 153.191C148.936 153.671 151.667 154.564 154.484 155.852L155.038 156.093C156.597 156.8 158.03 157.703 159.338 158.795C159.21 154.519 159.015 151.024 158.752 148.303L158.748 148.252C158.523 144.644 158.297 141.898 158.076 140C157.654 137.898 157.297 136.475 157.013 135.659C156.466 134.888 155.87 134.022 155.229 133.061L155.195 133.01L155.165 132.956C154.681 132.085 154.049 131.305 153.262 130.616L153.225 130.583L153.189 130.548C152.434 129.792 151.463 129.152 150.247 128.646C149.132 128.181 147.771 127.969 146.121 128.072L146.116 128.073C144.384 128.175 143.171 128.623 142.34 129.288C141.355 130.076 140.576 131.002 139.989 132.071C139.519 133.022 139.228 134.082 139.13 135.265C139.028 136.49 139.081 137.506 139.255 138.335C139.441 138.875 139.721 139.487 140.109 140.172C140.494 140.741 141.043 141.394 141.778 142.13C142.403 142.755 143.307 143.343 144.55 143.861L149.708 146.011L144.166 146.733C141.533 147.077 139.182 147.364 137.115 147.594L137.074 147.598L137.033 147.601C135.01 147.713 133.29 147.88 131.867 148.099L131.853 148.102L131.838 148.104C130.111 148.334 128.604 148.507 127.321 148.624C126.134 148.732 124.705 148.95 123.026 149.286L122.993 149.293L122.96 149.298C121.478 149.526 119.653 149.811 117.485 150.153C115.341 150.492 112.85 150.946 110.009 151.514L105.747 152.365L108.575 149.066C109.243 148.288 109.855 147.564 110.411 146.896C110.962 146.127 111.467 145.454 111.924 144.88C112.391 144.181 112.863 143.534 113.339 142.938L113.349 142.927L113.358 142.916C113.6 142.626 113.929 141.798 114.041 140.014L114.044 139.973L114.049 139.933C114.289 137.893 114.764 135.642 115.466 133.187L115.485 133.124C116.34 130.56 117.729 127.919 119.617 125.205C121.622 122.324 124.802 119.732 129.026 117.385C133.155 115.027 137.223 113.58 141.223 113.096ZM150.447 167.197C147.482 166.032 144.106 165.539 140.29 165.757H140.287C138.429 165.86 136.551 166.325 134.646 167.172L134.614 167.187L134.581 167.199C132.724 167.921 131.073 169.004 129.617 170.459L129.598 170.479L129.577 170.497C128.103 171.866 126.828 173.509 125.757 175.437C124.863 177.136 124.403 179.053 124.403 181.218C124.403 183.348 124.903 185.164 125.862 186.717C126.983 188.23 128.409 189.504 130.161 190.536C132.034 191.573 133.998 192.192 136.063 192.399C138.255 192.608 140.386 192.402 142.468 191.783C144.419 191.058 146.295 189.918 148.093 188.336C149.953 186.584 151.53 184.733 152.83 182.783C154.127 180.724 155.023 178.756 155.545 176.876C156.074 174.855 156.065 173.419 155.739 172.442L155.733 172.426L155.729 172.409C154.968 169.939 153.291 168.214 150.491 167.214L150.469 167.206L150.447 167.197Z" fill="black" stroke="black" stroke-width="3"/>
<path d="M38.6157 127.988C37.9345 129.691 37.3701 131.161 36.9204 132.397C36.4747 133.623 36.1498 134.657 35.938 135.504L35.9243 135.56L35.9058 135.614C35.5882 136.567 35.4693 137.251 35.4692 137.709V137.815L35.4536 137.921C35.3526 138.628 35.2974 139.524 35.2974 140.621V140.665L35.2954 140.709C35.2143 142.088 35.1915 144.126 35.231 146.836C40.1371 142.662 44.3382 139.324 47.8286 136.831L47.8442 136.819C51.9582 133.962 55.2217 131.729 57.6313 130.123L57.6431 130.115L57.6548 130.108C60.5303 128.268 62.8741 126.992 64.6392 126.361L64.7681 126.315L64.9038 126.294C69.3927 125.566 73.427 126.551 76.896 129.26L77.23 129.527L77.2378 129.534C78.744 130.789 80.1449 132.444 81.4536 134.461L81.7085 134.844C82.9708 136.791 84.0294 139.276 84.9106 142.25C85.8573 145.445 86.5558 149.25 87.019 153.649L87.1021 154.472C87.4927 158.631 87.5208 163.526 87.1968 169.142L87.1226 170.427L85.8413 170.549C83.4518 170.776 81.2929 171.004 79.3647 171.23L79.3638 171.229C77.5581 171.455 76.0209 171.626 74.7554 171.742C73.2604 171.971 71.8576 172.089 70.5503 172.095L66.0132 172.599C64.3878 172.83 62.3737 173.061 59.9761 173.289L59.9429 173.292L59.9087 173.294C57.6603 173.406 54.891 173.633 51.5952 173.974L46.5718 174.493L50.4966 171.315C55.2535 167.465 58.118 164.268 59.3384 161.726L59.3433 161.715L59.3491 161.704C60.784 158.834 61.2623 156.696 61.0845 155.185L61.0825 155.167C60.9026 153.458 60.1184 151.94 58.6128 150.584C56.7716 149.552 54.8085 149.181 52.6714 149.473L52.6479 149.476L52.6255 149.479C50.7573 149.675 48.4601 150.531 45.7036 152.185C43.1965 153.689 40.4101 156.553 37.3677 160.938C37.5902 168.003 37.8125 173.87 38.0347 178.541L38.5054 185.047C38.6469 186.972 38.7738 188.672 38.8872 190.146L39.3569 194.719C39.4956 196.022 39.6207 197.148 39.7319 198.097C40.0037 199.432 40.5131 200.879 41.2827 202.441L41.6323 203.126L41.6401 203.141L41.6479 203.156C42.3928 204.646 43.4779 206.335 44.9243 208.227C46.3207 210.052 48.172 211.911 50.5005 213.796L54.0474 216.667L49.4888 216.46C44.4939 216.233 40.4467 216.235 37.3306 216.458H37.3208L37.312 216.459C35.3951 216.572 33.7046 216.684 32.2407 216.796C30.6484 217.023 28.9456 217.251 27.1323 217.478L27.1313 217.477C25.5275 217.705 23.6498 217.933 21.5005 218.16C19.438 218.503 17.152 218.846 14.644 219.188L11.1606 219.663L13.229 216.819C14.0386 215.706 14.7156 214.364 15.2456 212.774L15.2505 212.759L15.2563 212.744C15.8099 211.194 16.2495 209.708 16.5776 208.286L16.5825 208.262L16.5894 208.237C17.0245 206.605 17.3525 204.916 17.5728 203.168C17.6812 201.624 17.7378 199.282 17.7378 196.119V196.093L17.7388 196.065C17.8509 192.924 17.7952 189.375 17.5688 185.414L17.5679 185.392L17.5669 185.37C17.4531 181.272 17.2829 177.059 17.0552 172.731V172.729C16.8276 168.292 16.5424 164.142 16.2017 160.28C15.8612 156.422 15.4658 153.09 15.0161 150.279L15.0112 150.247L15.0073 150.214C14.6653 147.249 14.2813 145.378 13.9077 144.439C13.3652 143.139 12.7122 141.833 11.9468 140.521L11.936 140.502L11.9263 140.482C11.2816 139.301 10.4657 138.048 9.47314 136.725L9.45654 136.702L9.43994 136.679C8.43139 135.222 7.3076 133.705 6.06787 132.127L4.02686 129.528L7.32666 129.702C9.45716 129.814 11.3562 129.869 13.0259 129.87C14.8232 129.757 16.3337 129.647 17.5601 129.535L17.5815 129.533C19.0484 129.42 20.3426 129.307 21.4653 129.195C23.1416 128.971 24.8763 128.692 26.6694 128.355L26.7017 128.35L26.7339 128.345C28.2908 128.122 29.9058 127.843 31.5796 127.509C33.3603 127.063 35.084 126.564 36.7495 126.009L39.8169 124.986L38.6157 127.988Z" fill="black" stroke="black" stroke-width="3"/>
<mask id="mask1_67_288" style="mask-type:alpha" maskUnits="userSpaceOnUse" x="707" y="104" width="54" height="102">
<path d="M716.624 133.238L748.142 133.581L750.063 133.603L749.576 135.462C747.757 142.398 746.396 148.293 745.491 153.152C744.698 158.03 744.193 162.087 743.969 165.332L743.966 165.37L743.962 165.409C743.515 169.096 743.408 172.17 743.62 174.652C743.951 176.954 744.503 179.435 745.279 182.098C745.938 184.294 746.937 186.853 748.288 189.779C749.605 192.633 751.37 195.508 753.596 198.4L756.588 202.29L751.933 200.738C750.657 200.313 749.261 199.99 747.741 199.772C746.167 199.548 744.712 199.38 743.376 199.269V199.268C741.854 199.16 740.332 199.161 738.811 199.27C737.243 199.381 735.502 199.55 733.585 199.775C731.995 200.003 730.065 200.287 727.793 200.628C725.55 200.964 723.188 201.414 720.708 201.978L718.11 202.567L718.953 200.04C720.657 194.927 721.957 190.516 722.857 186.801L722.862 186.779L722.868 186.759C723.887 183.023 724.616 179.935 725.062 177.484C725.511 174.568 725.787 172.24 725.898 170.485V154.266C725.898 151.545 725.842 149.176 725.729 147.155V147.15C725.674 146.094 725.593 145.271 725.491 144.663C725.441 144.36 725.388 144.13 725.339 143.962C725.324 143.91 725.308 143.869 725.296 143.836L723.821 142.361C723.166 141.818 722.178 141.049 720.846 140.05L720.789 140.007L720.737 139.96C719.535 138.867 717.867 137.53 715.718 135.946L711.975 133.188L716.624 133.238ZM728.073 107.031C730.753 105.628 733.514 105.212 736.295 105.87C739.049 106.496 741.303 107.717 742.926 109.61C744.601 111.565 745.159 113.904 744.639 116.473C744.191 119.31 741.879 121.734 738.467 123.852L738.451 123.861L738.435 123.871C734.952 125.912 731.639 126.783 728.608 126.095C725.785 125.453 723.605 124.049 722.323 121.771C721.062 119.529 720.901 116.99 721.674 114.285C722.503 111.269 724.74 108.883 728.041 107.049L728.057 107.04L728.073 107.031Z" fill="black" stroke="black" stroke-width="3"/>
</mask>
<g mask="url(#mask1_67_288)">
<rect x="699.696" y="137.639" width="61.9278" height="72.5876" fill="black" stroke="black" stroke-width="3"/>
</g>
</svg>
