<svg width="993" height="177" viewBox="0 0 993 177" fill="none" xmlns="http://www.w3.org/2000/svg">
<path d="M954.922 52.0039L954.946 52.0049C959.734 52.2442 964.178 53.0231 968.275 54.3477H968.276C972.446 55.6581 976.048 57.2149 979.071 59.0254C982.189 60.7058 984.745 62.5249 986.713 64.4932C988.616 66.3962 989.886 68.1876 990.319 69.8555H990.32C991.771 74.5714 992.149 78.9779 991.408 83.0547L991.407 83.0605C990.692 86.8726 989.74 90.6254 988.549 94.3184C987.499 97.8205 986.564 101.322 985.747 104.823C985.084 108.147 985.35 111.784 986.591 115.756C986.818 116.268 987.046 116.779 987.273 117.291C987.506 117.813 987.738 118.336 987.97 118.858C988.41 119.736 988.963 120.622 989.634 121.517C990.271 122.367 991.007 123.046 991.839 123.566L991.218 125.41C989.952 125.295 988.686 125.237 987.42 125.237H987.375L987.329 125.233C986.031 125.115 984.849 124.997 983.783 124.879C982.486 124.761 981.305 124.643 980.239 124.524H980.238C979.109 124.412 977.56 124.354 975.577 124.354C972.186 124.354 966.903 124.529 959.718 124.883L958.119 124.961L958.75 123.49C959.806 121.026 960.623 118.984 961.202 117.361L961.208 117.344L961.215 117.326C961.918 115.569 962.507 114.151 962.983 113.077C963.447 111.801 963.794 110.822 964.023 110.134L964.034 110.101L964.048 110.067C965.412 106.772 966.217 102.997 966.447 98.7305L966.449 98.7031C966.794 94.4495 966.509 90.1335 965.588 85.752C965.249 84.2825 964.678 82.5043 963.863 80.4102C963.07 78.3705 961.99 76.3803 960.619 74.4385L960.608 74.4219L960.597 74.4043C959.364 72.499 957.854 70.8774 956.064 69.5352L956.052 69.5264L956.039 69.5166C954.429 68.2289 952.552 67.4733 950.378 67.2559C948.264 67.0445 945.805 67.5645 942.971 68.9229L942.468 69.1865C939.941 70.5679 937.15 72.9625 934.104 76.4414C931.724 79.5068 929.837 83.2749 928.455 87.7656L928.451 87.7773L928.447 87.7881C927.185 91.5746 926.312 96.3792 925.845 102.223V102.224C925.385 107.86 926.071 114.524 927.94 122.234L928.288 123.668L926.827 123.46C925.216 123.23 923.732 123.116 922.373 123.116H922.331L922.29 123.112C920.88 122.995 919.695 122.876 918.738 122.757C917.577 122.641 916.528 122.525 915.59 122.408C914.524 122.406 913.353 122.347 912.078 122.232H907.669L907.636 122.23C905.875 122.113 903.819 121.996 901.466 121.878L900.294 121.819L900.537 120.672C901.358 116.803 901.941 113.416 902.29 110.508L902.292 110.491L902.295 110.475C902.765 107.417 903.117 104.896 903.351 102.909C903.582 100.589 903.695 98.6334 903.696 97.0352C903.579 95.0341 903.462 92.6849 903.345 89.9893L903.344 89.9678V89.9463C903.344 87.146 903.227 84.4059 902.994 81.7256L902.992 81.7031L902.991 81.6807C902.874 78.8686 902.698 76.4175 902.466 74.3252V74.3193C902.235 72.1241 901.953 70.6569 901.653 69.835C901.221 68.981 900.622 68.0545 899.846 67.0557C898.294 65.177 895.986 63.3085 892.875 61.4648L890.687 60.168L893.172 59.627C895.868 59.0409 898.162 58.5708 900.052 58.2158C902.038 57.7485 903.668 57.3411 904.945 56.9932C906.33 56.5318 907.544 56.1273 908.588 55.7793C909.567 55.4121 910.718 55.0496 912.035 54.6904L912.058 54.6846L912.081 54.6787C913.138 54.4438 914.432 54.15 915.962 53.7969C917.492 53.4438 919.258 53.0316 921.26 52.5605L922.532 52.2617L922.488 53.5674L922.049 66.8682C925.282 63.355 928.581 60.6173 931.949 58.6777C935.884 56.4124 939.607 54.7855 943.117 53.8145C947.093 52.6098 951.02 52.0039 954.896 52.0039H954.922Z" fill="black" stroke="black" stroke-width="2"/>
<path d="M838.024 60.1348C841.208 60.1348 844.493 60.7461 847.874 61.9502C851.233 63.0299 854.472 64.4683 857.588 66.2637C860.695 67.9368 863.512 69.7931 866.035 71.834C868.652 73.739 870.817 75.6005 872.516 77.4209L872.519 77.4238C875.621 80.7744 877.69 85.261 878.776 90.8145H878.775C879.975 96.2269 880.214 101.814 879.494 107.569L879.493 107.572C878.771 113.228 877.086 118.586 874.438 123.641C871.759 128.757 868.021 132.567 863.227 135.025L863.218 135.03C859.872 136.703 856.576 138.022 853.333 138.983C850.115 139.937 847.008 140.654 844.015 141.133C841.024 141.611 838.202 141.853 835.55 141.853C832.944 141.853 830.683 141.793 828.771 141.674H828.766C825.043 141.426 821.185 140.125 817.198 137.83L817.187 137.824L817.697 136.964L817.187 137.823C813.344 135.542 809.688 132.725 806.22 129.376L806.214 129.369L806.208 129.363C802.853 126.009 799.975 122.352 797.575 118.393L797.568 118.381C795.166 114.297 793.694 110.403 793.199 106.705L793.198 106.706C792.479 101.791 792.361 96.6449 792.839 91.2715C793.325 85.8031 795.089 80.7545 798.125 76.1396L798.13 76.1318L798.135 76.125C801.32 71.4703 806.068 67.6553 812.314 64.6523L812.321 64.6494C818.752 61.6159 827.343 60.1348 838.024 60.1348ZM837.781 71.6494C835.111 70.9818 832.948 71.1206 831.213 71.9336C830.44 72.3235 829.366 73.2117 827.977 74.7168C826.621 76.1854 825.247 78.0704 823.857 80.3857L823.852 80.3955L823.845 80.4053C822.473 82.5776 821.205 85.1053 820.048 87.9951C819.012 90.8745 818.264 93.8714 817.803 96.9863C817.344 100.08 817.226 103.415 817.455 106.995L817.524 107.664C817.896 110.99 818.62 114.159 819.695 117.173L819.914 117.744C821.029 120.565 822.536 123.026 824.431 125.137C826.361 127.061 828.769 128.237 831.699 128.649L832.294 128.722L832.332 128.726L832.37 128.733C833.395 128.92 834.947 128.701 837.121 127.903C839.224 127.015 841.301 125.619 843.347 123.688L843.357 123.678L843.367 123.669C845.507 121.754 847.383 119.317 848.986 116.34L848.992 116.328C850.676 113.298 851.707 109.613 852.052 105.245V105.243C852.401 100.931 852.4 96.9854 852.053 93.4014L852.052 93.3848L852.051 93.3691C851.819 89.772 851.298 86.6695 850.501 84.0508L850.497 84.04V84.0391C849.687 81.2617 848.774 79.0508 847.772 77.3809C846.766 75.7029 845.758 74.6203 844.78 74.0264C842.883 73.0256 840.569 72.2309 837.82 71.6582L837.801 71.6543L837.781 71.6494Z" fill="black" stroke="black" stroke-width="2"/>
<path d="M574.984 38.0132C578.926 37.5354 582.698 37.7141 586.294 38.5532C589.873 39.3883 593.216 40.701 596.321 42.4917L597.51 43.1675C600.248 44.7639 602.762 46.4984 605.051 48.3706H605.052C606.903 49.8516 608.361 51.9928 609.444 54.7583C610.521 57.389 611.354 60.3702 611.948 63.6978C612.54 67.0119 612.954 70.5011 613.191 74.1646L613.318 75.4917C613.603 78.5811 613.797 81.6257 613.9 84.6255L613.978 87.0601C614.044 89.4422 614.077 91.6932 614.077 93.813L614.126 94.8013C614.236 96.7324 614.412 98.3912 614.65 99.7808L614.774 100.454L614.776 100.462L614.867 100.934C615.339 103.268 616.111 105.285 617.175 106.991C618.33 108.724 619.597 110.222 620.975 111.486C622.361 112.641 623.741 113.559 625.113 114.245C626.339 114.857 627.422 115.332 628.364 115.671L628.76 115.809L628.794 115.82L628.825 115.835C629.419 116.133 629.957 116.337 630.44 116.455L630.645 116.5L630.689 116.508L630.731 116.526C631.896 116.992 632.433 116.87 632.667 116.636L633.48 117.187C632.771 118.843 632.118 120.266 631.523 121.456C630.937 122.629 630.47 123.621 630.122 124.434L630.116 124.448L630.109 124.46C629.639 125.402 629.222 126.176 628.861 126.778C628.5 127.498 628.078 128.161 627.596 128.767C627.228 129.375 626.748 130.035 626.158 130.744C625.578 131.44 624.996 132.196 624.413 133.012L624.188 133.327L623.826 133.188C622.269 132.589 620.772 131.871 619.335 131.033L619.327 131.028L619.318 131.022C618.023 130.198 616.845 129.432 615.783 128.724C614.476 127.892 613.284 127.058 612.21 126.222C611.124 125.378 610.1 124.414 609.139 123.332L609.136 123.329C608.312 122.387 607.429 121.386 606.487 120.327L606.476 120.315L606.466 120.302C605.809 119.458 605.227 118.542 604.717 117.556C603.812 119.069 602.22 121.004 599.975 123.346C597.339 126.22 593.878 128.84 589.604 131.214L589.595 131.219C585.297 133.487 580.295 135.092 574.597 136.042L574.598 136.042C568.961 137.002 562.751 136.338 555.979 134.082L555.42 133.897C552.635 132.95 550.009 131.635 547.542 129.953L547.535 129.949L547.529 129.944C544.895 128.028 542.618 125.751 540.702 123.117L540.698 123.111L540.693 123.105C538.89 120.46 537.571 117.458 536.733 114.106L536.73 114.096L536.729 114.086C536.005 110.591 536.069 106.752 536.904 102.575C537.741 98.3909 539.24 94.842 541.414 91.9438C543.573 89.0656 546.154 86.7232 549.157 84.9214C552.148 83.1269 555.493 81.7548 559.188 80.8013C562.868 79.8516 566.665 79.1982 570.58 78.8423L570.593 78.8413H570.606C573.702 78.7223 576.798 78.9004 579.893 79.3765L579.906 79.3784V79.3794C582.546 79.8594 585.297 80.7573 588.156 82.0679H588.155C590.636 83.1041 592.806 84.6269 594.664 86.6294C594.539 81.0386 594.316 76.5643 593.99 73.2026L593.988 73.1851C593.754 69.4323 593.519 66.5643 593.286 64.5757C592.825 62.274 592.427 60.6827 592.094 59.7739C591.512 58.9582 590.875 58.031 590.183 56.9927L590.172 56.9761L590.162 56.9585C589.602 55.95 588.872 55.0523 587.972 54.2642L587.959 54.2524L587.947 54.2407C587.057 53.3507 585.936 52.619 584.573 52.0513C583.244 51.4976 581.674 51.2672 579.848 51.3813H579.846C577.912 51.4951 576.431 52.004 575.356 52.8638C574.229 53.7659 573.33 54.8343 572.655 56.0708C572.101 57.1839 571.766 58.4129 571.653 59.7622C571.539 61.1287 571.598 62.3048 571.815 63.2983C572.037 63.957 572.37 64.6802 572.82 65.4692C573.267 66.1364 573.888 66.8715 574.69 67.6743C575.457 68.441 576.516 69.1164 577.888 69.688L579.607 70.4038L577.76 70.645C575.047 70.9988 572.629 71.2937 570.504 71.5298L570.49 71.5317H570.477C568.366 71.649 566.556 71.8246 565.045 72.0571L565.035 72.0591C563.263 72.2953 561.724 72.4727 560.419 72.5913C559.146 72.707 557.632 72.9393 555.876 73.2905L555.864 73.2935L555.854 73.2944C554.322 73.53 552.438 73.8248 550.199 74.1782C547.969 74.5304 545.383 75.0002 542.442 75.5884L541.021 75.8726L541.964 74.7729C542.668 73.9515 543.313 73.1885 543.899 72.4849C544.482 71.6701 545.009 70.9666 545.48 70.3765C545.953 69.6688 546.427 69.0169 546.902 68.4224L546.909 68.4146C547.389 67.8391 547.738 66.6859 547.854 64.8149L547.855 64.8013L547.857 64.7876C548.097 62.7517 548.575 60.4861 549.287 57.9927L549.29 57.9819L549.294 57.9712C550.137 55.4413 551.517 52.8063 553.423 50.0669C555.367 47.2728 558.499 44.6948 562.776 42.3179L563.558 41.8823C567.455 39.7588 571.265 38.464 574.984 38.0132ZM584.76 91.8257C581.739 90.639 578.353 90.1047 574.593 90.2339L573.835 90.2681C571.78 90.3822 569.717 90.8965 567.646 91.8169L567.636 91.8218L567.625 91.8257C565.57 92.6248 563.743 93.8233 562.141 95.4253L562.135 95.4321L562.128 95.438C560.52 96.9314 559.137 98.7158 557.982 100.794C556.967 102.717 556.454 104.871 556.454 107.268C556.454 109.651 557.018 111.73 558.133 113.523C559.385 115.227 560.979 116.652 562.923 117.795C564.983 118.939 567.154 119.623 569.438 119.851H569.437C571.842 120.08 574.187 119.851 576.476 119.167C578.643 118.366 580.705 117.108 582.661 115.382C584.636 113.523 586.318 111.55 587.708 109.465C589.098 107.263 590.075 105.131 590.647 103.069C591.223 100.879 591.26 99.164 590.832 97.8813L590.828 97.8706C589.937 94.9731 587.941 92.9616 584.774 91.8306L584.767 91.8286L584.76 91.8257Z" fill="black" stroke="black"/>
<path d="M461.803 41.7856C469.1 39.7532 476.015 39.2056 482.534 40.1714L482.533 40.1724C489.003 41.013 494.781 42.874 499.853 45.772C504.884 48.647 508.516 51.8157 510.64 55.313C512.634 58.597 514.112 61.1392 515.068 62.9302C516.096 64.5298 516.864 65.823 517.357 66.7983C517.882 67.5321 518.308 68.1182 518.637 68.5591C518.988 68.8277 519.417 69.1728 519.919 69.5942L520.511 70.0972L520.54 70.1216L520.567 70.1489C521.134 70.7155 521.821 71.3465 522.632 72.0415C523.344 72.6355 524.172 73.3451 525.114 74.1694C526.044 74.9829 527.094 75.8572 528.263 76.7925L531.261 79.1909L527.473 78.5591C526.107 78.3316 524.379 78.1582 522.279 78.0415H522.276C520.291 77.9247 518.367 77.8657 516.502 77.8657C514.399 77.8657 512.177 77.9244 509.835 78.0415H509.833L506.121 78.2183C504.886 78.2771 503.651 78.3352 502.416 78.394C500.308 78.5112 497.903 78.6884 495.201 78.9233L495.18 78.9243L495.159 78.9253C492.583 79.0424 490.066 79.2186 487.608 79.4526L487.066 77.562C487.886 77.1522 488.606 76.5885 489.229 75.8618L489.254 75.8325L489.281 75.8052C490.062 75.0242 490.724 74.2507 491.272 73.4868C491.822 72.6049 492.32 71.6673 492.765 70.6724C493.255 69.1635 493.227 67.2745 492.562 64.9448L492.559 64.9331C491.894 62.4977 490.676 60.2767 488.887 58.2642L488.877 58.2515L488.866 58.2397C487.213 56.2556 485.052 54.697 482.356 53.5737L482.31 53.5522C479.825 52.3639 477.051 52.0778 473.942 52.7427C470.499 53.5473 467.416 54.7497 464.686 56.3423C462.128 57.9027 459.942 60.0802 458.135 62.9009L458.136 62.9019C456.449 65.6004 455.189 69.0127 454.381 73.1685C453.694 77.1888 453.518 82.0477 453.867 87.7593L453.963 89.0776C454.483 95.5797 455.613 100.728 457.318 104.564C459.159 108.707 461.37 111.737 463.914 113.728C466.494 115.747 469.276 116.966 472.269 117.412C475.47 117.753 478.609 117.754 481.689 117.417C483.744 116.978 485.646 116.056 487.401 114.632C488.803 113.445 490.143 111.679 491.4 109.279C492.585 107.017 493.169 103.794 493.054 99.5181L493.027 98.5327L494.013 98.4917L515.577 97.6079L517.057 97.5474L516.561 98.9429C514.059 105.972 511 111.629 507.362 115.874L507.358 115.878L507.354 115.884C503.78 119.934 500.301 123.12 496.913 125.418L496.906 125.422C492.936 128.069 488.941 129.891 484.921 130.866L484.888 130.874L484.854 130.879C479.975 131.712 475.605 132.074 471.751 131.954L471.72 131.952C467.884 131.712 464.387 131.112 461.236 130.142C458.114 129.181 455.222 127.978 452.566 126.529C449.944 125.098 447.439 123.548 445.053 121.877L444.74 121.655C443.172 120.496 441.493 118.712 439.7 116.359C437.766 113.821 435.966 110.815 434.293 107.35L434.287 107.337C432.607 103.738 431.231 99.7884 430.157 95.4917C429.072 91.1508 428.651 86.6911 428.892 82.1167C429.134 77.4 430.222 72.6939 432.146 68.0024C434.089 63.2683 437.173 58.7448 441.37 54.4282L441.373 54.4243L441.969 53.8247C448.142 47.6984 454.753 43.6657 461.803 41.7856Z" fill="black" stroke="black" stroke-width="2"/>
<path d="M414.342 39.7725C413.286 42.3523 412.348 44.6964 411.527 46.8057C410.825 48.9137 410.179 50.7915 409.591 52.4385C409.009 54.3013 408.483 55.9366 408.015 57.3438L407.265 59.9912C407 60.9328 406.72 61.9334 406.426 62.9932L406.421 63.0088L406.416 63.0234C405.826 64.9113 405.06 67.2659 404.12 70.0859L404.121 70.0869C403.295 72.8002 402.292 76.0432 401.113 79.8154L399.173 79.6816C398.247 74.1253 396.582 69.8147 394.233 66.6836L394.229 66.6777L394.224 66.6709C391.799 63.322 389.342 60.7588 386.863 58.9521L386.304 58.5732C383.506 56.7214 380.514 55.3688 377.323 54.5127C371.011 53.4649 366.693 53.6379 364.164 54.7969C361.465 56.0341 359.804 57.5455 358.996 59.2627L358.979 59.2988L358.959 59.333C358.511 60.1161 357.999 61.1378 357.422 62.4062C356.973 63.5305 356.578 64.7129 356.238 65.9541C356.025 67.1475 355.974 68.3381 356.082 69.5283C356.178 70.5796 356.594 71.3994 357.335 72.0479L357.36 72.0703L357.384 72.0938C357.569 72.2789 357.989 72.5755 358.741 72.9805C359.465 73.3705 360.429 73.8255 361.639 74.3447C364.106 75.2846 367.041 76.4002 370.445 77.6914C373.981 78.8703 377.692 80.1662 381.578 81.5791C385.596 82.9972 389.381 84.4163 392.93 85.8359C396.492 87.2607 399.593 88.6914 402.229 90.1289C404.679 91.4657 406.49 92.7691 407.503 94.0635L407.695 94.3223L407.716 94.3506L407.733 94.3809C408.473 95.613 409.256 97.2444 410.086 99.2568C411.069 101.233 411.738 103.438 412.104 105.863C412.588 108.184 412.708 110.615 412.471 113.151L412.44 113.622C412.257 115.973 411.578 118.307 410.422 120.619C409.165 123.134 407.173 125.418 404.499 127.488L404.5 127.489C401.895 129.598 398.409 131.295 394.091 132.615L394.092 132.616C389.014 134.188 384.088 134.619 379.326 133.887C374.674 133.171 370.367 132.095 366.41 130.656L366.4 130.653C362.614 129.233 359.291 127.869 356.437 126.561L356.422 126.554L356.406 126.546C355.021 125.853 353.872 125.38 352.948 125.108C352.003 124.83 351.393 124.794 351.04 124.864L351.031 124.866L351.022 124.867C349.902 125.071 348.554 125.648 346.966 126.669C345.339 127.715 343.771 128.819 342.262 129.979L342.252 129.986C340.855 131.034 339.64 132.018 338.604 132.938L338.58 132.961L338.555 132.98C338.021 133.396 337.571 133.718 337.233 133.905C337.096 133.982 336.842 134.115 336.56 134.146C336.414 134.163 336.076 134.173 335.761 133.928C335.413 133.657 335.35 133.282 335.35 133.075C335.35 132.813 335.429 132.456 335.512 132.126C335.606 131.751 335.743 131.262 335.922 130.667L335.935 130.624L335.951 130.583C336.406 129.445 336.867 128.065 337.332 126.438L337.339 126.416L337.346 126.396C337.924 124.659 338.446 122.803 338.911 120.826L338.916 120.808L338.921 120.788C339.499 118.707 339.901 116.752 340.13 114.922L340.132 114.908L340.134 114.894C340.369 113.367 340.661 111.491 341.013 109.266C341.249 107.261 341.544 104.845 341.897 102.019L341.899 102.002L341.902 101.984C342.373 99.0456 342.902 95.5162 343.49 91.3955L345.463 91.3486C346.038 94.3385 346.836 96.898 347.847 99.0391C349.008 101.245 350.107 103.153 351.143 104.766C352.407 106.604 353.605 108.143 354.735 109.39C356.438 110.975 358.431 112.457 360.721 113.831C363.15 115.219 365.576 116.433 368 117.473C370.404 118.388 372.674 118.953 374.811 119.178C376.928 119.401 378.621 119.167 379.943 118.557C381.236 117.96 382.393 116.84 383.38 115.086L383.391 115.065L383.403 115.046C384.518 113.263 385.299 111.311 385.747 109.184C386.203 107.02 386.37 104.988 386.258 103.085V103.082C386.148 101.111 385.664 99.6153 384.879 98.5205C384.614 98.2218 384.127 97.8227 383.356 97.3271C382.572 96.8231 381.546 96.252 380.269 95.6133L380.26 95.6094L380.252 95.6045C377.806 94.323 374.824 92.92 371.304 91.3945L371.292 91.3887C367.882 89.8599 364.235 88.2724 360.352 86.625L360.342 86.6201C356.561 84.9658 352.955 83.3108 349.525 81.6553L349.506 81.6465L349.487 81.6367C346.167 79.858 343.365 78.1891 341.088 76.6309L341.062 76.6133L341.038 76.5947C338.894 74.9269 337.441 73.2546 337.134 71.5654L337.128 71.5381L337.125 71.5107C336.886 69.5979 336.707 67.5116 336.588 65.2529V65.25C336.467 62.8273 336.588 60.4601 336.953 58.1504L336.956 58.1309L336.96 58.1104C337.452 55.6513 338.313 53.315 339.541 51.1045L339.551 51.0859L339.562 51.0684C340.958 48.7835 342.976 46.9043 345.575 45.4189C347.36 44.3992 349.663 43.6638 352.44 43.1807C355.217 42.6978 358.28 42.459 361.626 42.459C364.954 42.3418 368.396 42.4602 371.95 42.8145C375.503 43.0514 378.882 43.4074 382.087 43.8818C385.401 44.2378 388.375 44.7125 391.004 45.3096L391.995 45.5293C393.92 45.9631 395.495 46.3683 396.714 46.7441L397.294 46.9297L397.304 46.9326L397.313 46.9365C398.757 47.4521 400.322 47.5139 402.038 47.085L402.054 47.0801L402.07 47.0771C403.577 46.7543 405.236 46.0443 407.053 44.9092C408.761 43.8417 410.61 41.8578 412.579 38.8467L414.342 39.7725Z" fill="black" stroke="black" stroke-width="2"/>
<path d="M242.884 49.7402C241.957 50.8983 241.215 51.9265 240.652 52.8271C240.179 53.6518 239.698 54.3769 239.206 54.9971C238.748 55.6842 238.35 56.3108 238.011 56.877C237.722 57.3578 237.398 58.1434 237.055 59.2861C236.826 60.2046 236.538 61.5318 236.189 63.2754L236.187 63.2891C235.935 64.4639 235.712 65.9336 235.518 67.7041C241.257 64.2007 246.576 61.5182 251.471 59.6689L251.478 59.666C256.928 57.6518 261.692 56.221 265.764 55.3828L265.769 55.3818C270.247 54.4862 274.333 54.1096 278.021 54.2656L278.754 54.3037L278.767 54.3047C283.572 54.6651 288.033 55.7463 292.143 57.5547C296.334 59.2313 300.118 61.2722 303.488 63.6797C306.846 66.0779 309.792 68.7216 312.321 71.6123C314.842 74.4928 316.837 77.3907 318.296 80.3076C319.325 82.366 319.928 85.2297 320.167 88.8193C320.529 92.482 320.158 96.3631 319.075 100.454C317.981 104.589 316.04 108.642 313.272 112.613C310.563 116.552 306.702 119.662 301.737 121.963L301.728 121.968C293.265 125.782 284.84 127.936 276.459 128.416L276.46 128.417C272.857 128.657 269.14 128.536 265.311 128.058H265.307C261.56 127.574 257.765 126.548 253.923 124.987L253.912 124.982C250.158 123.408 246.54 121.174 243.056 118.291L243.048 118.284L243.04 118.278C240.107 115.75 237.4 112.64 234.913 108.962C234.172 113.873 233.6 118.225 233.2 122.02C232.847 126.372 232.613 130.011 232.496 132.938C232.379 136.325 232.379 139.172 232.494 141.485C232.696 143.488 233.073 145.631 233.629 147.916L233.879 148.908L233.881 148.918C234.461 151.239 235.277 153.919 236.331 156.964C237.492 160.096 238.946 163.352 240.693 166.73L241.824 168.917L239.488 168.138C238.896 167.94 237.997 167.774 236.753 167.659C235.655 167.662 234.493 167.773 233.267 167.996L233.26 167.998L233.252 167.999C231.836 168.235 230.248 168.47 228.489 168.705C226.857 169.055 225.049 169.464 223.065 169.931L223.046 169.935C221.404 170.286 219.471 170.696 217.247 171.164C215.145 171.748 212.984 172.391 210.764 173.092L207.465 174.134L209.699 171.493C210.913 170.059 211.855 168.399 212.524 166.503L212.537 166.469L212.552 166.436C213.358 164.592 213.987 162.873 214.443 161.28C214.904 159.322 215.308 157.364 215.654 155.406C215.771 153.636 215.947 150.304 216.181 145.4L216.183 145.375C216.535 140.559 216.829 134.974 217.064 128.619C217.3 122.145 217.476 115.377 217.594 108.312V108.304L217.595 108.296C217.83 101.235 217.947 94.7059 217.947 88.709V88.6895C218.065 82.5714 218.065 77.4029 217.947 73.1816C217.889 71.0701 217.801 69.4167 217.687 68.2119C217.629 67.6089 217.566 67.1323 217.5 66.7744C217.435 66.4256 217.377 66.2533 217.351 66.1924C216.975 65.5537 216.228 64.7804 215.001 63.8877L214.987 63.8779L214.975 63.8682C214.015 63.1221 212.576 62.3379 210.612 61.5293L210.603 61.5254L210.593 61.5205C208.761 60.7192 206.271 59.8492 203.108 58.9121L203.238 56.9648C207.003 56.3766 210.064 55.9055 212.422 55.5518C214.876 55.0844 216.875 54.7315 218.415 54.4941C220.169 54.1432 221.501 53.8541 222.417 53.625C223.347 53.3925 224.686 53.0422 226.438 52.5752C227.989 52.098 230.001 51.5667 232.465 50.9795C234.928 50.2757 238.041 49.3374 241.805 48.1611L244.928 47.1846L242.884 49.7402ZM278.161 63.3721C274.688 63.3721 271.254 64.2672 267.85 66.083C264.397 67.9244 261.231 70.2264 258.35 72.9922C255.455 75.771 252.909 78.7781 250.711 82.0156L250.712 82.0166C248.627 85.1439 247.205 87.9408 246.417 90.4131L246.418 90.4141C245.636 92.9838 245.473 95.4742 245.914 97.8984C246.35 100.296 247.441 102.551 249.221 104.668C251.115 106.782 253.765 108.71 257.21 110.434C260.752 112.029 265.186 113.244 270.534 114.058C275.903 114.875 279.82 114.725 282.405 113.756C285.055 112.762 286.917 111.248 288.078 109.242L288.086 109.229C289.425 106.996 290.329 104.412 290.783 101.46C291.257 98.26 291.849 94.9438 292.56 91.5117L292.562 91.5039C293.233 88.3699 293.124 85.1745 292.222 81.9043L292.22 81.8965C291.3 78.4484 289.982 75.3599 288.272 72.624L288.264 72.6104L288.256 72.5977C286.654 69.8518 284.84 67.6494 282.823 65.9688L282.801 65.9492L282.778 65.9287C280.827 64.092 279.3 63.3721 278.161 63.3721Z" fill="black" stroke="black" stroke-width="2"/>
<path d="M143.377 38.0132C147.319 37.5354 151.09 37.7141 154.687 38.5532C158.265 39.3883 161.608 40.701 164.714 42.4917L165.902 43.1675C168.641 44.7639 171.155 46.4984 173.443 48.3706H173.444C175.296 49.8516 176.754 51.9928 177.837 54.7583C178.913 57.389 179.747 60.3702 180.341 63.6978C180.933 67.0119 181.347 70.5011 181.584 74.1646L181.711 75.4917C181.995 78.5811 182.19 81.6257 182.293 84.6255L182.37 87.0601C182.436 89.4422 182.47 91.6932 182.47 93.813L182.519 94.8013C182.628 96.7324 182.804 98.3912 183.043 99.7808L183.167 100.454L183.169 100.462L183.26 100.934C183.732 103.268 184.503 105.285 185.567 106.991C186.723 108.724 187.99 110.222 189.367 111.486C190.754 112.641 192.134 113.559 193.506 114.245C194.731 114.857 195.815 115.332 196.757 115.671L197.152 115.809L197.187 115.82L197.218 115.835C197.812 116.133 198.35 116.337 198.833 116.455L199.037 116.5L199.082 116.508L199.124 116.526C200.289 116.992 200.826 116.87 201.06 116.636L201.873 117.187C201.163 118.843 200.511 120.266 199.916 121.456C199.329 122.629 198.863 123.621 198.515 124.434L198.509 124.448L198.502 124.46C198.031 125.402 197.615 126.176 197.254 126.778C196.892 127.498 196.47 128.161 195.988 128.767C195.62 129.375 195.141 130.035 194.551 130.744C193.97 131.44 193.388 132.196 192.806 133.012L192.58 133.327L192.219 133.188C190.662 132.589 189.165 131.871 187.728 131.033L187.72 131.028L187.711 131.022C186.416 130.198 185.237 129.432 184.176 128.724C182.868 127.892 181.677 127.058 180.603 126.222C179.517 125.378 178.493 124.414 177.531 123.332L177.528 123.329C176.704 122.387 175.822 121.386 174.88 120.327L174.868 120.315L174.858 120.302C174.202 119.458 173.619 118.542 173.109 117.556C172.204 119.069 170.612 121.004 168.367 123.346C165.731 126.22 162.27 128.84 157.997 131.214L157.987 131.219C153.69 133.487 148.688 135.092 142.989 136.042L142.99 136.042C137.354 137.002 131.144 136.338 124.371 134.082L123.812 133.897C121.028 132.95 118.402 131.635 115.935 129.953L115.928 129.949L115.922 129.944C113.287 128.028 111.011 125.751 109.095 123.117L109.091 123.111L109.086 123.105C107.282 120.46 105.964 117.458 105.126 114.106L105.123 114.096L105.121 114.086C104.398 110.591 104.462 106.752 105.297 102.575C106.134 98.3909 107.633 94.842 109.807 91.9438C111.965 89.0656 114.547 86.7232 117.55 84.9214C120.541 83.1269 123.885 81.7548 127.58 80.8013C131.26 79.8516 135.058 79.1982 138.973 78.8423L138.985 78.8413H138.999C142.095 78.7223 145.19 78.9004 148.285 79.3765L148.299 79.3784V79.3794C150.939 79.8594 153.69 80.7573 156.549 82.0679H156.548C159.029 83.1041 161.198 84.6269 163.057 86.6294C162.931 81.0386 162.708 76.5643 162.383 73.2026L162.381 73.1851C162.146 69.4323 161.912 66.5643 161.679 64.5757C161.218 62.274 160.819 60.6827 160.486 59.7739C159.905 58.9582 159.267 58.031 158.575 56.9927L158.564 56.9761L158.555 56.9585C157.994 55.95 157.265 55.0523 156.364 54.2642L156.352 54.2524L156.34 54.2407C155.45 53.3507 154.328 52.619 152.966 52.0513C151.637 51.4976 150.067 51.2672 148.24 51.3813H148.238C146.305 51.4951 144.824 52.004 143.749 52.8638C142.621 53.7659 141.722 54.8343 141.048 56.0708C140.494 57.1839 140.158 58.4129 140.046 59.7622C139.932 61.1287 139.991 62.3048 140.208 63.2983C140.43 63.957 140.763 64.6802 141.213 65.4692C141.66 66.1364 142.28 66.8715 143.083 67.6743C143.85 68.441 144.909 69.1164 146.28 69.688L148 70.4038L146.152 70.645C143.44 70.9988 141.021 71.2937 138.896 71.5298L138.883 71.5317H138.869C136.759 71.649 134.949 71.8246 133.438 72.0571L133.428 72.0591C131.656 72.2953 130.117 72.4727 128.812 72.5913C127.538 72.707 126.025 72.9393 124.269 73.2905L124.257 73.2935L124.246 73.2944C122.715 73.53 120.83 73.8248 118.592 74.1782C116.361 74.5304 113.776 75.0002 110.835 75.5884L109.414 75.8726L110.356 74.7729C111.061 73.9515 111.706 73.1885 112.292 72.4849C112.874 71.6701 113.401 70.9666 113.873 70.3765C114.346 69.6688 114.819 69.0169 115.295 68.4224L115.302 68.4146C115.781 67.8391 116.13 66.6859 116.247 64.8149L116.248 64.8013L116.25 64.7876C116.49 62.7517 116.967 60.4861 117.68 57.9927L117.683 57.9819L117.687 57.9712C118.53 55.4413 119.91 52.8063 121.815 50.0669C123.759 47.2728 126.892 44.6948 131.169 42.3179L131.95 41.8823C135.848 39.7588 139.658 38.464 143.377 38.0132ZM153.152 91.8257C150.132 90.639 146.745 90.1047 142.985 90.2339L142.228 90.2681C140.172 90.3822 138.11 90.8965 136.039 91.8169L136.028 91.8218L136.018 91.8257C133.963 92.6248 132.135 93.8233 130.533 95.4253L130.527 95.4321L130.521 95.438C128.912 96.9314 127.53 98.7158 126.375 100.794C125.359 102.717 124.847 104.871 124.847 107.268C124.847 109.651 125.411 111.73 126.525 113.523C127.778 115.227 129.372 116.652 131.315 117.795C133.376 118.939 135.546 119.623 137.83 119.851H137.829C140.234 120.08 142.579 119.851 144.868 119.167C147.035 118.366 149.097 117.108 151.054 115.382C153.029 113.523 154.711 111.55 156.101 109.465C157.49 107.263 158.467 105.131 159.04 103.069C159.615 100.879 159.652 99.164 159.225 97.8813L159.221 97.8706C158.329 94.9731 156.334 92.9616 153.167 91.8306L153.159 91.8286L153.152 91.8257Z" fill="black" stroke="black"/>
<path d="M36.8613 52.1377C36.1569 53.8988 35.5712 55.4207 35.1045 56.7041C34.6406 57.9799 34.2988 59.0645 34.0742 59.9629L34.0654 60.001L34.0527 60.0371C33.7159 61.0476 33.5742 61.8163 33.5742 62.3721V62.4434L33.5645 62.5137C33.4554 63.2769 33.3975 64.2283 33.3975 65.377V65.4062L33.3955 65.4355C33.2993 67.0704 33.2829 69.5747 33.3486 72.9629C38.7861 68.3077 43.402 64.6209 47.1943 61.9121L47.2051 61.9043C51.4493 58.9569 54.8136 56.6549 57.2959 55L57.3115 54.9902C60.2713 53.096 62.6476 51.8075 64.4082 51.1787L64.4941 51.1475L64.584 51.1328C69.0715 50.4051 73.0798 51.3878 76.5352 54.0859L76.8682 54.3525L76.874 54.3564C78.3788 55.6104 79.7918 57.2776 81.123 59.3311L81.3779 59.7139C82.6423 61.6649 83.7159 64.1753 84.6162 67.2139C85.581 70.4699 86.2968 74.3623 86.7725 78.8799L86.8574 79.7207C87.2572 83.9774 87.2865 88.9987 86.9531 94.7764L86.9043 95.6328L86.0498 95.7139C83.5811 95.949 81.3498 96.1843 79.3555 96.4189L79.3545 96.418C77.4768 96.6526 75.8843 96.8302 74.5791 96.9492C73.0454 97.1835 71.6141 97.3048 70.2871 97.3086L65.5732 97.832C63.9058 98.0698 61.8333 98.3064 59.3594 98.542L59.3369 98.5449L59.3145 98.5459C56.9814 98.6626 54.1128 98.8966 50.7061 99.249L47.3574 99.5947L49.9746 97.4766C54.8975 93.4913 57.933 90.1302 59.2471 87.3926L59.25 87.3848L59.2539 87.3779C60.7527 84.3803 61.3015 82.0586 61.0996 80.3418L61.0986 80.3291C60.8952 78.3973 59.996 76.6979 58.3232 75.209C56.3035 74.0629 54.1406 73.6494 51.7988 73.9688L51.7842 73.9707L51.7686 73.9717C49.7307 74.1862 47.2817 75.1116 44.4014 76.8398C41.6889 78.4673 38.7257 81.5425 35.5283 86.1777C35.7605 93.5694 35.9927 99.6995 36.2246 104.569C36.5764 109.495 36.8697 113.484 37.1045 116.537L37.5898 121.259C37.7346 122.619 37.8645 123.793 37.9805 124.781C38.2713 126.217 38.8163 127.76 39.6299 129.412L39.998 130.133L40.0039 130.143L40.0088 130.153C40.7973 131.73 41.937 133.503 43.4434 135.473C44.9165 137.399 46.8599 139.347 49.2881 141.312L51.6533 143.227L48.6143 143.089C43.4491 142.854 39.2492 142.855 36.0039 143.087L35.9912 143.088C34.0057 143.205 32.2546 143.321 30.7373 143.438C29.0956 143.672 27.3391 143.906 25.4678 144.14C23.811 144.376 21.8655 144.612 19.6328 144.848C17.5068 145.202 15.1484 145.556 12.5586 145.909L10.2363 146.226L11.6152 144.33C12.4887 143.129 13.2115 141.692 13.7734 140.006L13.7764 139.996L13.7803 139.986C14.3578 138.369 14.8173 136.815 15.1611 135.325L15.165 135.309L15.1699 135.292C15.6272 133.577 15.97 131.803 16.2002 129.969C16.314 128.356 16.373 125.92 16.373 122.646V122.629L16.374 122.61C16.4905 119.348 16.4326 115.668 16.1982 111.567L16.1963 111.538C16.0787 107.305 15.9022 102.953 15.667 98.4834V98.4814C15.4319 93.8965 15.1384 89.6078 14.7861 85.6152C14.434 81.6248 14.0242 78.1731 13.5576 75.2568L13.5537 75.2354L13.5518 75.2129C13.1981 72.1476 12.7953 70.1475 12.3789 69.1064V69.1055C11.8091 67.7399 11.1235 66.3705 10.3223 64.9971L10.3086 64.9717C9.62857 63.725 8.77241 62.4101 7.73535 61.0273L7.72363 61.0127L7.71289 60.9971C6.66519 59.4837 5.49907 57.9092 4.21387 56.2734L2.85254 54.541L5.05273 54.6562C7.26564 54.7727 9.24073 54.8304 10.9795 54.8311C12.845 54.7142 14.4151 54.5984 15.6914 54.4824L15.7051 54.4814L17.8613 54.3057C18.5296 54.2475 19.1539 54.1888 19.7344 54.1309C21.4773 53.8981 23.28 53.608 25.1426 53.2588L25.1641 53.2539L25.1855 53.251C26.8098 53.0189 28.494 52.7284 30.2383 52.3799C32.09 51.9162 33.8827 51.3962 35.6162 50.8184L37.6621 50.1357L36.8613 52.1377Z" fill="black" stroke="black" stroke-width="2"/>
<mask id="mask0_79_182" style="mask-type:alpha" maskUnits="userSpaceOnUse" x="731" y="30" width="50" height="102">
<path d="M738.011 60.3066L770.534 60.6602L771.815 60.6738L771.49 61.9141C769.609 69.0878 768.201 75.1903 767.265 80.2256C766.445 85.2656 765.921 89.4674 765.688 92.8379L765.687 92.8643L765.684 92.8896C765.219 96.7205 765.106 99.9353 765.33 102.548C765.676 104.96 766.252 107.555 767.062 110.335L767.338 111.214C768.018 113.305 768.968 115.678 770.194 118.334C771.573 121.321 773.418 124.321 775.735 127.334L777.729 129.928L774.626 128.893C773.275 128.442 771.802 128.102 770.205 127.874C768.575 127.641 767.065 127.466 765.676 127.35C764.075 127.235 762.474 127.236 760.873 127.351C759.247 127.467 757.442 127.641 755.458 127.874C753.812 128.109 751.814 128.403 749.461 128.756C747.131 129.105 744.681 129.572 742.11 130.156L740.378 130.55L740.94 128.865C742.702 123.58 744.048 119.012 744.982 115.159L744.985 115.145L744.989 115.131C746.043 111.269 746.799 108.066 747.264 105.517C747.731 102.48 748.02 100.046 748.136 98.207V81.457C748.136 78.642 748.077 76.1865 747.961 74.0889L747.96 74.0859C747.902 72.9858 747.816 72.1135 747.707 71.458C747.611 70.8821 747.506 70.5502 747.432 70.3848L745.812 68.7646C745.124 68.1938 744.091 67.3898 742.703 66.3486L742.665 66.3203L742.63 66.2891C741.369 65.1431 739.632 63.751 737.407 62.1113L734.911 60.2725L738.011 60.3066ZM750.086 33.2002C752.748 31.8056 755.465 31.4036 758.194 32.0508C760.948 32.6766 763.16 33.8863 764.742 35.7324C766.371 37.6323 766.907 39.8985 766.376 42.4229C765.933 45.0865 763.731 47.4573 760.269 49.6064L760.258 49.6133L760.247 49.6191C756.716 51.6891 753.443 52.5203 750.505 51.8525C747.705 51.2162 745.606 49.8425 744.376 47.6562C743.16 45.4945 742.989 43.0296 743.755 40.3506C744.558 37.4221 746.738 35.06 750.064 33.2119L750.086 33.2002Z" fill="black" stroke="black" stroke-width="2"/>
</mask>
<g mask="url(#mask0_79_182)">
<rect x="720" y="63.749" width="65" height="76" fill="black" stroke="black" stroke-width="2"/>
</g>
<mask id="mask1_79_182" style="mask-type:alpha" maskUnits="userSpaceOnUse" x="751" y="22" width="50" height="102">
<mask id="path-11-outside-1_79_182" maskUnits="userSpaceOnUse" x="751" y="22.749" width="50" height="102" fill="black">
<rect fill="white" x="751" y="22.749" width="50" height="102"/>
<path d="M790.523 53.6602C788.638 60.8482 787.224 66.976 786.281 72.043C785.456 77.1099 784.926 81.3523 784.69 84.7695C784.219 88.6581 784.101 91.9577 784.337 94.668C784.69 97.1425 785.28 99.794 786.104 102.622C786.812 104.979 787.872 107.689 789.286 110.753C790.7 113.817 792.586 116.881 794.942 119.944C793.528 119.473 791.996 119.119 790.347 118.884C788.697 118.648 787.165 118.471 785.751 118.354C784.101 118.236 782.451 118.236 780.802 118.354C779.152 118.471 777.326 118.648 775.322 118.884C773.673 119.119 771.669 119.414 769.312 119.768C766.956 120.121 764.481 120.592 761.889 121.182C763.656 115.879 765.011 111.283 765.954 107.395C767.015 103.506 767.781 100.265 768.252 97.6729C768.723 94.6091 769.018 92.1344 769.136 90.249V73.457C769.136 70.629 769.077 68.1543 768.959 66.0332C768.841 63.7944 768.605 62.3803 768.252 61.791L766.484 60.0234C765.777 59.4343 764.717 58.6093 763.303 57.5488C762.007 56.3705 760.239 54.9564 758 53.3066L790.523 53.6602ZM770.55 26.0859C773.024 24.7897 775.499 24.4362 777.974 25.0254C780.566 25.6146 782.569 26.7341 783.983 28.3838C785.397 30.0335 785.869 31.9779 785.397 34.2168C785.044 36.4557 783.158 38.6358 779.741 40.7568C776.324 42.76 773.319 43.4671 770.727 42.8779C768.134 42.2888 766.308 41.0514 765.247 39.166C764.187 37.2806 764.01 35.1005 764.717 32.626C765.424 30.0335 767.368 27.8535 770.55 26.0859Z"/>
</mask>
<path d="M790.523 53.6602C788.638 60.8482 787.224 66.976 786.281 72.043C785.456 77.1099 784.926 81.3523 784.69 84.7695C784.219 88.6581 784.101 91.9577 784.337 94.668C784.69 97.1425 785.28 99.794 786.104 102.622C786.812 104.979 787.872 107.689 789.286 110.753C790.7 113.817 792.586 116.881 794.942 119.944C793.528 119.473 791.996 119.119 790.347 118.884C788.697 118.648 787.165 118.471 785.751 118.354C784.101 118.236 782.451 118.236 780.802 118.354C779.152 118.471 777.326 118.648 775.322 118.884C773.673 119.119 771.669 119.414 769.312 119.768C766.956 120.121 764.481 120.592 761.889 121.182C763.656 115.879 765.011 111.283 765.954 107.395C767.015 103.506 767.781 100.265 768.252 97.6729C768.723 94.6091 769.018 92.1344 769.136 90.249V73.457C769.136 70.629 769.077 68.1543 768.959 66.0332C768.841 63.7944 768.605 62.3803 768.252 61.791L766.484 60.0234C765.777 59.4343 764.717 58.6093 763.303 57.5488C762.007 56.3705 760.239 54.9564 758 53.3066L790.523 53.6602ZM770.55 26.0859C773.024 24.7897 775.499 24.4362 777.974 25.0254C780.566 25.6146 782.569 26.7341 783.983 28.3838C785.397 30.0335 785.869 31.9779 785.397 34.2168C785.044 36.4557 783.158 38.6358 779.741 40.7568C776.324 42.76 773.319 43.4671 770.727 42.8779C768.134 42.2888 766.308 41.0514 765.247 39.166C764.187 37.2806 764.01 35.1005 764.717 32.626C765.424 30.0335 767.368 27.8535 770.55 26.0859Z" fill="black"/>
<path d="M790.523 53.6602L792.458 54.1676L793.108 51.6881L790.545 51.6603L790.523 53.6602ZM786.281 72.043L784.315 71.6772L784.311 71.6993L784.307 71.7216L786.281 72.043ZM784.69 84.7695L786.676 85.0102L786.682 84.9588L786.686 84.9071L784.69 84.7695ZM784.337 94.668L782.344 94.8412L782.349 94.8962L782.357 94.9508L784.337 94.668ZM786.104 102.622L784.184 103.182L784.187 103.189L784.189 103.197L786.104 102.622ZM789.286 110.753L787.47 111.591L787.47 111.591L789.286 110.753ZM794.942 119.944L794.31 121.842L800.517 123.911L796.528 118.725L794.942 119.944ZM790.347 118.884L790.63 116.904L790.63 116.904L790.347 118.884ZM785.751 118.354L785.917 116.36L785.905 116.359L785.893 116.359L785.751 118.354ZM780.802 118.354L780.659 116.359L780.659 116.359L780.802 118.354ZM775.322 118.884L775.089 116.897L775.064 116.9L775.039 116.904L775.322 118.884ZM769.312 119.768L769.016 117.79L769.016 117.79L769.312 119.768ZM761.889 121.182L759.991 120.549L758.868 123.919L762.332 123.132L761.889 121.182ZM765.954 107.395L764.025 106.868L764.017 106.896L764.01 106.923L765.954 107.395ZM768.252 97.6729L770.22 98.0306L770.225 98.0039L770.229 97.977L768.252 97.6729ZM769.136 90.249L771.132 90.3738L771.136 90.3115V90.249H769.136ZM768.959 66.0332L766.962 66.1383L766.962 66.1441L768.959 66.0332ZM768.252 61.791L769.967 60.7622L769.84 60.551L769.666 60.3768L768.252 61.791ZM766.484 60.0234L767.899 58.6092L767.834 58.5451L767.765 58.487L766.484 60.0234ZM763.303 57.5488L761.957 59.0287L762.027 59.0922L762.103 59.1488L763.303 57.5488ZM758 53.3066L758.022 51.3068L751.823 51.2394L756.814 54.9168L758 53.3066ZM770.55 26.0859L769.622 24.3143L769.6 24.3257L769.579 24.3376L770.55 26.0859ZM777.974 25.0254L777.51 26.971L777.52 26.9734L777.53 26.9757L777.974 25.0254ZM783.983 28.3838L785.502 27.0822L785.502 27.0822L783.983 28.3838ZM785.397 34.2168L783.44 33.8048L783.43 33.8546L783.422 33.9048L785.397 34.2168ZM779.741 40.7568L780.753 42.4822L780.774 42.4694L780.796 42.4561L779.741 40.7568ZM770.727 42.8779L770.283 44.8282L770.283 44.8282L770.727 42.8779ZM765.247 39.166L763.504 40.1465L763.504 40.1466L765.247 39.166ZM764.717 32.626L766.64 33.1754L766.643 33.1638L766.646 33.1522L764.717 32.626ZM790.523 53.6602L788.589 53.1527C786.696 60.3691 785.269 66.5469 784.315 71.6772L786.281 72.043L788.248 72.4088C789.178 67.405 790.58 61.3273 792.458 54.1676L790.523 53.6602ZM786.281 72.043L784.307 71.7216C783.477 76.8227 782.937 81.131 782.695 84.6319L784.69 84.7695L786.686 84.9071C786.916 81.5736 787.436 77.3972 788.255 72.3643L786.281 72.043ZM784.69 84.7695L782.705 84.5289C782.224 88.5004 782.093 91.9476 782.344 94.8412L784.337 94.668L786.329 94.4947C786.11 91.9679 786.215 88.8158 786.676 85.0102L784.69 84.7695ZM784.337 94.668L782.357 94.9508C782.726 97.5338 783.338 100.279 784.184 103.182L786.104 102.622L788.024 102.062C787.222 99.3093 786.655 96.7512 786.317 94.3851L784.337 94.668ZM786.104 102.622L784.189 103.197C784.931 105.67 786.03 108.471 787.47 111.591L789.286 110.753L791.102 109.915C789.714 106.908 788.692 104.288 788.02 102.047L786.104 102.622ZM789.286 110.753L787.47 111.591C788.955 114.808 790.922 117.999 793.357 121.164L794.942 119.944L796.528 118.725C794.249 115.763 792.445 112.825 791.102 109.915L789.286 110.753ZM794.942 119.944L795.575 118.047C794.035 117.534 792.384 117.155 790.63 116.904L790.347 118.884L790.064 120.864C791.608 121.084 793.022 121.412 794.31 121.842L794.942 119.944ZM790.347 118.884L790.63 116.904C788.947 116.664 787.376 116.482 785.917 116.36L785.751 118.354L785.585 120.347C786.954 120.461 788.446 120.633 790.064 120.864L790.347 118.884ZM785.751 118.354L785.893 116.359C784.149 116.234 782.404 116.234 780.659 116.359L780.802 118.354L780.944 120.348C782.499 120.237 784.054 120.237 785.608 120.348L785.751 118.354ZM780.802 118.354L780.659 116.359C778.973 116.479 777.116 116.659 775.089 116.897L775.322 118.884L775.556 120.87C777.535 120.637 779.331 120.464 780.944 120.348L780.802 118.354ZM775.322 118.884L775.039 116.904C773.384 117.14 771.375 117.436 769.016 117.79L769.312 119.768L769.609 121.745C771.963 121.392 773.961 121.098 775.605 120.864L775.322 118.884ZM769.312 119.768L769.016 117.79C766.605 118.151 764.081 118.632 761.445 119.231L761.889 121.182L762.332 123.132C764.881 122.552 767.307 122.091 769.609 121.745L769.312 119.768ZM761.889 121.182L763.786 121.814C765.565 116.477 766.938 111.825 767.898 107.866L765.954 107.395L764.01 106.923C763.085 110.741 761.748 115.281 759.991 120.549L761.889 121.182ZM765.954 107.395L767.884 107.921C768.952 104.002 769.734 100.701 770.22 98.0306L768.252 97.6729L766.284 97.3151C765.827 99.8295 765.077 103.01 764.025 106.868L765.954 107.395ZM768.252 97.6729L770.229 97.977C770.704 94.8862 771.009 92.3449 771.132 90.3738L769.136 90.249L767.14 90.1243C767.027 91.924 766.742 94.3321 766.275 97.3687L768.252 97.6729ZM769.136 90.249H771.136V73.457H769.136H767.136V90.249H769.136ZM769.136 73.457H771.136C771.136 70.6033 771.076 68.09 770.956 65.9223L768.959 66.0332L766.962 66.1441C767.077 68.2185 767.136 70.6547 767.136 73.457H769.136ZM768.959 66.0332L770.956 65.9281C770.895 64.7704 770.802 63.7749 770.667 62.9647C770.543 62.2201 770.35 61.3998 769.967 60.7622L768.252 61.791L766.537 62.8198C766.508 62.7715 766.609 62.9529 766.721 63.6224C766.822 64.2263 766.905 65.0572 766.962 66.1383L768.959 66.0332ZM768.252 61.791L769.666 60.3768L767.899 58.6092L766.484 60.0234L765.07 61.4377L766.838 63.2052L768.252 61.791ZM766.484 60.0234L767.765 58.487C767.018 57.8643 765.924 57.0149 764.503 55.9488L763.303 57.5488L762.103 59.1488C763.509 60.2038 764.537 61.0042 765.204 61.5599L766.484 60.0234ZM763.303 57.5488L764.648 56.0689C763.281 54.8259 761.453 53.3663 759.186 51.6965L758 53.3066L756.814 54.9168C759.025 56.5464 760.732 57.915 761.957 59.0287L763.303 57.5488ZM758 53.3066L757.978 55.3065L790.502 55.66L790.523 53.6602L790.545 51.6603L758.022 51.3068L758 53.3066ZM770.55 26.0859L771.478 27.8576C773.57 26.7617 775.553 26.5049 777.51 26.971L777.974 25.0254L778.437 23.0798C775.445 22.3675 772.479 22.8178 769.622 24.3143L770.55 26.0859ZM777.974 25.0254L777.53 26.9757C779.8 27.4914 781.388 28.429 782.465 29.6854L783.983 28.3838L785.502 27.0822C783.751 25.0391 781.333 23.7378 778.417 23.0751L777.974 25.0254ZM783.983 28.3838L782.465 29.6853C783.45 30.8347 783.792 32.1367 783.44 33.8048L785.397 34.2168L787.355 34.6288C787.946 31.8191 787.345 29.2323 785.502 27.0822L783.983 28.3838ZM785.397 34.2168L783.422 33.9048C783.209 35.2532 781.969 37.0199 778.686 39.0576L779.741 40.7568L780.796 42.4561C784.347 40.2517 786.879 37.6581 787.373 34.5288L785.397 34.2168ZM779.741 40.7568L778.73 39.0314C775.54 40.9012 773.071 41.3596 771.17 40.9277L770.727 42.8779L770.283 44.8282C773.567 45.5746 777.108 44.6189 780.753 42.4822L779.741 40.7568ZM770.727 42.8779L771.17 40.9277C768.992 40.4327 767.712 39.4688 766.99 38.1855L765.247 39.166L763.504 40.1466C764.903 42.6339 767.276 44.1448 770.283 44.8282L770.727 42.8779ZM765.247 39.166L766.99 38.1855C766.241 36.8527 766.05 35.2412 766.64 33.1754L764.717 32.626L762.794 32.0766C761.97 34.9599 762.133 37.7086 763.504 40.1465L765.247 39.166ZM764.717 32.626L766.646 33.1522C767.167 31.243 768.638 29.4358 771.521 27.8342L770.55 26.0859L769.579 24.3376C766.098 26.2712 763.681 28.8241 762.787 32.0997L764.717 32.626Z" fill="black" mask="url(#path-11-outside-1_79_182)"/>
</mask>
<g mask="url(#mask1_79_182)">
<rect x="762" y="25.749" width="28" height="20" fill="black" stroke="black" stroke-width="2"/>
</g>
<path d="M666.695 71.7061C666.813 78.6353 667.047 85.3867 667.399 91.96C667.752 98.5481 668.105 104.547 668.458 109.955C668.926 115.224 669.336 119.734 669.688 123.485C670.153 127.09 670.492 129.328 670.704 130.303C671.164 132.028 671.624 133.696 672.084 135.306C672.427 136.332 672.801 137.392 673.209 138.486L673.632 139.604L673.649 139.649C674.185 141.15 674.784 142.199 675.392 142.894L678.294 146.211H656.741C655.265 146.211 653.852 146.267 652.502 146.379L652.503 146.38C651.201 146.498 649.841 146.616 648.423 146.734C647.072 146.847 645.852 147.014 644.761 147.232L640.025 148.18L642.704 144.162C643.839 142.46 644.726 140.901 645.38 139.484C646.068 137.994 646.641 136.732 647.102 135.697C647.531 134.511 647.846 133.457 648.056 132.529C648.136 131.974 648.201 130.124 648.201 126.712C648.201 123.336 648.085 119.068 647.85 113.899L647.849 113.877V113.854C647.731 108.681 647.554 102.856 647.318 96.3818V96.3643L647.317 96.3457C647.2 89.8885 646.966 83.3127 646.613 76.6182L646.611 76.583C646.574 75.5199 646.531 74.4614 646.491 73.4072L666.646 68.417C666.661 69.5104 666.677 70.6067 666.695 71.7061ZM670.201 5.08887C669.618 8.46987 669.152 11.7295 668.804 14.8682C668.453 18.0285 668.16 20.9515 667.926 23.6377L667.927 23.6387C667.695 26.6558 667.579 29.5505 667.579 32.3232V32.4248L667.568 32.5264C666.986 38.2355 666.636 44.4828 666.519 51.2705C666.519 51.8442 666.521 52.4187 666.521 52.9941L645.789 58.1279C645.769 57.7527 645.75 57.3779 645.729 57.0039L645.728 56.9668C645.492 50.6083 645.257 44.8993 645.021 39.8398V39.8379C644.786 34.6618 644.551 30.4386 644.317 27.1631C644.2 25.519 644.098 24.2394 644.012 23.3184C643.969 22.8574 643.931 22.4972 643.897 22.2314C643.876 22.0582 643.858 21.9526 643.849 21.8975C643.7 21.4982 643.438 21.0389 643.009 20.5234C642.11 19.4454 640.421 18.2425 637.702 16.9961L632.557 14.6377L638.041 13.2393C644.043 11.7093 648.61 10.4795 651.754 9.54785L651.795 9.53613L651.837 9.52539C653.677 9.06539 655.268 8.60902 656.617 8.16016C657.255 7.92807 657.894 7.69693 658.532 7.46484C659.161 7.23638 659.789 7.00776 660.417 6.7793C661.431 6.32816 662.555 5.82266 663.787 5.2627C664.978 4.61013 666.049 3.91206 667.003 3.16992L671.079 0L670.201 5.08887Z" fill="black"/>
<path d="M715.527 56.3135C715.55 61.3781 715.605 66.5089 715.693 71.7061C715.811 78.6353 716.045 85.3867 716.397 91.96C716.75 98.5481 717.103 104.547 717.456 109.955C717.924 115.224 718.334 119.734 718.686 123.485C719.151 127.09 719.49 129.328 719.702 130.303C720.162 132.028 720.622 133.696 721.082 135.306C721.425 136.332 721.799 137.392 722.207 138.486L722.63 139.604L722.647 139.649C723.183 141.15 723.782 142.199 724.39 142.894L727.292 146.211H705.739C704.263 146.211 702.851 146.267 701.5 146.379L701.501 146.38C700.199 146.498 698.839 146.616 697.421 146.734C696.07 146.847 694.85 147.014 693.759 147.232L689.023 148.18L691.702 144.162C692.837 142.46 693.724 140.901 694.378 139.484C695.066 137.994 695.639 136.732 696.1 135.697C696.529 134.511 696.844 133.457 697.054 132.529C697.134 131.974 697.199 130.124 697.199 126.712C697.199 123.336 697.083 119.068 696.848 113.899L696.847 113.877V113.854C696.729 108.681 696.552 102.856 696.316 96.3818V96.3643L696.315 96.3457C696.198 89.8885 695.964 83.3127 695.611 76.6182L695.609 76.583C695.428 71.4188 695.211 66.3599 694.96 61.4062L715.527 56.3135ZM719.199 5.08887C718.616 8.46987 718.15 11.7295 717.802 14.8682C717.451 18.0285 717.158 20.9515 716.924 23.6377L716.925 23.6387C716.693 26.6558 716.577 29.5505 716.577 32.3232V32.4248L716.566 32.5264C716.298 35.158 716.081 37.9041 715.911 40.7646L694.296 46.1172C694.203 43.9241 694.112 41.8316 694.02 39.8398V39.8379C693.784 34.6618 693.549 30.4386 693.315 27.1631C693.198 25.519 693.096 24.2394 693.01 23.3184C692.967 22.8574 692.929 22.4972 692.896 22.2314C692.874 22.0582 692.856 21.9526 692.847 21.8975C692.698 21.4982 692.436 21.0389 692.007 20.5234C691.108 19.4454 689.42 18.2425 686.7 16.9961L681.555 14.6377L687.039 13.2393C693.041 11.7093 697.608 10.4795 700.752 9.54785L700.793 9.53613L700.835 9.52539C702.675 9.06539 704.266 8.60902 705.615 8.16016C706.253 7.92807 706.892 7.69693 707.53 7.46484C708.159 7.23638 708.787 7.00776 709.415 6.7793C710.429 6.32816 711.553 5.82266 712.785 5.2627C713.976 4.61013 715.047 3.91206 716.001 3.16992L720.077 0L719.199 5.08887Z" fill="black"/>
</svg>
