<svg width="993" height="225" viewBox="0 0 993 225" fill="none" xmlns="http://www.w3.org/2000/svg">
<path d="M954.922 100.254L954.946 100.255C959.734 100.494 964.178 101.273 968.275 102.598H968.276C972.446 103.908 976.048 105.465 979.071 107.275C982.189 108.956 984.745 110.775 986.713 112.743C988.616 114.646 989.886 116.438 990.319 118.105H990.32C991.771 122.821 992.149 127.228 991.408 131.305L991.407 131.311C990.692 135.123 989.74 138.875 988.549 142.568C987.499 146.071 986.564 149.572 985.747 153.073C985.084 156.397 985.35 160.034 986.591 164.006C986.818 164.518 987.046 165.029 987.273 165.541C987.506 166.063 987.738 166.586 987.97 167.108C988.41 167.986 988.963 168.872 989.634 169.767C990.271 170.617 991.007 171.296 991.839 171.816L991.218 173.66C989.952 173.545 988.686 173.487 987.42 173.487H987.375L987.329 173.483C986.031 173.365 984.849 173.247 983.783 173.129C982.486 173.011 981.305 172.893 980.239 172.774H980.238C979.109 172.662 977.56 172.604 975.577 172.604C972.186 172.604 966.903 172.779 959.718 173.133L958.119 173.211L958.75 171.74C959.806 169.276 960.623 167.234 961.202 165.611L961.208 165.594L961.215 165.576C961.918 163.819 962.507 162.401 962.983 161.327C963.447 160.051 963.794 159.072 964.023 158.384L964.034 158.351L964.048 158.317C965.412 155.022 966.217 151.247 966.447 146.98L966.449 146.953C966.794 142.7 966.509 138.383 965.588 134.002C965.249 132.533 964.678 130.754 963.863 128.66C963.07 126.621 961.99 124.63 960.619 122.688L960.608 122.672L960.597 122.654C959.364 120.749 957.854 119.127 956.064 117.785L956.052 117.776L956.039 117.767C954.429 116.479 952.552 115.723 950.378 115.506C948.264 115.295 945.805 115.814 942.971 117.173L942.468 117.437C939.941 118.818 937.15 121.213 934.104 124.691C931.724 127.757 929.837 131.525 928.455 136.016L928.451 136.027L928.447 136.038C927.185 139.825 926.312 144.629 925.845 150.473V150.474C925.385 156.11 926.071 162.774 927.94 170.484L928.288 171.918L926.827 171.71C925.216 171.48 923.732 171.366 922.373 171.366H922.331L922.29 171.362C920.88 171.245 919.695 171.126 918.738 171.007C917.577 170.891 916.528 170.775 915.59 170.658C914.524 170.656 913.353 170.597 912.078 170.482H907.669L907.636 170.48C905.875 170.363 903.819 170.246 901.466 170.128L900.294 170.069L900.537 168.922C901.358 165.053 901.941 161.666 902.29 158.758L902.292 158.741L902.295 158.725C902.765 155.667 903.117 153.146 903.351 151.159C903.582 148.839 903.695 146.883 903.696 145.285C903.579 143.284 903.462 140.935 903.345 138.239L903.344 138.218V138.196C903.344 135.396 903.227 132.656 902.994 129.976L902.992 129.953L902.991 129.931C902.874 127.119 902.698 124.667 902.466 122.575V122.569C902.235 120.374 901.953 118.907 901.653 118.085C901.221 117.231 900.622 116.305 899.846 115.306C898.294 113.427 895.986 111.558 892.875 109.715L890.687 108.418L893.172 107.877C895.868 107.291 898.162 106.821 900.052 106.466C902.038 105.998 903.668 105.591 904.945 105.243C906.33 104.782 907.544 104.377 908.588 104.029C909.567 103.662 910.718 103.3 912.035 102.94L912.058 102.935L912.081 102.929C913.138 102.694 914.432 102.4 915.962 102.047C917.492 101.694 919.258 101.282 921.26 100.811L922.532 100.512L922.488 101.817L922.049 115.118C925.282 111.605 928.581 108.867 931.949 106.928C935.884 104.662 939.607 103.035 943.117 102.064C947.093 100.86 951.02 100.254 954.896 100.254H954.922Z" fill="black" stroke="black" stroke-width="2"/>
<path d="M838.024 108.387C841.208 108.387 844.493 108.998 847.874 110.202C851.233 111.282 854.472 112.72 857.588 114.516C860.695 116.189 863.512 118.045 866.035 120.086C868.652 121.991 870.817 123.852 872.516 125.673L872.519 125.676C875.621 129.026 877.69 133.513 878.776 139.066H878.775C879.975 144.479 880.214 150.066 879.494 155.821L879.493 155.824C878.771 161.48 877.086 166.838 874.438 171.893C871.759 177.009 868.021 180.819 863.227 183.277L863.218 183.282C859.872 184.955 856.576 186.274 853.333 187.235C850.115 188.189 847.008 188.906 844.015 189.385C841.024 189.863 838.202 190.104 835.55 190.104C832.944 190.104 830.683 190.045 828.771 189.926H828.766C825.043 189.678 821.185 188.377 817.198 186.082L817.187 186.076L817.697 185.216L817.187 186.075C813.344 183.794 809.688 180.977 806.22 177.628L806.214 177.621L806.208 177.615C802.853 174.261 799.975 170.604 797.575 166.645L797.568 166.633C795.166 162.549 793.694 158.655 793.199 154.957L793.198 154.958C792.479 150.043 792.361 144.897 792.839 139.523C793.325 134.055 795.089 129.006 798.125 124.392L798.13 124.384L798.135 124.377C801.32 119.722 806.068 115.907 812.314 112.904L812.321 112.901C818.752 109.868 827.343 108.387 838.024 108.387ZM837.781 119.901C835.111 119.234 832.948 119.373 831.213 120.186C830.44 120.575 829.366 121.464 827.977 122.969C826.621 124.437 825.247 126.322 823.857 128.638L823.852 128.647L823.845 128.657C822.473 130.83 821.205 133.357 820.048 136.247C819.012 139.126 818.264 142.123 817.803 145.238C817.344 148.332 817.226 151.667 817.455 155.247L817.524 155.916C817.896 159.242 818.62 162.411 819.695 165.425L819.914 165.996C821.029 168.817 822.536 171.278 824.431 173.389C826.361 175.312 828.769 176.489 831.699 176.901L832.294 176.974L832.332 176.978L832.37 176.985C833.395 177.172 834.947 176.953 837.121 176.155C839.224 175.267 841.301 173.871 843.347 171.939L843.357 171.93L843.367 171.921C845.507 170.006 847.383 167.569 848.986 164.592L848.992 164.58C850.676 161.549 851.707 157.865 852.052 153.497V153.495C852.401 149.183 852.4 145.237 852.053 141.653L852.052 141.637L852.051 141.621C851.819 138.024 851.298 134.921 850.501 132.303L850.497 132.292V132.291C849.687 129.514 848.774 127.303 847.772 125.633C846.766 123.955 845.758 122.872 844.78 122.278C842.883 121.278 840.569 120.483 837.82 119.91L837.801 119.906L837.781 119.901Z" fill="black" stroke="black" stroke-width="2"/>
<path d="M574.924 85.7686C578.919 85.2842 582.75 85.4639 586.407 86.3174C590.03 87.1627 593.417 88.4918 596.564 90.3057L597.762 90.9873C600.523 92.5971 603.061 94.3477 605.373 96.2393H605.372C607.306 97.7894 608.807 100.011 609.912 102.834C611.001 105.5 611.842 108.511 612.44 111.861C613.036 115.195 613.451 118.703 613.689 122.383C614.044 125.933 614.282 129.425 614.4 132.859L614.478 135.298C614.544 137.682 614.576 139.936 614.576 142.06C614.693 144.734 614.926 146.911 615.265 148.606L615.269 148.624C615.72 151.11 616.504 153.221 617.601 154.979C618.732 156.675 619.969 158.134 621.309 159.364C622.666 160.493 624.009 161.385 625.337 162.049C626.551 162.656 627.615 163.122 628.533 163.452L628.918 163.586L628.985 163.608L629.049 163.64C629.7 163.965 630.263 164.165 630.742 164.261L630.832 164.279L630.918 164.313C631.446 164.525 631.813 164.595 632.049 164.595C632.263 164.595 632.308 164.54 632.313 164.534L633.939 165.636C633.227 167.297 632.571 168.73 631.971 169.931C631.387 171.099 630.924 172.082 630.581 172.883L630.57 172.909L630.557 172.936C630.088 173.872 629.669 174.65 629.303 175.264C628.931 176.002 628.498 176.684 628.002 177.311C627.62 177.937 627.133 178.607 626.542 179.315C625.97 180.002 625.395 180.747 624.819 181.554L624.37 182.185L623.647 181.906C622.066 181.298 620.544 180.568 619.083 179.716L619.066 179.706L619.05 179.695C617.756 178.872 616.578 178.106 615.515 177.397C614.196 176.558 612.992 175.716 611.903 174.869C610.792 174.005 609.746 173.02 608.765 171.916L608.76 171.91C607.937 170.97 607.054 169.97 606.113 168.911L606.092 168.886L606.071 168.86C605.565 168.21 605.104 167.518 604.684 166.788C603.71 168.226 602.246 169.95 600.336 171.943L600.335 171.942C597.656 174.861 594.152 177.511 589.848 179.902L589.838 179.908L589.828 179.913C585.476 182.21 580.421 183.829 574.681 184.786L574.682 184.787C568.948 185.763 562.655 185.084 555.826 182.81L555.259 182.622C552.431 181.66 549.764 180.325 547.26 178.617L547.248 178.609L547.235 178.6C544.558 176.653 542.245 174.34 540.298 171.663L540.28 171.638C538.441 168.94 537.099 165.884 536.248 162.479L536.243 162.459L536.238 162.439C535.499 158.867 535.568 154.957 536.414 150.728C537.263 146.484 538.788 142.864 541.014 139.896C543.21 136.967 545.839 134.58 548.899 132.744C551.935 130.923 555.326 129.533 559.062 128.568C562.77 127.612 566.595 126.954 570.535 126.596L570.561 126.594L570.587 126.593C573.324 126.488 576.06 126.613 578.796 126.968L579.969 127.134L579.982 127.136L579.995 127.139C582.683 127.627 585.474 128.539 588.364 129.864H588.363C590.517 130.766 592.441 132.026 594.135 133.635C594.005 128.634 593.791 124.592 593.492 121.502L593.49 121.485L593.489 121.468C593.255 117.726 593.022 114.873 592.791 112.898C592.342 110.659 591.957 109.129 591.644 108.254C591.07 107.448 590.444 106.537 589.767 105.521L589.744 105.488L589.725 105.453C589.193 104.497 588.501 103.643 587.643 102.892L587.617 102.869L587.594 102.846C586.756 102.008 585.692 101.311 584.381 100.765C583.137 100.246 581.646 100.021 579.879 100.132L579.875 100.133C578.011 100.242 576.64 100.729 575.669 101.506C574.596 102.364 573.743 103.377 573.102 104.549C572.579 105.6 572.26 106.765 572.152 108.055C572.042 109.374 572.099 110.489 572.299 111.417C572.506 112.026 572.818 112.705 573.244 113.455C573.667 114.084 574.262 114.79 575.044 115.572C575.752 116.281 576.751 116.924 578.08 117.478L581.519 118.91L577.825 119.393C575.11 119.747 572.687 120.042 570.559 120.278L570.531 120.281L570.504 120.283C568.404 120.4 566.612 120.573 565.121 120.803L565.111 120.805L565.102 120.806C563.325 121.043 561.778 121.221 560.464 121.341C559.214 121.454 557.719 121.683 555.974 122.032L555.952 122.037L555.93 122.04C554.4 122.275 552.515 122.57 550.277 122.924C548.055 123.275 545.477 123.743 542.54 124.33L539.699 124.898L541.585 122.699C542.281 121.888 542.918 121.134 543.498 120.438C544.072 119.636 544.594 118.939 545.064 118.349C545.544 117.631 546.027 116.969 546.513 116.362L546.519 116.354L546.525 116.347C546.895 115.903 547.239 114.892 547.355 113.035L547.357 113.008L547.36 112.981C547.604 110.913 548.089 108.619 548.807 106.106L548.812 106.086L548.819 106.064C549.681 103.479 551.087 100.802 553.013 98.0332C555.016 95.1528 558.221 92.5277 562.539 90.1289C566.751 87.7233 570.881 86.2586 574.924 85.7686ZM584.577 140.542C581.433 139.307 577.868 138.791 573.864 139.02H573.862C571.873 139.13 569.87 139.627 567.85 140.525L567.828 140.535L567.806 140.544C565.817 141.317 564.048 142.476 562.494 144.03L562.481 144.044L562.468 144.057C560.901 145.511 559.55 147.253 558.419 149.289C557.448 151.131 556.954 153.201 556.954 155.52C556.954 157.816 557.496 159.798 558.553 161.501C559.756 163.132 561.285 164.5 563.156 165.604C565.161 166.718 567.27 167.383 569.487 167.604H569.486C571.822 167.826 574.096 167.605 576.316 166.943C578.414 166.166 580.419 164.944 582.331 163.259C584.271 161.431 585.919 159.495 587.281 157.454C588.651 155.284 589.608 153.195 590.166 151.187C590.728 149.046 590.741 147.442 590.357 146.291L590.354 146.28L590.351 146.269C589.51 143.537 587.641 141.637 584.606 140.554L584.577 140.542Z" fill="black" stroke="black" stroke-width="2"/>
<path d="M461.803 90.0361C469.1 88.0037 476.015 87.4561 482.534 88.4219L482.533 88.4229C489.003 89.2635 494.781 91.1245 499.853 94.0225C504.884 96.8975 508.516 100.066 510.64 103.563C512.634 106.847 514.112 109.39 515.068 111.181C516.096 112.78 516.864 114.074 517.357 115.049C517.882 115.783 518.308 116.369 518.637 116.81C518.988 117.078 519.417 117.423 519.919 117.845L520.511 118.348L520.54 118.372L520.567 118.399C521.134 118.966 521.821 119.597 522.632 120.292C523.344 120.886 524.172 121.596 525.114 122.42C526.044 123.233 527.094 124.108 528.263 125.043L531.261 127.441L527.473 126.81C526.107 126.582 524.379 126.409 522.279 126.292H522.276C520.291 126.175 518.367 126.116 516.502 126.116C514.399 126.116 512.177 126.175 509.835 126.292H509.833L506.121 126.469C504.886 126.528 503.651 126.586 502.416 126.645C500.308 126.762 497.903 126.939 495.201 127.174L495.18 127.175L495.159 127.176C492.583 127.293 490.066 127.469 487.608 127.703L487.066 125.812C487.886 125.403 488.606 124.839 489.229 124.112L489.254 124.083L489.281 124.056C490.062 123.275 490.724 122.501 491.272 121.737C491.822 120.855 492.32 119.918 492.765 118.923C493.255 117.414 493.227 115.525 492.562 113.195L492.559 113.184C491.894 110.748 490.676 108.527 488.887 106.515L488.877 106.502L488.866 106.49C487.213 104.506 485.052 102.948 482.356 101.824L482.31 101.803C479.825 100.614 477.051 100.328 473.942 100.993C470.499 101.798 467.416 103 464.686 104.593C462.128 106.153 459.942 108.331 458.135 111.151L458.136 111.152C456.449 113.851 455.189 117.263 454.381 121.419C453.694 125.439 453.518 130.298 453.867 136.01L453.963 137.328C454.483 143.83 455.613 148.978 457.318 152.814C459.159 156.957 461.37 159.987 463.914 161.979C466.494 163.997 469.276 165.216 472.269 165.662C475.47 166.003 478.609 166.005 481.689 165.667C483.744 165.228 485.646 164.307 487.401 162.883C488.803 161.696 490.143 159.929 491.4 157.529C492.585 155.268 493.169 152.045 493.054 147.769L493.027 146.783L494.013 146.742L515.577 145.858L517.057 145.798L516.561 147.193C514.059 154.223 511 159.88 507.362 164.124L507.358 164.129L507.354 164.135C503.78 168.184 500.301 171.37 496.913 173.669L496.906 173.673C492.936 176.32 488.941 178.142 484.921 179.116L484.888 179.124L484.854 179.13C479.975 179.963 475.605 180.325 471.751 180.204L471.72 180.202C467.884 179.962 464.387 179.362 461.236 178.393C458.114 177.432 455.222 176.228 452.566 174.779C449.944 173.349 447.439 171.798 445.053 170.128L444.74 169.905C443.172 168.746 441.493 166.963 439.7 164.609C437.766 162.071 435.966 159.065 434.293 155.601L434.287 155.588C432.607 151.988 431.231 148.039 430.157 143.742C429.072 139.401 428.651 134.942 428.892 130.367C429.134 125.65 430.222 120.944 432.146 116.253C434.089 111.519 437.173 106.995 441.37 102.679L441.373 102.675L441.969 102.075C448.142 95.9489 454.753 91.9162 461.803 90.0361Z" fill="black" stroke="black" stroke-width="2"/>
<path d="M414.342 88.0234C413.286 90.6033 412.348 92.9474 411.527 95.0566C410.825 97.1647 410.179 99.0425 409.591 100.689C409.009 102.552 408.483 104.188 408.015 105.595L407.265 108.242C407 109.184 406.72 110.184 406.426 111.244L406.421 111.26L406.416 111.274C405.826 113.162 405.06 115.517 404.12 118.337L404.121 118.338C403.295 121.051 402.292 124.294 401.113 128.066L399.173 127.933C398.247 122.376 396.582 118.066 394.233 114.935L394.229 114.929L394.224 114.922C391.799 111.573 389.342 109.01 386.863 107.203L386.304 106.824C383.506 104.972 380.514 103.62 377.323 102.764C371.011 101.716 366.693 101.889 364.164 103.048C361.465 104.285 359.804 105.797 358.996 107.514L358.979 107.55L358.959 107.584C358.511 108.367 357.999 109.389 357.422 110.657C356.973 111.781 356.578 112.964 356.238 114.205C356.025 115.398 355.974 116.589 356.082 117.779C356.178 118.831 356.594 119.65 357.335 120.299L357.36 120.321L357.384 120.345C357.569 120.53 357.989 120.826 358.741 121.231C359.465 121.621 360.429 122.076 361.639 122.596C364.106 123.536 367.041 124.651 370.445 125.942C373.981 127.121 377.692 128.417 381.578 129.83C385.596 131.248 389.381 132.667 392.93 134.087C396.492 135.512 399.593 136.942 402.229 138.38C404.679 139.717 406.49 141.02 407.503 142.314L407.695 142.573L407.716 142.602L407.733 142.632C408.473 143.864 409.256 145.495 410.086 147.508C411.069 149.484 411.738 151.689 412.104 154.114C412.588 156.435 412.708 158.866 412.471 161.402L412.44 161.873C412.257 164.224 411.578 166.558 410.422 168.87C409.165 171.385 407.173 173.669 404.499 175.739L404.5 175.74C401.895 177.849 398.409 179.546 394.091 180.866L394.092 180.867C389.014 182.439 384.088 182.87 379.326 182.138C374.674 181.422 370.367 180.346 366.41 178.907L366.4 178.904C362.614 177.484 359.291 176.12 356.437 174.812L356.422 174.805L356.406 174.797C355.021 174.104 353.872 173.631 352.948 173.359C352.003 173.081 351.393 173.045 351.04 173.115L351.031 173.117L351.022 173.118C349.902 173.322 348.554 173.899 346.966 174.92C345.339 175.965 343.771 177.069 342.262 178.23L342.252 178.237C340.855 179.285 339.64 180.269 338.604 181.189L338.58 181.212L338.555 181.231C338.021 181.647 337.571 181.969 337.233 182.156C337.096 182.233 336.842 182.366 336.56 182.397C336.414 182.414 336.076 182.424 335.761 182.179C335.413 181.908 335.35 181.533 335.35 181.326C335.35 181.064 335.429 180.707 335.512 180.377C335.606 180.002 335.743 179.513 335.922 178.918L335.935 178.875L335.951 178.834C336.406 177.696 336.867 176.316 337.332 174.688L337.339 174.667L337.346 174.646C337.924 172.91 338.446 171.054 338.911 169.077L338.916 169.059L338.921 169.039C339.499 166.958 339.901 165.003 340.13 163.173L340.132 163.159L340.134 163.145C340.369 161.618 340.661 159.742 341.013 157.517C341.249 155.512 341.544 153.096 341.897 150.27L341.899 150.253L341.902 150.235C342.373 147.297 342.902 143.767 343.49 139.646L345.463 139.6C346.038 142.589 346.836 145.149 347.847 147.29C349.008 149.496 350.107 151.404 351.143 153.017C352.407 154.855 353.605 156.394 354.735 157.641C356.438 159.226 358.431 160.707 360.721 162.082C363.15 163.47 365.576 164.684 368 165.724C370.404 166.639 372.674 167.204 374.811 167.429C376.928 167.652 378.621 167.418 379.943 166.808C381.236 166.211 382.393 165.091 383.38 163.337L383.391 163.316L383.403 163.297C384.518 161.514 385.299 159.562 385.747 157.435C386.203 155.271 386.37 153.239 386.258 151.336V151.333C386.148 149.362 385.664 147.866 384.879 146.771C384.614 146.473 384.127 146.074 383.356 145.578C382.572 145.074 381.546 144.503 380.269 143.864L380.26 143.86L380.252 143.855C377.806 142.574 374.824 141.171 371.304 139.646L371.292 139.64C367.882 138.111 364.235 136.523 360.352 134.876L360.342 134.871C356.561 133.217 352.955 131.562 349.525 129.906L349.506 129.897L349.487 129.888C346.167 128.109 343.365 126.44 341.088 124.882L341.062 124.864L341.038 124.846C338.894 123.178 337.441 121.506 337.134 119.816L337.128 119.789L337.125 119.762C336.886 117.849 336.707 115.763 336.588 113.504V113.501C336.467 111.078 336.588 108.711 336.953 106.401L336.956 106.382L336.96 106.361C337.452 103.902 338.313 101.566 339.541 99.3555L339.551 99.3369L339.562 99.3193C340.958 97.0345 342.976 95.1552 345.575 93.6699C347.36 92.6501 349.663 91.9147 352.44 91.4316C355.217 90.9488 358.28 90.71 361.626 90.71C364.954 90.5928 368.396 90.7111 371.95 91.0654C375.503 91.3024 378.882 91.6584 382.087 92.1328C385.401 92.4888 388.375 92.9635 391.004 93.5605L391.995 93.7803C393.92 94.2141 395.495 94.6192 396.714 94.9951L397.294 95.1807L397.304 95.1836L397.313 95.1875C398.757 95.7031 400.322 95.7649 402.038 95.3359L402.054 95.3311L402.07 95.3281C403.577 95.0053 405.236 94.2953 407.053 93.1602C408.761 92.0927 410.61 90.1088 412.579 87.0977L414.342 88.0234Z" fill="black" stroke="black" stroke-width="2"/>
<path d="M242.884 97.9922C241.957 99.1502 241.215 100.178 240.652 101.079C240.179 101.904 239.698 102.629 239.206 103.249C238.748 103.936 238.35 104.563 238.011 105.129C237.722 105.61 237.398 106.395 237.055 107.538C236.826 108.457 236.538 109.784 236.189 111.527L236.187 111.541C235.935 112.716 235.712 114.186 235.518 115.956C241.257 112.453 246.576 109.77 251.471 107.921L251.478 107.918C256.928 105.904 261.692 104.473 265.764 103.635L265.769 103.634C270.247 102.738 274.333 102.362 278.021 102.518L278.754 102.556L278.767 102.557C283.572 102.917 288.033 103.998 292.143 105.807C296.334 107.483 300.118 109.524 303.488 111.932C306.846 114.33 309.792 116.974 312.321 119.864C314.842 122.745 316.837 125.643 318.296 128.56C319.325 130.618 319.928 133.482 320.167 137.071C320.529 140.734 320.158 144.615 319.075 148.706C317.981 152.841 316.04 156.894 313.272 160.865C310.563 164.804 306.702 167.914 301.737 170.215L301.728 170.22C293.265 174.034 284.84 176.188 276.459 176.668L276.46 176.669C272.857 176.909 269.14 176.788 265.311 176.31H265.307C261.56 175.826 257.765 174.8 253.923 173.239L253.912 173.234C250.158 171.66 246.54 169.426 243.056 166.543L243.048 166.536L243.04 166.53C240.107 164.002 237.4 160.892 234.913 157.214C234.172 162.125 233.6 166.477 233.2 170.271C232.847 174.624 232.613 178.263 232.496 181.19C232.379 184.577 232.379 187.424 232.494 189.737C232.696 191.74 233.073 193.883 233.629 196.168L233.879 197.16L233.881 197.17C234.461 199.49 235.277 202.171 236.331 205.216C237.492 208.348 238.946 211.604 240.693 214.982L241.824 217.169L239.488 216.39C238.896 216.192 237.997 216.026 236.753 215.911C235.655 215.914 234.493 216.025 233.267 216.248L233.26 216.25L233.252 216.251C231.836 216.487 230.248 216.722 228.489 216.957C226.857 217.307 225.049 217.716 223.065 218.183L223.046 218.187C221.404 218.538 219.471 218.948 217.247 219.416C215.145 220 212.984 220.643 210.764 221.344L207.465 222.386L209.699 219.745C210.913 218.311 211.855 216.651 212.524 214.755L212.537 214.721L212.552 214.688C213.358 212.844 213.987 211.125 214.443 209.532C214.904 207.574 215.308 205.616 215.654 203.658C215.771 201.888 215.947 198.555 216.181 193.652L216.183 193.627C216.535 188.811 216.829 183.226 217.064 176.871C217.3 170.397 217.476 163.628 217.594 156.564V156.556L217.595 156.548C217.83 149.487 217.947 142.958 217.947 136.961V136.941C218.065 130.823 218.065 125.655 217.947 121.434C217.889 119.322 217.801 117.669 217.687 116.464C217.629 115.861 217.566 115.384 217.5 115.026C217.435 114.678 217.377 114.505 217.351 114.444C216.975 113.806 216.228 113.032 215.001 112.14L214.987 112.13L214.975 112.12C214.015 111.374 212.576 110.59 210.612 109.781L210.603 109.777L210.593 109.772C208.761 108.971 206.271 108.101 203.108 107.164L203.238 105.217C207.003 104.629 210.064 104.157 212.422 103.804C214.876 103.336 216.875 102.984 218.415 102.746C220.169 102.395 221.501 102.106 222.417 101.877C223.347 101.644 224.686 101.294 226.438 100.827C227.989 100.35 230.001 99.8186 232.465 99.2314C234.928 98.5277 238.041 97.5893 241.805 96.4131L244.928 95.4365L242.884 97.9922ZM278.161 111.624C274.688 111.624 271.254 112.519 267.85 114.335C264.397 116.176 261.231 118.478 258.35 121.244C255.455 124.023 252.909 127.03 250.711 130.268L250.712 130.269C248.627 133.396 247.205 136.193 246.417 138.665L246.418 138.666C245.636 141.236 245.473 143.726 245.914 146.15C246.35 148.548 247.441 150.803 249.221 152.92C251.115 155.034 253.765 156.962 257.21 158.686C260.752 160.281 265.186 161.496 270.534 162.31C275.903 163.127 279.82 162.977 282.405 162.008C285.055 161.014 286.917 159.5 288.078 157.494L288.086 157.48C289.425 155.248 290.329 152.664 290.783 149.712C291.257 146.512 291.849 143.196 292.56 139.764L292.562 139.756C293.233 136.622 293.124 133.426 292.222 130.156L292.22 130.148C291.3 126.7 289.982 123.612 288.272 120.876L288.264 120.862L288.256 120.85C286.654 118.104 284.84 115.901 282.823 114.221L282.801 114.201L282.778 114.181C280.827 112.344 279.3 111.624 278.161 111.624Z" fill="black" stroke="black" stroke-width="2"/>
<path d="M143.316 85.7686C147.312 85.2842 151.142 85.4639 154.8 86.3174C158.423 87.1627 161.81 88.4918 164.957 90.3057L166.154 90.9873C168.916 92.5971 171.454 94.3477 173.766 96.2393H173.765C175.699 97.7894 177.2 100.011 178.305 102.834C179.394 105.5 180.235 108.511 180.833 111.861C181.428 115.195 181.844 118.703 182.082 122.383C182.437 125.933 182.675 129.425 182.793 132.859L182.87 135.298C182.936 137.682 182.968 139.936 182.969 142.06C183.086 144.734 183.318 146.911 183.657 148.606L183.661 148.624C184.113 151.11 184.896 153.221 185.993 154.979C187.125 156.675 188.362 158.134 189.701 159.364C191.058 160.493 192.401 161.385 193.729 162.049C194.943 162.656 196.008 163.122 196.926 163.452L197.311 163.586L197.378 163.608L197.441 163.64C198.092 163.965 198.655 164.165 199.135 164.261L199.225 164.279L199.311 164.313C199.838 164.525 200.206 164.595 200.441 164.595C200.655 164.595 200.7 164.54 200.706 164.534L202.332 165.636C201.62 167.297 200.964 168.73 200.363 169.931C199.779 171.099 199.317 172.082 198.974 172.883L198.963 172.909L198.949 172.936C198.481 173.872 198.062 174.65 197.695 175.264C197.324 176.002 196.89 176.684 196.395 177.311C196.013 177.937 195.525 178.607 194.935 179.315C194.363 180.002 193.788 180.747 193.212 181.554L192.763 182.185L192.04 181.906C190.458 181.298 188.936 180.568 187.476 179.716L187.459 179.706L187.442 179.695C186.149 178.872 184.97 178.106 183.907 177.397C182.589 176.558 181.384 175.716 180.296 174.869C179.185 174.005 178.138 173.02 177.157 171.916L177.152 171.91C176.329 170.97 175.447 169.97 174.506 168.911L174.484 168.886L174.464 168.86C173.958 168.21 173.496 167.518 173.076 166.788C172.103 168.226 170.639 169.95 168.729 171.943L168.728 171.942C166.048 174.861 162.544 177.511 158.24 179.902L158.23 179.908L158.221 179.913C153.868 182.21 148.814 183.829 143.073 184.786L143.074 184.787C137.34 185.763 131.047 185.084 124.219 182.81L123.651 182.622C120.824 181.66 118.156 180.325 115.652 178.617L115.641 178.609L115.628 178.6C112.951 176.653 110.637 174.34 108.69 171.663L108.673 171.638C106.833 168.94 105.492 165.884 104.641 162.479L104.636 162.459L104.631 162.439C103.892 158.867 103.961 154.957 104.807 150.728C105.655 146.484 107.18 142.864 109.406 139.896C111.603 136.967 114.232 134.58 117.292 132.744C120.328 130.923 123.718 129.533 127.455 128.568C131.162 127.612 134.987 126.954 138.928 126.596L138.953 126.594L138.979 126.593C141.716 126.488 144.453 126.613 147.188 126.968L148.361 127.134L148.375 127.136L148.388 127.139C151.075 127.627 153.866 128.539 156.757 129.864H156.756C158.909 130.766 160.833 132.026 162.527 133.635C162.398 128.634 162.184 124.592 161.885 121.502L161.883 121.485L161.882 121.468C161.648 117.726 161.415 114.873 161.184 112.898C160.735 110.659 160.349 109.129 160.036 108.254C159.463 107.448 158.836 106.537 158.159 105.521L158.137 105.488L158.117 105.453C157.586 104.497 156.894 103.643 156.035 102.892L156.01 102.869L155.986 102.846C155.149 102.008 154.085 101.311 152.773 100.765C151.53 100.246 150.039 100.021 148.271 100.132L148.268 100.133C146.404 100.242 145.033 100.729 144.062 101.506C142.989 102.364 142.135 103.377 141.494 104.549C140.972 105.6 140.652 106.765 140.545 108.055C140.435 109.374 140.492 110.489 140.691 111.417C140.899 112.026 141.21 112.705 141.637 113.455C142.06 114.084 142.654 114.79 143.437 115.572C144.145 116.281 145.143 116.924 146.473 117.478L149.911 118.91L146.218 119.393C143.503 119.747 141.08 120.042 138.951 120.278L138.924 120.281L138.896 120.283C136.797 120.4 135.004 120.573 133.514 120.803L133.504 120.805L133.494 120.806C131.717 121.043 130.171 121.221 128.856 121.341C127.606 121.454 126.111 121.683 124.366 122.032L124.345 122.037L124.322 122.04C122.792 122.275 120.908 122.57 118.67 122.924C116.448 123.275 113.869 123.743 110.933 124.33L108.092 124.898L109.978 122.699C110.673 121.888 111.311 121.134 111.891 120.438C112.464 119.636 112.986 118.939 113.457 118.349C113.936 117.631 114.42 116.969 114.905 116.362L114.911 116.354L114.918 116.347C115.288 115.903 115.632 114.892 115.748 113.035L115.75 113.008L115.753 112.981C115.996 110.913 116.481 108.619 117.199 106.106L117.205 106.086L117.212 106.064C118.074 103.479 119.479 100.802 121.405 98.0332C123.409 95.1528 126.614 92.5277 130.932 90.1289C135.144 87.7233 139.274 86.2586 143.316 85.7686ZM152.97 140.542C149.825 139.307 146.261 138.791 142.257 139.02H142.255C140.266 139.13 138.263 139.627 136.242 140.525L136.221 140.535L136.198 140.544C134.21 141.317 132.441 142.476 130.887 144.03L130.874 144.044L130.86 144.057C129.294 145.511 127.943 147.253 126.812 149.289C125.841 151.131 125.347 153.201 125.347 155.52C125.347 157.816 125.889 159.798 126.945 161.501C128.148 163.132 129.678 164.5 131.549 165.604C133.554 166.718 135.662 167.383 137.88 167.604H137.879C140.214 167.826 142.488 167.605 144.709 166.943C146.807 166.166 148.812 164.944 150.724 163.259C152.663 161.431 154.311 159.495 155.674 157.454C157.044 155.284 158.001 153.195 158.559 151.187C159.12 149.046 159.134 147.442 158.75 146.291L158.746 146.28L158.743 146.269C157.903 143.537 156.033 141.637 152.999 140.554L152.97 140.542Z" fill="black" stroke="black" stroke-width="2"/>
<path d="M36.8613 100.389C36.1569 102.15 35.5712 103.672 35.1045 104.955C34.6406 106.231 34.2988 107.315 34.0742 108.214L34.0654 108.252L34.0527 108.288C33.7159 109.299 33.5742 110.067 33.5742 110.623V110.694L33.5645 110.765C33.4554 111.528 33.3975 112.479 33.3975 113.628V113.657L33.3955 113.687C33.2993 115.321 33.2829 117.826 33.3486 121.214C38.7861 116.559 43.402 112.872 47.1943 110.163L47.2051 110.155C51.4493 107.208 54.8136 104.906 57.2959 103.251L57.3115 103.241C60.2713 101.347 62.6476 100.058 64.4082 99.4297L64.4941 99.3984L64.584 99.3838C69.0715 98.6561 73.0798 99.6387 76.5352 102.337L76.8682 102.604L76.874 102.607C78.3788 103.861 79.7918 105.529 81.123 107.582L81.3779 107.965C82.6423 109.916 83.7159 112.426 84.6162 115.465C85.581 118.721 86.2968 122.613 86.7725 127.131L86.8574 127.972C87.2572 132.228 87.2865 137.25 86.9531 143.027L86.9043 143.884L86.0498 143.965C83.5811 144.2 81.3498 144.435 79.3555 144.67L79.3545 144.669C77.4768 144.904 75.8843 145.081 74.5791 145.2C73.0454 145.435 71.6141 145.556 70.2871 145.56L65.5732 146.083C63.9058 146.321 61.8333 146.557 59.3594 146.793L59.3369 146.796L59.3145 146.797C56.9814 146.914 54.1128 147.148 50.7061 147.5L47.3574 147.846L49.9746 145.728C54.8975 141.742 57.933 138.381 59.2471 135.644L59.25 135.636L59.2539 135.629C60.7527 132.631 61.3015 130.31 61.0996 128.593L61.0986 128.58C60.8952 126.648 59.996 124.949 58.3232 123.46C56.3035 122.314 54.1406 121.9 51.7988 122.22L51.7842 122.222L51.7686 122.223C49.7307 122.437 47.2817 123.363 44.4014 125.091C41.6889 126.718 38.7257 129.793 35.5283 134.429C35.7605 141.82 35.9927 147.95 36.2246 152.82C36.5764 157.746 36.8697 161.735 37.1045 164.788L37.5898 169.51C37.7346 170.87 37.8645 172.044 37.9805 173.032C38.2713 174.468 38.8163 176.011 39.6299 177.663L39.998 178.384L40.0039 178.394L40.0088 178.404C40.7973 179.981 41.937 181.754 43.4434 183.724C44.9165 185.65 46.8599 187.598 49.2881 189.563L51.6533 191.478L48.6143 191.34C43.4491 191.105 39.2492 191.106 36.0039 191.338L35.9912 191.339C34.0057 191.456 32.2546 191.572 30.7373 191.688C29.0956 191.923 27.3391 192.157 25.4678 192.391C23.811 192.627 21.8655 192.863 19.6328 193.099C17.5068 193.453 15.1484 193.807 12.5586 194.16L10.2363 194.477L11.6152 192.581C12.4887 191.38 13.2115 189.943 13.7734 188.257L13.7764 188.247L13.7803 188.237C14.3578 186.62 14.8173 185.066 15.1611 183.576L15.165 183.56L15.1699 183.543C15.6272 181.828 15.97 180.054 16.2002 178.22C16.314 176.607 16.373 174.171 16.373 170.897V170.88L16.374 170.861C16.4905 167.599 16.4326 163.919 16.1982 159.818L16.1963 159.789C16.0787 155.556 15.9022 151.204 15.667 146.734V146.732C15.4319 142.147 15.1384 137.859 14.7861 133.866C14.434 129.876 14.0242 126.424 13.5576 123.508L13.5537 123.486L13.5518 123.464C13.1981 120.399 12.7953 118.398 12.3789 117.357V117.356C11.8091 115.991 11.1235 114.622 10.3223 113.248L10.3086 113.223C9.62857 111.976 8.77241 110.661 7.73535 109.278L7.72363 109.264L7.71289 109.248C6.66519 107.735 5.49907 106.16 4.21387 104.524L2.85254 102.792L5.05273 102.907C7.26564 103.024 9.24073 103.081 10.9795 103.082C12.845 102.965 14.4151 102.849 15.6914 102.733L15.7051 102.732L17.8613 102.557C18.5296 102.499 19.1539 102.44 19.7344 102.382C21.4773 102.149 23.28 101.859 25.1426 101.51L25.1641 101.505L25.1855 101.502C26.8098 101.27 28.494 100.979 30.2383 100.631C32.09 100.167 33.8827 99.6472 35.6162 99.0693L37.6621 98.3867L36.8613 100.389Z" fill="black" stroke="black" stroke-width="2"/>
<mask id="mask0_77_52" style="mask-type:alpha" maskUnits="userSpaceOnUse" x="730" y="-2" width="50" height="102">
<mask id="path-9-outside-1_77_52" maskUnits="userSpaceOnUse" x="730" y="-2" width="50" height="102" fill="black">
<rect fill="white" x="730" y="-2" width="50" height="102"/>
<path d="M769.523 28.9111C767.638 36.0992 766.224 42.2269 765.281 47.2939C764.456 52.3609 763.926 56.6032 763.69 60.0205C763.219 63.9091 763.101 67.2087 763.337 69.9189C763.69 72.3935 764.28 75.045 765.104 77.873C765.812 80.2298 766.872 82.9402 768.286 86.0039C769.7 89.0677 771.586 92.1316 773.942 95.1953C772.528 94.724 770.996 94.3704 769.347 94.1348C767.697 93.8991 766.165 93.7223 764.751 93.6045C763.101 93.4867 761.451 93.4867 759.802 93.6045C758.152 93.7223 756.326 93.8991 754.322 94.1348C752.673 94.3704 750.669 94.665 748.312 95.0186C745.956 95.3721 743.481 95.8434 740.889 96.4326C742.656 91.13 744.011 86.5341 744.954 82.6455C746.015 78.7569 746.781 75.5162 747.252 72.9238C747.723 69.8601 748.018 67.3854 748.136 65.5V48.708C748.136 45.88 748.077 43.4052 747.959 41.2842C747.841 39.0454 747.605 37.6313 747.252 37.042L745.484 35.2744C744.777 34.6852 743.717 33.8603 742.303 32.7998C741.007 31.6214 739.239 30.2073 737 28.5576L769.523 28.9111ZM749.55 1.33691C752.024 0.0406901 754.499 -0.312826 756.974 0.276367C759.566 0.865562 761.569 1.98503 762.983 3.63477C764.397 5.28448 764.869 7.22889 764.397 9.46777C764.044 11.7066 762.158 13.8868 758.741 16.0078C755.324 18.011 752.319 18.7181 749.727 18.1289C747.134 17.5397 745.308 16.3023 744.247 14.417C743.187 12.5316 743.01 10.3515 743.717 7.87695C744.424 5.28453 746.368 3.10448 749.55 1.33691Z"/>
</mask>
<path d="M769.523 28.9111C767.638 36.0992 766.224 42.2269 765.281 47.2939C764.456 52.3609 763.926 56.6032 763.69 60.0205C763.219 63.9091 763.101 67.2087 763.337 69.9189C763.69 72.3935 764.28 75.045 765.104 77.873C765.812 80.2298 766.872 82.9402 768.286 86.0039C769.7 89.0677 771.586 92.1316 773.942 95.1953C772.528 94.724 770.996 94.3704 769.347 94.1348C767.697 93.8991 766.165 93.7223 764.751 93.6045C763.101 93.4867 761.451 93.4867 759.802 93.6045C758.152 93.7223 756.326 93.8991 754.322 94.1348C752.673 94.3704 750.669 94.665 748.312 95.0186C745.956 95.3721 743.481 95.8434 740.889 96.4326C742.656 91.13 744.011 86.5341 744.954 82.6455C746.015 78.7569 746.781 75.5162 747.252 72.9238C747.723 69.8601 748.018 67.3854 748.136 65.5V48.708C748.136 45.88 748.077 43.4052 747.959 41.2842C747.841 39.0454 747.605 37.6313 747.252 37.042L745.484 35.2744C744.777 34.6852 743.717 33.8603 742.303 32.7998C741.007 31.6214 739.239 30.2073 737 28.5576L769.523 28.9111ZM749.55 1.33691C752.024 0.0406901 754.499 -0.312826 756.974 0.276367C759.566 0.865562 761.569 1.98503 762.983 3.63477C764.397 5.28448 764.869 7.22889 764.397 9.46777C764.044 11.7066 762.158 13.8868 758.741 16.0078C755.324 18.011 752.319 18.7181 749.727 18.1289C747.134 17.5397 745.308 16.3023 744.247 14.417C743.187 12.5316 743.01 10.3515 743.717 7.87695C744.424 5.28453 746.368 3.10448 749.55 1.33691Z" fill="black"/>
<path d="M769.523 28.9111L771.458 29.4186L772.108 26.9391L769.545 26.9113L769.523 28.9111ZM765.281 47.2939L763.315 46.9281L763.311 46.9503L763.307 46.9726L765.281 47.2939ZM763.69 60.0205L765.676 60.2612L765.682 60.2098L765.686 60.1581L763.69 60.0205ZM763.337 69.9189L761.344 70.0922L761.349 70.1472L761.357 70.2018L763.337 69.9189ZM765.104 77.873L763.184 78.433L763.187 78.4404L763.189 78.4478L765.104 77.873ZM768.286 86.0039L766.47 86.842L766.47 86.842L768.286 86.0039ZM773.942 95.1953L773.31 97.0927L779.517 99.1616L775.528 93.9759L773.942 95.1953ZM769.347 94.1348L769.63 92.1549L769.63 92.1549L769.347 94.1348ZM764.751 93.6045L764.917 91.6114L764.905 91.6104L764.893 91.6096L764.751 93.6045ZM759.802 93.6045L759.659 91.6096L759.659 91.6096L759.802 93.6045ZM754.322 94.1348L754.089 92.1485L754.064 92.1514L754.039 92.1549L754.322 94.1348ZM748.312 95.0186L748.016 93.0407L748.016 93.0407L748.312 95.0186ZM740.889 96.4326L738.991 95.8002L737.868 99.1701L741.332 98.3829L740.889 96.4326ZM744.954 82.6455L743.025 82.1193L743.017 82.1467L743.01 82.1743L744.954 82.6455ZM747.252 72.9238L749.22 73.2816L749.225 73.2548L749.229 73.2279L747.252 72.9238ZM748.136 65.5L750.132 65.6248L750.136 65.5624V65.5H748.136ZM747.959 41.2842L745.962 41.3893L745.962 41.3951L747.959 41.2842ZM747.252 37.042L748.967 36.0132L748.84 35.802L748.666 35.6278L747.252 37.042ZM745.484 35.2744L746.899 33.8602L746.834 33.796L746.765 33.738L745.484 35.2744ZM742.303 32.7998L740.957 34.2797L741.027 34.3432L741.103 34.3998L742.303 32.7998ZM737 28.5576L737.022 26.5577L730.823 26.4904L735.814 30.1677L737 28.5576ZM749.55 1.33691L748.622 -0.434749L748.6 -0.423339L748.579 -0.411396L749.55 1.33691ZM756.974 0.276367L756.51 2.22198L756.52 2.22436L756.53 2.22663L756.974 0.276367ZM762.983 3.63477L764.502 2.33321L764.502 2.33318L762.983 3.63477ZM764.397 9.46777L762.44 9.05575L762.43 9.10553L762.422 9.15578L764.397 9.46777ZM758.741 16.0078L759.753 17.7332L759.774 17.7204L759.796 17.7071L758.741 16.0078ZM749.727 18.1289L749.283 20.0792L749.283 20.0792L749.727 18.1289ZM744.247 14.417L742.504 15.3975L742.504 15.3976L744.247 14.417ZM743.717 7.87695L745.64 8.42637L745.643 8.4148L745.646 8.40319L743.717 7.87695ZM769.523 28.9111L767.589 28.4037C765.696 35.6201 764.269 41.7979 763.315 46.9281L765.281 47.2939L767.248 47.6598C768.178 42.656 769.58 36.5783 771.458 29.4186L769.523 28.9111ZM765.281 47.2939L763.307 46.9726C762.477 52.0737 761.937 56.3819 761.695 59.8829L763.69 60.0205L765.686 60.1581C765.916 56.8245 766.436 52.6482 767.255 47.6153L765.281 47.2939ZM763.69 60.0205L761.705 59.7798C761.224 63.7514 761.093 67.1985 761.344 70.0922L763.337 69.9189L765.329 69.7457C765.11 67.2189 765.215 64.0668 765.676 60.2612L763.69 60.0205ZM763.337 69.9189L761.357 70.2018C761.726 72.7848 762.338 75.5297 763.184 78.433L765.104 77.873L767.024 77.313C766.222 74.5603 765.655 72.0022 765.317 69.6361L763.337 69.9189ZM765.104 77.873L763.189 78.4478C763.931 80.9206 765.03 83.7219 766.47 86.842L768.286 86.0039L770.102 85.1658C768.714 82.1585 767.692 79.539 767.02 77.2983L765.104 77.873ZM768.286 86.0039L766.47 86.842C767.955 90.059 769.922 93.2496 772.357 96.4147L773.942 95.1953L775.528 93.9759C773.249 91.0135 771.445 88.0764 770.102 85.1658L768.286 86.0039ZM773.942 95.1953L774.575 93.2979C773.035 92.7845 771.384 92.4056 769.63 92.1549L769.347 94.1348L769.064 96.1147C770.608 96.3353 772.022 96.6634 773.31 97.0927L773.942 95.1953ZM769.347 94.1348L769.63 92.1549C767.947 91.9146 766.376 91.733 764.917 91.6114L764.751 93.6045L764.585 95.5976C765.954 95.7117 767.446 95.8836 769.064 96.1147L769.347 94.1348ZM764.751 93.6045L764.893 91.6096C763.149 91.485 761.404 91.485 759.659 91.6096L759.802 93.6045L759.944 95.5994C761.499 95.4884 763.054 95.4884 764.608 95.5994L764.751 93.6045ZM759.802 93.6045L759.659 91.6096C757.973 91.73 756.116 91.91 754.089 92.1485L754.322 94.1348L754.556 96.1211C756.535 95.8882 758.331 95.7147 759.944 95.5994L759.802 93.6045ZM754.322 94.1348L754.039 92.1549C752.384 92.3914 750.375 92.6867 748.016 93.0407L748.312 95.0186L748.609 96.9964C750.963 96.6433 752.961 96.3495 754.605 96.1147L754.322 94.1348ZM748.312 95.0186L748.016 93.0407C745.605 93.4024 743.081 93.8834 740.445 94.4824L740.889 96.4326L741.332 98.3829C743.881 97.8035 746.307 97.3418 748.609 96.9964L748.312 95.0186ZM740.889 96.4326L742.786 97.0651C744.565 91.7284 745.938 87.0763 746.898 83.1167L744.954 82.6455L743.01 82.1743C742.085 85.992 740.748 90.5315 738.991 95.8002L740.889 96.4326ZM744.954 82.6455L746.884 83.1717C747.952 79.2533 748.734 75.952 749.22 73.2816L747.252 72.9238L745.284 72.5661C744.827 75.0805 744.077 78.2605 743.025 82.1193L744.954 82.6455ZM747.252 72.9238L749.229 73.2279C749.704 70.1372 750.009 67.5958 750.132 65.6248L748.136 65.5L746.14 65.3752C746.027 67.1749 745.742 69.5831 745.275 72.6197L747.252 72.9238ZM748.136 65.5H750.136V48.708H748.136H746.136V65.5H748.136ZM748.136 48.708H750.136C750.136 45.8542 750.076 43.341 749.956 41.1732L747.959 41.2842L745.962 41.3951C746.077 43.4695 746.136 45.9057 746.136 48.708H748.136ZM747.959 41.2842L749.956 41.1791C749.895 40.0214 749.802 39.0258 749.667 38.2157C749.543 37.4711 749.35 36.6508 748.967 36.0132L747.252 37.042L745.537 38.0708C745.508 38.0224 745.609 38.2039 745.721 38.8733C745.822 39.4773 745.905 40.3082 745.962 41.3893L747.959 41.2842ZM747.252 37.042L748.666 35.6278L746.899 33.8602L745.484 35.2744L744.07 36.6886L745.838 38.4562L747.252 37.042ZM745.484 35.2744L746.765 33.738C746.018 33.1153 744.924 32.2659 743.503 31.1998L742.303 32.7998L741.103 34.3998C742.509 35.4548 743.537 36.2552 744.204 36.8109L745.484 35.2744ZM742.303 32.7998L743.648 31.3199C742.281 30.0769 740.453 28.6173 738.186 26.9475L737 28.5576L735.814 30.1677C738.025 31.7974 739.732 33.166 740.957 34.2797L742.303 32.7998ZM737 28.5576L736.978 30.5575L769.502 30.911L769.523 28.9111L769.545 26.9113L737.022 26.5577L737 28.5576ZM749.55 1.33691L750.478 3.10858C752.57 2.01264 754.553 1.75586 756.51 2.22198L756.974 0.276367L757.437 -1.66925C754.445 -2.38151 751.479 -1.93126 748.622 -0.434749L749.55 1.33691ZM756.974 0.276367L756.53 2.22663C758.8 2.74237 760.388 3.67998 761.465 4.93635L762.983 3.63477L764.502 2.33318C762.751 0.290093 760.333 -1.01125 757.417 -1.6739L756.974 0.276367ZM762.983 3.63477L761.465 4.93632C762.45 6.08571 762.792 7.38771 762.44 9.05575L764.397 9.46777L766.355 9.87979C766.946 7.07007 766.345 4.48325 764.502 2.33321L762.983 3.63477ZM764.397 9.46777L762.422 9.15578C762.209 10.5042 760.969 12.2708 757.686 14.3085L758.741 16.0078L759.796 17.7071C763.347 15.5027 765.879 12.9091 766.373 9.77977L764.397 9.46777ZM758.741 16.0078L757.73 14.2824C754.54 16.1521 752.071 16.6106 750.17 16.1786L749.727 18.1289L749.283 20.0792C752.567 20.8255 756.108 19.8699 759.753 17.7332L758.741 16.0078ZM749.727 18.1289L750.17 16.1786C747.992 15.6837 746.712 14.7197 745.99 13.4364L744.247 14.417L742.504 15.3976C743.903 17.8849 746.276 19.3957 749.283 20.0792L749.727 18.1289ZM744.247 14.417L745.99 13.4365C745.241 12.1037 745.05 10.4921 745.64 8.42637L743.717 7.87695L741.794 7.32754C740.97 10.2108 741.133 12.9596 742.504 15.3975L744.247 14.417ZM743.717 7.87695L745.646 8.40319C746.167 6.49399 747.638 4.68679 750.521 3.08522L749.55 1.33691L748.579 -0.411396C745.098 1.52218 742.681 4.07506 741.787 7.35072L743.717 7.87695Z" fill="black" mask="url(#path-9-outside-1_77_52)"/>
</mask>
<g mask="url(#mask0_77_52)">
<rect x="741" y="1" width="28" height="20" fill="black" stroke="black" stroke-width="2"/>
</g>
<mask id="mask1_77_52" style="mask-type:alpha" maskUnits="userSpaceOnUse" x="730" y="79" width="50" height="102">
<path d="M737.011 108.558L769.534 108.911L770.815 108.925L770.49 110.165C768.609 117.339 767.201 123.441 766.265 128.477C765.445 133.517 764.921 137.718 764.688 141.089L764.687 141.115L764.684 141.141C764.219 144.972 764.106 148.186 764.33 150.799C764.676 153.211 765.252 155.806 766.062 158.586L766.338 159.465C767.018 161.556 767.968 163.929 769.194 166.585C770.573 169.572 772.418 172.572 774.735 175.585L776.729 178.179L773.626 177.144C772.275 176.693 770.802 176.353 769.205 176.125C767.575 175.892 766.065 175.717 764.676 175.601C763.075 175.486 761.474 175.487 759.873 175.602C758.247 175.718 756.442 175.892 754.458 176.125C752.812 176.36 750.814 176.654 748.461 177.007C746.131 177.356 743.681 177.823 741.11 178.407L739.378 178.801L739.94 177.116C741.702 171.831 743.048 167.263 743.982 163.41L743.985 163.396L743.989 163.382C745.043 159.52 745.799 156.317 746.264 153.768C746.731 150.73 747.02 148.297 747.136 146.458V129.708C747.136 126.893 747.077 124.437 746.961 122.34L746.96 122.337C746.902 121.237 746.816 120.364 746.707 119.709C746.611 119.133 746.506 118.801 746.432 118.636L744.812 117.016C744.124 116.445 743.091 115.641 741.703 114.6L741.665 114.571L741.63 114.54C740.369 113.394 738.632 112.002 736.407 110.362L733.911 108.523L737.011 108.558ZM749.086 81.4512C751.748 80.0566 754.465 79.6546 757.194 80.3018C759.948 80.9276 762.16 82.1372 763.742 83.9834C765.371 85.8833 765.907 88.1495 765.376 90.6738C764.933 93.3375 762.731 95.7082 759.269 97.8574L759.258 97.8643L759.247 97.8701C755.716 99.9401 752.443 100.771 749.505 100.104C746.705 99.4672 744.606 98.0935 743.376 95.9072C742.16 93.7455 741.989 91.2806 742.755 88.6016C743.558 85.673 745.738 83.311 749.064 81.4629L749.086 81.4512Z" fill="black" stroke="black" stroke-width="2"/>
</mask>
<g mask="url(#mask1_77_52)">
<rect x="719" y="112" width="65" height="76" fill="black" stroke="black" stroke-width="2"/>
</g>
<mask id="path-14-outside-2_77_52" maskUnits="userSpaceOnUse" x="632.535" y="48" width="46" height="149" fill="black">
<rect fill="white" x="632.535" y="48" width="46" height="149"/>
<path d="M665.704 145.797C665.957 150.283 666.21 154.466 666.463 158.348C666.934 163.65 667.347 168.187 667.7 171.958C668.172 175.611 668.525 177.968 668.761 179.028C669.232 180.796 669.703 182.505 670.175 184.154C670.646 185.568 671.176 187.041 671.766 188.573C672.355 190.223 673.062 191.519 673.887 192.462H656.741C655.209 192.462 653.736 192.521 652.322 192.639C651.026 192.757 649.671 192.874 648.257 192.992C646.843 193.11 645.547 193.287 644.368 193.522C645.547 191.755 646.489 190.105 647.196 188.573C647.903 187.041 648.493 185.745 648.964 184.685C649.435 183.388 649.789 182.21 650.024 181.149C650.142 180.442 650.201 178.38 650.201 174.963C650.201 171.546 650.083 167.244 649.848 162.06C649.792 159.627 649.723 157.052 649.642 154.334C655.135 151.737 660.494 148.886 665.704 145.797ZM668.23 53C667.641 56.4173 667.17 59.7168 666.816 62.8984C666.463 66.0801 666.168 69.026 665.933 71.7363C665.697 74.8001 665.579 77.7461 665.579 80.5742C664.99 86.3483 664.636 92.6527 664.519 99.4873C664.519 106.204 664.577 113.039 664.695 119.991C664.745 122.897 664.815 125.772 664.905 128.616C660.134 131.744 655.214 134.648 650.156 137.312L649.05 134.704C648.932 131.42 648.786 128.106 648.61 124.764C648.375 118.047 648.08 111.507 647.727 105.144C647.491 98.7803 647.255 93.0651 647.02 87.998C646.784 82.8132 646.548 78.571 646.312 75.2715C646.077 71.972 645.9 70.0866 645.782 69.6152C645.547 68.9082 645.134 68.2012 644.545 67.4941C643.367 66.0801 641.363 64.7249 638.535 63.4287C644.545 61.8968 649.141 60.6595 652.322 59.7168C654.208 59.2454 655.857 58.7741 657.271 58.3027L661.16 56.8887C662.221 56.4173 663.399 55.887 664.695 55.2979C665.992 54.5908 667.17 53.8249 668.23 53Z"/>
</mask>
<path d="M665.704 145.797C665.957 150.283 666.21 154.466 666.463 158.348C666.934 163.65 667.347 168.187 667.7 171.958C668.172 175.611 668.525 177.968 668.761 179.028C669.232 180.796 669.703 182.505 670.175 184.154C670.646 185.568 671.176 187.041 671.766 188.573C672.355 190.223 673.062 191.519 673.887 192.462H656.741C655.209 192.462 653.736 192.521 652.322 192.639C651.026 192.757 649.671 192.874 648.257 192.992C646.843 193.11 645.547 193.287 644.368 193.522C645.547 191.755 646.489 190.105 647.196 188.573C647.903 187.041 648.493 185.745 648.964 184.685C649.435 183.388 649.789 182.21 650.024 181.149C650.142 180.442 650.201 178.38 650.201 174.963C650.201 171.546 650.083 167.244 649.848 162.06C649.792 159.627 649.723 157.052 649.642 154.334C655.135 151.737 660.494 148.886 665.704 145.797ZM668.23 53C667.641 56.4173 667.17 59.7168 666.816 62.8984C666.463 66.0801 666.168 69.026 665.933 71.7363C665.697 74.8001 665.579 77.7461 665.579 80.5742C664.99 86.3483 664.636 92.6527 664.519 99.4873C664.519 106.204 664.577 113.039 664.695 119.991C664.745 122.897 664.815 125.772 664.905 128.616C660.134 131.744 655.214 134.648 650.156 137.312L649.05 134.704C648.932 131.42 648.786 128.106 648.61 124.764C648.375 118.047 648.08 111.507 647.727 105.144C647.491 98.7803 647.255 93.0651 647.02 87.998C646.784 82.8132 646.548 78.571 646.312 75.2715C646.077 71.972 645.9 70.0866 645.782 69.6152C645.547 68.9082 645.134 68.2012 644.545 67.4941C643.367 66.0801 641.363 64.7249 638.535 63.4287C644.545 61.8968 649.141 60.6595 652.322 59.7168C654.208 59.2454 655.857 58.7741 657.271 58.3027L661.16 56.8887C662.221 56.4173 663.399 55.887 664.695 55.2979C665.992 54.5908 667.17 53.8249 668.23 53Z" fill="black"/>
<path d="M665.704 145.797L667.701 145.684L667.515 142.398L664.684 144.077L665.704 145.797ZM666.463 158.348L664.467 158.478L664.469 158.501L664.471 158.525L666.463 158.348ZM667.7 171.958L665.709 172.145L665.712 172.179L665.717 172.214L667.7 171.958ZM668.761 179.028L666.808 179.462L666.817 179.503L666.828 179.544L668.761 179.028ZM670.175 184.154L668.252 184.704L668.264 184.746L668.277 184.787L670.175 184.154ZM671.766 188.573L673.649 187.901L673.641 187.878L673.632 187.855L671.766 188.573ZM673.887 192.462V194.462H678.294L675.392 191.145L673.887 192.462ZM652.322 192.639L652.156 190.646L652.149 190.646L652.141 190.647L652.322 192.639ZM644.368 193.522L642.704 192.413L640.026 196.431L644.76 195.484L644.368 193.522ZM648.964 184.685L650.791 185.497L650.82 185.433L650.843 185.368L648.964 184.685ZM650.024 181.149L651.977 181.583L651.988 181.531L651.997 181.478L650.024 181.149ZM649.848 162.06L647.848 162.105L647.849 162.128L647.85 162.15L649.848 162.06ZM649.642 154.334L648.787 152.526L647.603 153.085L647.642 154.394L649.642 154.334ZM668.23 53L670.201 53.3398L671.079 48.2509L667.003 51.4213L668.23 53ZM665.933 71.7363L663.94 71.5631L663.939 71.573L663.939 71.5829L665.933 71.7363ZM665.579 80.5742L667.569 80.7772L667.579 80.676V80.5742H665.579ZM664.519 99.4873L662.519 99.4528L662.519 99.4701V99.4873H664.519ZM664.695 119.991L666.695 119.957L664.695 119.991ZM664.905 128.616L666.002 130.289L666.94 129.674L666.904 128.553L664.905 128.616ZM650.156 137.312L648.315 138.094L649.164 140.096L651.088 139.082L650.156 137.312ZM649.05 134.704L647.051 134.776L647.064 135.145L647.209 135.485L649.05 134.704ZM648.61 124.764L646.612 124.834L646.612 124.851L646.613 124.869L648.61 124.764ZM647.727 105.144L645.728 105.218L645.729 105.236L645.73 105.254L647.727 105.144ZM647.02 87.998L645.022 88.0889L645.022 88.091L647.02 87.998ZM646.312 75.2715L648.307 75.129L648.307 75.129L646.312 75.2715ZM645.782 69.6152L647.723 69.1302L647.704 69.0556L647.68 68.9828L645.782 69.6152ZM644.545 67.4941L643.008 68.7745L643.008 68.7745L644.545 67.4941ZM638.535 63.4287L638.041 61.4907L632.557 62.8887L637.702 65.2468L638.535 63.4287ZM652.322 59.7168L651.837 57.7765L651.795 57.787L651.754 57.7992L652.322 59.7168ZM657.271 58.3027L657.904 60.2001L657.93 60.1916L657.955 60.1823L657.271 58.3027ZM661.16 56.8887L661.844 58.7683L661.909 58.7445L661.972 58.7163L661.16 56.8887ZM664.695 55.2979L665.523 57.1186L665.589 57.0885L665.653 57.0536L664.695 55.2979ZM665.704 145.797L663.707 145.91C663.961 150.4 664.214 154.59 664.467 158.478L666.463 158.348L668.459 158.217C668.206 154.343 667.954 150.165 667.701 145.684L665.704 145.797ZM666.463 158.348L664.471 158.525C664.942 163.83 665.355 168.37 665.709 172.145L667.7 171.958L669.691 171.771C669.338 168.005 668.926 163.471 668.455 158.171L666.463 158.348ZM667.7 171.958L665.717 172.214C666.185 175.844 666.549 178.296 666.808 179.462L668.761 179.028L670.713 178.594C670.501 177.639 670.158 175.378 669.684 171.702L667.7 171.958ZM668.761 179.028L666.828 179.544C667.302 181.322 667.777 183.042 668.252 184.704L670.175 184.154L672.098 183.605C671.63 181.967 671.162 180.27 670.693 178.513L668.761 179.028ZM670.175 184.154L668.277 184.787C668.759 186.232 669.3 187.734 669.899 189.291L671.766 188.573L673.632 187.855C673.053 186.349 672.533 184.904 672.072 183.522L670.175 184.154ZM671.766 188.573L669.882 189.246C670.525 191.045 671.339 192.588 672.382 193.779L673.887 192.462L675.392 191.145C674.784 190.45 674.185 189.401 673.649 187.901L671.766 188.573ZM673.887 192.462V190.462H656.741V192.462V194.462H673.887V192.462ZM656.741 192.462V190.462C655.158 190.462 653.63 190.523 652.156 190.646L652.322 192.639L652.488 194.632C653.843 194.519 655.26 194.462 656.741 194.462V192.462ZM652.322 192.639L652.141 190.647C650.85 190.764 649.5 190.882 648.091 190.999L648.257 192.992L648.423 194.985C649.842 194.867 651.202 194.749 652.503 194.63L652.322 192.639ZM648.257 192.992L648.091 190.999C646.614 191.122 645.241 191.308 643.976 191.561L644.368 193.522L644.76 195.484C645.852 195.265 647.072 195.098 648.423 194.985L648.257 192.992ZM644.368 193.522L646.032 194.632C647.254 192.799 648.252 191.058 649.012 189.411L647.196 188.573L645.38 187.735C644.726 189.152 643.839 190.711 642.704 192.413L644.368 193.522ZM647.196 188.573L649.012 189.411C649.722 187.874 650.315 186.569 650.791 185.497L648.964 184.685L647.136 183.872C646.67 184.921 646.085 186.208 645.38 187.735L647.196 188.573ZM648.964 184.685L650.843 185.368C651.337 184.011 651.718 182.748 651.977 181.583L650.024 181.149L648.072 180.716C647.859 181.672 647.533 182.766 647.084 184.001L648.964 184.685ZM650.024 181.149L651.997 181.478C652.149 180.567 652.201 178.299 652.201 174.963H650.201H648.201C648.201 178.462 648.135 180.318 648.052 180.821L650.024 181.149ZM650.201 174.963H652.201C652.201 171.504 652.082 167.17 651.846 161.969L649.848 162.06L647.85 162.15C648.085 167.319 648.201 171.587 648.201 174.963H650.201ZM649.848 162.06L651.847 162.014C651.792 159.576 651.722 156.996 651.641 154.274L649.642 154.334L647.642 154.394C647.724 157.108 647.793 159.678 647.848 162.105L649.848 162.06ZM649.642 154.334L650.497 156.142C656.046 153.518 661.461 150.638 666.724 147.517L665.704 145.797L664.684 144.077C659.527 147.135 654.223 149.955 648.787 152.526L649.642 154.334ZM668.23 53L666.26 52.6602C665.664 56.1138 665.187 59.453 664.829 62.6776L666.816 62.8984L668.804 63.1193C669.153 59.9806 669.618 56.7209 670.201 53.3398L668.23 53ZM666.816 62.8984L664.829 62.6776C664.474 65.8724 664.177 68.8344 663.94 71.5631L665.933 71.7363L667.925 71.9096C668.159 69.2177 668.452 66.2878 668.804 63.1193L666.816 62.8984ZM665.933 71.7363L663.939 71.5829C663.699 74.6934 663.579 77.6907 663.579 80.5742H665.579H667.579C667.579 77.8014 667.695 74.9068 667.927 71.8897L665.933 71.7363ZM665.579 80.5742L663.589 80.3712C662.994 86.2101 662.637 92.5715 662.519 99.4528L664.519 99.4873L666.518 99.5218C666.635 92.7339 666.986 86.4865 667.569 80.7772L665.579 80.5742ZM664.519 99.4873H662.519C662.519 106.216 662.578 113.062 662.696 120.025L664.695 119.991L666.695 119.957C666.577 113.016 666.519 106.192 666.519 99.4873H664.519ZM664.695 119.991L662.696 120.025C662.745 122.941 662.816 125.826 662.906 128.68L664.905 128.616L666.904 128.553C666.814 125.718 666.744 122.853 666.695 119.957L664.695 119.991ZM664.905 128.616L663.809 126.944C659.09 130.037 654.225 132.909 649.224 135.543L650.156 137.312L651.088 139.082C656.203 136.388 661.178 133.451 666.002 130.289L664.905 128.616ZM650.156 137.312L651.997 136.531L650.891 133.923L649.05 134.704L647.209 135.485L648.315 138.094L650.156 137.312ZM649.05 134.704L651.049 134.633C650.931 131.337 650.784 128.013 650.608 124.659L648.61 124.764L646.613 124.869C646.788 128.2 646.934 131.502 647.051 134.776L649.05 134.704ZM648.61 124.764L650.609 124.694C650.373 117.964 650.078 111.41 649.723 105.033L647.727 105.144L645.73 105.254C646.082 111.603 646.376 118.13 646.612 124.834L648.61 124.764ZM647.727 105.144L649.725 105.07C649.489 98.7015 649.253 92.9798 649.017 87.9051L647.02 87.998L645.022 88.091C645.257 93.1504 645.492 98.8591 645.728 105.218L647.727 105.144ZM647.02 87.998L649.017 87.9072C648.781 82.7136 648.545 78.4525 648.307 75.129L646.312 75.2715L644.318 75.414C644.552 78.6895 644.786 82.9127 645.022 88.0889L647.02 87.998ZM646.312 75.2715L648.307 75.129C648.189 73.4736 648.085 72.1605 647.994 71.1961C647.911 70.3076 647.826 69.5458 647.723 69.1302L645.782 69.6152L643.842 70.1003C643.839 70.0883 643.86 70.186 643.897 70.482C643.93 70.7478 643.969 71.1082 644.012 71.5695C644.098 72.4906 644.2 73.7699 644.318 75.414L646.312 75.2715ZM645.782 69.6152L647.68 68.9828C647.349 67.9908 646.794 67.0689 646.081 66.2138L644.545 67.4941L643.008 68.7745C643.474 69.3335 643.744 69.8256 643.885 70.2477L645.782 69.6152ZM644.545 67.4941L646.081 66.2138C644.623 64.4637 642.305 62.9566 639.368 61.6106L638.535 63.4287L637.702 65.2468C640.421 66.4933 642.11 67.6964 643.008 68.7745L644.545 67.4941ZM638.535 63.4287L639.029 65.3667C645.046 63.8329 649.672 62.5881 652.89 61.6344L652.322 59.7168L651.754 57.7992C648.61 58.7309 644.043 59.9607 638.041 61.4907L638.535 63.4287ZM652.322 59.7168L652.807 61.6571C654.728 61.1768 656.429 60.6916 657.904 60.2001L657.271 58.3027L656.639 56.4054C655.286 56.8565 653.687 57.3141 651.837 57.7765L652.322 59.7168ZM657.271 58.3027L657.955 60.1823L661.844 58.7683L661.16 56.8887L660.477 55.0091L656.588 56.4231L657.271 58.3027ZM661.16 56.8887L661.972 58.7163C663.039 58.2422 664.223 57.7096 665.523 57.1186L664.695 55.2979L663.868 53.4771C662.575 54.0645 661.402 54.5924 660.348 55.061L661.16 56.8887ZM664.695 55.2979L665.653 57.0536C667.035 56.3 668.305 55.4759 669.458 54.5787L668.23 53L667.003 51.4213C666.035 52.1738 664.948 52.8817 663.738 53.5421L664.695 55.2979Z" fill="black" mask="url(#path-14-outside-2_77_52)"/>
<mask id="path-16-outside-3_77_52" maskUnits="userSpaceOnUse" x="681.533" y="48" width="46" height="149" fill="black">
<rect fill="white" x="681.533" y="48" width="46" height="149"/>
<path d="M713.535 105.82C713.56 110.488 713.612 115.212 713.693 119.991C713.811 126.944 714.047 133.719 714.4 140.318C714.754 146.917 715.107 152.927 715.461 158.348C715.932 163.65 716.345 168.187 716.698 171.958C717.17 175.611 717.523 177.968 717.759 179.028C718.23 180.796 718.702 182.505 719.173 184.154C719.644 185.568 720.175 187.041 720.764 188.573C721.353 190.223 722.06 191.519 722.885 192.462H705.739C704.208 192.462 702.734 192.521 701.32 192.639C700.024 192.757 698.669 192.874 697.255 192.992C695.841 193.11 694.544 193.287 693.366 193.522C694.545 191.755 695.487 190.105 696.194 188.573C696.901 187.041 697.491 185.745 697.962 184.685C698.433 183.388 698.787 182.21 699.022 181.149C699.14 180.442 699.199 178.38 699.199 174.963C699.199 171.546 699.081 167.244 698.846 162.06C698.728 156.875 698.551 151.042 698.315 144.561C698.198 138.079 697.962 131.48 697.608 124.764C697.579 123.924 697.545 123.088 697.514 122.254C702.043 118.126 706.385 113.779 710.52 109.224L711.418 108.228C712.131 107.431 712.836 106.628 713.535 105.82ZM717.229 53C716.639 56.4173 716.168 59.7168 715.814 62.8984C715.461 66.0801 715.166 69.0261 714.931 71.7363C714.712 74.5744 714.595 77.3114 714.579 79.9473C710.209 86.3258 705.424 92.4329 700.241 98.2227C699.05 99.5529 697.838 100.862 696.61 102.154C696.412 96.9774 696.216 92.2586 696.018 87.998C695.782 82.8132 695.546 78.571 695.311 75.2715C695.075 71.9723 694.898 70.0868 694.78 69.6152C694.545 68.9083 694.132 68.2011 693.543 67.4941C692.365 66.0801 690.36 64.7249 687.532 63.4287C693.542 61.8968 698.139 60.6595 701.32 59.7168C703.206 59.2455 704.856 58.7741 706.27 58.3027L710.158 56.8887C711.219 56.4174 712.397 55.887 713.693 55.2979C714.989 54.5909 716.168 53.8248 717.229 53Z"/>
</mask>
<path d="M713.535 105.82C713.56 110.488 713.612 115.212 713.693 119.991C713.811 126.944 714.047 133.719 714.4 140.318C714.754 146.917 715.107 152.927 715.461 158.348C715.932 163.65 716.345 168.187 716.698 171.958C717.17 175.611 717.523 177.968 717.759 179.028C718.23 180.796 718.702 182.505 719.173 184.154C719.644 185.568 720.175 187.041 720.764 188.573C721.353 190.223 722.06 191.519 722.885 192.462H705.739C704.208 192.462 702.734 192.521 701.32 192.639C700.024 192.757 698.669 192.874 697.255 192.992C695.841 193.11 694.544 193.287 693.366 193.522C694.545 191.755 695.487 190.105 696.194 188.573C696.901 187.041 697.491 185.745 697.962 184.685C698.433 183.388 698.787 182.21 699.022 181.149C699.14 180.442 699.199 178.38 699.199 174.963C699.199 171.546 699.081 167.244 698.846 162.06C698.728 156.875 698.551 151.042 698.315 144.561C698.198 138.079 697.962 131.48 697.608 124.764C697.579 123.924 697.545 123.088 697.514 122.254C702.043 118.126 706.385 113.779 710.52 109.224L711.418 108.228C712.131 107.431 712.836 106.628 713.535 105.82ZM717.229 53C716.639 56.4173 716.168 59.7168 715.814 62.8984C715.461 66.0801 715.166 69.0261 714.931 71.7363C714.712 74.5744 714.595 77.3114 714.579 79.9473C710.209 86.3258 705.424 92.4329 700.241 98.2227C699.05 99.5529 697.838 100.862 696.61 102.154C696.412 96.9774 696.216 92.2586 696.018 87.998C695.782 82.8132 695.546 78.571 695.311 75.2715C695.075 71.9723 694.898 70.0868 694.78 69.6152C694.545 68.9083 694.132 68.2011 693.543 67.4941C692.365 66.0801 690.36 64.7249 687.532 63.4287C693.542 61.8968 698.139 60.6595 701.32 59.7168C703.206 59.2455 704.856 58.7741 706.27 58.3027L710.158 56.8887C711.219 56.4174 712.397 55.887 713.693 55.2979C714.989 54.5909 716.168 53.8248 717.229 53Z" fill="black"/>
<path d="M713.535 105.82L715.535 105.809L715.506 100.489L712.023 104.511L713.535 105.82ZM713.693 119.991L711.694 120.025L713.693 119.991ZM714.4 140.318L712.403 140.425L714.4 140.318ZM715.461 158.348L713.465 158.478L713.467 158.501L713.469 158.525L715.461 158.348ZM716.698 171.958L714.707 172.145L714.71 172.179L714.715 172.214L716.698 171.958ZM717.759 179.028L715.806 179.462L715.816 179.503L715.826 179.544L717.759 179.028ZM719.173 184.154L717.25 184.704L717.262 184.746L717.275 184.787L719.173 184.154ZM720.764 188.573L722.647 187.901L722.639 187.878L722.63 187.855L720.764 188.573ZM722.885 192.462V194.462H727.292L724.39 191.145L722.885 192.462ZM701.32 192.639L701.154 190.646L701.147 190.646L701.139 190.647L701.32 192.639ZM697.255 192.992L697.421 194.985L697.421 194.985L697.255 192.992ZM693.366 193.522L691.702 192.413L689.024 196.43L693.758 195.484L693.366 193.522ZM696.194 188.573L698.01 189.411L698.01 189.411L696.194 188.573ZM697.962 184.685L699.79 185.497L699.818 185.433L699.842 185.368L697.962 184.685ZM699.022 181.149L700.975 181.583L700.986 181.531L700.995 181.478L699.022 181.149ZM698.846 162.06L696.846 162.105L696.847 162.128L696.848 162.15L698.846 162.06ZM698.315 144.561L696.316 144.597L696.316 144.615L696.317 144.633L698.315 144.561ZM697.608 124.764L695.61 124.834L695.61 124.851L695.611 124.869L697.608 124.764ZM697.514 122.254L696.166 120.776L695.48 121.401L695.515 122.329L697.514 122.254ZM710.52 109.224L712 110.568L712.005 110.563L710.52 109.224ZM711.418 108.228L712.903 109.567L712.908 109.561L711.418 108.228ZM717.229 53L719.199 53.3398L720.077 48.2509L716.001 51.4213L717.229 53ZM715.814 62.8984L713.827 62.6776L713.827 62.6776L715.814 62.8984ZM714.931 71.7363L712.938 71.5631L712.937 71.573L712.937 71.5829L714.931 71.7363ZM714.579 79.9473L716.229 81.0776L716.575 80.5721L716.579 79.9595L714.579 79.9473ZM700.241 98.2227L701.731 99.5566L701.731 99.5566L700.241 98.2227ZM696.61 102.154L694.612 102.231L694.793 106.969L698.06 103.532L696.61 102.154ZM696.018 87.998L694.02 88.0889L694.02 88.091L696.018 87.998ZM695.311 75.2715L697.305 75.129L697.305 75.129L695.311 75.2715ZM694.78 69.6152L696.721 69.1303L696.702 69.0557L696.678 68.9828L694.78 69.6152ZM693.543 67.4941L695.079 66.2138L695.079 66.2138L693.543 67.4941ZM687.532 63.4287L687.038 61.4907L681.554 62.8887L686.699 65.2468L687.532 63.4287ZM701.32 59.7168L700.835 57.7765L700.793 57.787L700.752 57.7992L701.32 59.7168ZM706.27 58.3027L706.902 60.2001L706.928 60.1916L706.953 60.1823L706.27 58.3027ZM710.158 56.8887L710.842 58.7683L710.907 58.7445L710.97 58.7163L710.158 56.8887ZM713.693 55.2979L714.521 57.1186L714.587 57.0885L714.651 57.0536L713.693 55.2979ZM713.535 105.82L711.535 105.831C711.561 110.507 711.613 115.238 711.694 120.025L713.693 119.991L715.693 119.957C715.612 115.186 715.56 110.47 715.535 105.809L713.535 105.82ZM713.693 119.991L711.694 120.025C711.812 127.001 712.048 133.801 712.403 140.425L714.4 140.318L716.398 140.211C716.045 133.638 715.811 126.887 715.693 119.957L713.693 119.991ZM714.4 140.318L712.403 140.425C712.757 147.03 713.111 153.048 713.465 158.478L715.461 158.348L717.457 158.217C717.104 152.806 716.751 146.804 716.398 140.211L714.4 140.318ZM715.461 158.348L713.469 158.525C713.94 163.829 714.353 168.37 714.707 172.145L716.698 171.958L718.69 171.771C718.336 168.005 717.924 163.471 717.453 158.171L715.461 158.348ZM716.698 171.958L714.715 172.214C715.183 175.844 715.547 178.296 715.806 179.462L717.759 179.028L719.711 178.594C719.499 177.639 719.156 175.378 718.682 171.702L716.698 171.958ZM717.759 179.028L715.826 179.544C716.301 181.322 716.775 183.042 717.25 184.704L719.173 184.154L721.096 183.605C720.628 181.967 720.16 180.27 719.691 178.513L717.759 179.028ZM719.173 184.154L717.275 184.787C717.757 186.232 718.298 187.734 718.897 189.291L720.764 188.573L722.63 187.855C722.051 186.349 721.531 184.904 721.07 183.522L719.173 184.154ZM720.764 188.573L718.88 189.246C719.523 191.045 720.338 192.588 721.38 193.779L722.885 192.462L724.39 191.145C723.782 190.45 723.183 189.401 722.647 187.901L720.764 188.573ZM722.885 192.462V190.462H705.739V192.462V194.462H722.885V192.462ZM705.739 192.462V190.462C704.156 190.462 702.628 190.523 701.154 190.646L701.32 192.639L701.486 194.632C702.841 194.519 704.259 194.462 705.739 194.462V192.462ZM701.32 192.639L701.139 190.647C699.849 190.764 698.498 190.882 697.089 190.999L697.255 192.992L697.421 194.985C698.839 194.867 700.2 194.749 701.501 194.63L701.32 192.639ZM697.255 192.992L697.089 190.999C695.612 191.122 694.239 191.308 692.974 191.561L693.366 193.522L693.758 195.484C694.85 195.265 696.07 195.098 697.421 194.985L697.255 192.992ZM693.366 193.522L695.03 194.632C696.252 192.799 697.25 191.058 698.01 189.411L696.194 188.573L694.378 187.735C693.724 189.152 692.837 190.711 691.702 192.413L693.366 193.522ZM696.194 188.573L698.01 189.411C698.72 187.874 699.313 186.569 699.79 185.497L697.962 184.685L696.134 183.872C695.668 184.921 695.083 186.208 694.378 187.735L696.194 188.573ZM697.962 184.685L699.842 185.368C700.335 184.011 700.716 182.747 700.975 181.583L699.022 181.149L697.07 180.716C696.857 181.672 696.531 182.766 696.082 184.001L697.962 184.685ZM699.022 181.149L700.995 181.478C701.147 180.566 701.199 178.299 701.199 174.963H699.199H697.199C697.199 178.461 697.133 180.318 697.05 180.821L699.022 181.149ZM699.199 174.963H701.199C701.199 171.504 701.08 167.17 700.844 161.969L698.846 162.06L696.848 162.15C697.083 167.319 697.199 171.587 697.199 174.963H699.199ZM698.846 162.06L700.845 162.014C700.727 156.818 700.55 150.976 700.314 144.488L698.315 144.561L696.317 144.633C696.552 151.107 696.729 156.931 696.846 162.105L698.846 162.06ZM698.315 144.561L700.315 144.524C700.197 138.019 699.96 131.397 699.606 124.659L697.608 124.764L695.611 124.869C695.964 131.564 696.198 138.14 696.316 144.597L698.315 144.561ZM697.608 124.764L699.607 124.694C699.578 123.852 699.543 123.004 699.512 122.179L697.514 122.254L695.515 122.329C695.547 123.172 695.58 123.997 695.61 124.834L697.608 124.764ZM697.514 122.254L698.861 123.732C703.437 119.562 707.823 115.17 712 110.568L710.52 109.224L709.039 107.879C704.946 112.388 700.65 116.69 696.166 120.776L697.514 122.254ZM710.52 109.224L712.005 110.563L712.903 109.567L711.418 108.228L709.933 106.888L709.034 107.884L710.52 109.224ZM711.418 108.228L712.908 109.561C713.63 108.755 714.342 107.944 715.047 107.13L713.535 105.82L712.023 104.511C711.33 105.312 710.632 106.107 709.928 106.894L711.418 108.228ZM717.229 53L715.258 52.6602C714.662 56.1137 714.185 59.453 713.827 62.6776L715.814 62.8984L717.802 63.1193C718.151 59.9806 718.616 56.7209 719.199 53.3398L717.229 53ZM715.814 62.8984L713.827 62.6776C713.472 65.8724 713.175 68.8344 712.938 71.5631L714.931 71.7363L716.923 71.9096C717.157 69.2177 717.45 66.2878 717.802 63.1193L715.814 62.8984ZM714.931 71.7363L712.937 71.5829C712.715 74.4643 712.596 77.2485 712.579 79.9351L714.579 79.9473L716.579 79.9595C716.595 77.3743 716.71 74.6845 716.925 71.8897L714.931 71.7363ZM714.579 79.9473L712.929 78.817C708.608 85.1248 703.876 91.1639 698.751 96.8887L700.241 98.2227L701.731 99.5566C706.972 93.7019 711.811 87.5267 716.229 81.0776L714.579 79.9473ZM700.241 98.2227L698.751 96.8887C697.575 98.2024 696.377 99.497 695.161 100.776L696.61 102.154L698.06 103.532C699.3 102.227 700.526 100.903 701.731 99.5566L700.241 98.2227ZM696.61 102.154L698.609 102.078C698.411 96.897 698.214 92.1726 698.015 87.9051L696.018 87.998L694.02 88.091C694.218 92.3446 694.414 97.0577 694.612 102.231L696.61 102.154ZM696.018 87.998L698.016 87.9072C697.779 82.7136 697.543 78.4525 697.305 75.129L695.311 75.2715L693.316 75.414C693.55 78.6895 693.784 82.9127 694.02 88.0889L696.018 87.998ZM695.311 75.2715L697.305 75.129C697.187 73.4737 697.083 72.1606 696.992 71.1963C696.909 70.3076 696.824 69.546 696.721 69.1303L694.78 69.6152L692.84 70.1001C692.837 70.0882 692.858 70.1861 692.895 70.4821C692.928 70.748 692.967 71.1083 693.01 71.5697C693.096 72.4908 693.198 73.77 693.316 75.414L695.311 75.2715ZM694.78 69.6152L696.678 68.9828C696.347 67.9908 695.792 67.0688 695.079 66.2138L693.543 67.4941L692.006 68.7745C692.472 69.3334 692.742 69.8257 692.883 70.2477L694.78 69.6152ZM693.543 67.4941L695.079 66.2138C693.621 64.4636 691.302 62.9564 688.366 61.6106L687.532 63.4287L686.699 65.2468C689.419 66.4934 691.108 67.6966 692.007 68.7745L693.543 67.4941ZM687.532 63.4287L688.026 65.3667C694.043 63.8329 698.67 62.5881 701.888 61.6344L701.32 59.7168L700.752 57.7992C697.608 58.7309 693.041 59.9607 687.038 61.4907L687.532 63.4287ZM701.32 59.7168L701.805 61.6571C703.726 61.1768 705.427 60.6916 706.902 60.2001L706.27 58.3027L705.637 56.4054C704.284 56.8565 702.685 57.3141 700.835 57.7765L701.32 59.7168ZM706.27 58.3027L706.953 60.1823L710.842 58.7683L710.158 56.8887L709.475 55.0091L705.586 56.4231L706.27 58.3027ZM710.158 56.8887L710.97 58.7163C712.037 58.2423 713.221 57.7095 714.521 57.1186L713.693 55.2979L712.866 53.4771C711.574 54.0644 710.4 54.5925 709.346 55.061L710.158 56.8887ZM713.693 55.2979L714.651 57.0536C716.033 56.3 717.303 55.4758 718.456 54.5787L717.229 53L716.001 51.4213C715.033 52.1737 713.946 52.8817 712.736 53.5421L713.693 55.2979Z" fill="black" mask="url(#path-16-outside-3_77_52)"/>
</svg>
