<svg width="175" height="34" viewBox="0 0 175 34" fill="none" xmlns="http://www.w3.org/2000/svg">
<g clip-path="url(#clip0_3715_209)">
<path d="M45.5648 29.826V24.855L45.7743 22.353C45.1922 22.8798 44.5168 23.3188 43.7482 23.6699C42.9797 23.9991 42.1997 24.1637 41.4077 24.1637C40.3365 24.1637 39.3584 23.9661 38.4734 23.5711C37.6117 23.176 36.8665 22.6164 36.2377 21.8921C35.6322 21.146 35.1548 20.2461 34.8055 19.1927C34.4794 18.1392 34.3164 16.943 34.3164 15.6043C34.3164 14.2656 34.5144 13.0694 34.9103 12.016C35.3295 10.9625 35.8651 10.0737 36.5172 9.34943C37.1926 8.60323 37.9611 8.03261 38.8227 7.63756C39.7077 7.24251 40.6043 7.04499 41.5125 7.04499C42.4674 7.04499 43.3058 7.20959 44.0277 7.5388C44.7498 7.84606 45.4484 8.35083 46.1237 9.05314H46.2634L46.6826 7.44004H50.6999V29.826H45.5648ZM42.7352 20.2132C43.2941 20.2132 43.7949 20.1034 44.2373 19.884C44.7031 19.6646 45.1456 19.2804 45.5648 18.7318V12.0489C45.0991 11.6539 44.6216 11.3795 44.1325 11.2259C43.6434 11.0723 43.1661 10.9955 42.7003 10.9955C41.8853 10.9955 41.1632 11.3686 40.5344 12.1148C39.9056 12.839 39.5912 13.9802 39.5912 15.5385C39.5912 17.1626 39.8592 18.3478 40.3947 19.0939C40.9536 19.84 41.7338 20.2132 42.7352 20.2132ZM59.7561 24.1637C57.8697 24.1637 56.4956 23.5821 55.634 22.4189C54.7956 21.2556 54.3764 19.6425 54.3764 17.5796V7.44004H59.5115V16.9541C59.5115 18.1392 59.6862 18.9512 60.0355 19.3902C60.3849 19.8292 60.9321 20.0486 61.6774 20.0486C62.3294 20.0486 62.8766 19.9059 63.3192 19.6206C63.7617 19.3354 64.239 18.8745 64.7515 18.238V7.44004H69.8866V23.7686H65.6947L65.3104 21.4971H65.2056C64.4603 22.3311 63.6569 22.9895 62.7952 23.4723C61.9568 23.9332 60.9438 24.1637 59.7561 24.1637ZM78.0735 24.1637C77.2816 24.1637 76.5597 24.032 75.9077 23.7686C75.2789 23.5271 74.7432 23.1871 74.3007 22.7481C73.8581 22.2872 73.5088 21.7605 73.2528 21.1679C73.0198 20.5753 72.9034 19.9279 72.9034 19.2256C72.9034 17.5137 73.672 16.175 75.209 15.2093C76.746 14.2436 79.2263 13.5962 82.6497 13.267C82.6031 12.5427 82.3702 11.972 81.9511 11.5551C81.5551 11.1161 80.8797 10.8967 79.9249 10.8967C79.1796 10.8967 78.4344 11.0284 77.6892 11.2917C76.9672 11.5551 76.1871 11.9172 75.3487 12.3781L73.4973 9.18482C74.6151 8.54836 75.7795 8.03261 76.9906 7.63756C78.2248 7.24251 79.529 7.04499 80.9031 7.04499C83.1388 7.04499 84.8388 7.64854 86.0033 8.85562C87.191 10.0408 87.7849 11.8953 87.7849 14.4192V23.7686H83.5929L83.2436 22.0897H83.1038C82.3585 22.7041 81.5783 23.209 80.7633 23.604C79.9482 23.9772 79.0516 24.1637 78.0735 24.1637ZM79.8201 20.4107C80.4023 20.4107 80.9031 20.2901 81.3223 20.0486C81.7415 19.8071 82.1839 19.4671 82.6497 19.0281V16.164C80.8332 16.4054 79.5756 16.7565 78.8769 17.2174C78.1783 17.6783 77.829 18.2269 77.829 18.8635C77.829 19.3902 78.0036 19.7852 78.353 20.0486C78.7255 20.2901 79.2146 20.4107 79.8201 20.4107ZM97.6129 24.1637C96.5417 24.1637 95.5635 23.9661 94.6785 23.5711C93.8169 23.176 93.0716 22.6164 92.4428 21.8921C91.8374 21.146 91.3599 20.2461 91.0106 19.1927C90.6846 18.1392 90.5215 16.943 90.5215 15.6043C90.5215 14.2656 90.7196 13.0694 91.1153 12.016C91.5345 10.9625 92.0702 10.0737 92.7223 9.34943C93.3977 8.60323 94.1662 8.03261 95.0278 7.63756C95.9129 7.24251 96.8094 7.04499 97.7177 7.04499C98.6958 7.04499 99.4993 7.19861 100.128 7.50588C100.757 7.81314 101.374 8.23013 101.979 8.75686L101.77 6.2549V0.691331H106.905V23.7686H102.713L102.364 22.1555H102.224C101.619 22.7262 100.908 23.209 100.093 23.604C99.2781 23.9772 98.4513 24.1637 97.6129 24.1637ZM98.9403 20.2132C99.4993 20.2132 100 20.1034 100.442 19.884C100.908 19.6646 101.351 19.2804 101.77 18.7318V12.0489C101.304 11.6539 100.827 11.3795 100.338 11.2259C99.8486 11.0723 99.3712 10.9955 98.9054 10.9955C98.0904 10.9955 97.3683 11.3686 96.7396 12.1148C96.1108 12.839 95.7964 13.9802 95.7964 15.5385C95.7964 17.1626 96.0643 18.3478 96.5998 19.0939C97.1587 19.84 97.939 20.2132 98.9403 20.2132ZM110.756 23.7686V7.44004H114.948L115.297 10.3041H115.437C116.066 9.18482 116.823 8.36181 117.708 7.83508C118.593 7.30835 119.478 7.04499 120.363 7.04499C120.852 7.04499 121.248 7.07791 121.55 7.14375C121.876 7.18765 122.168 7.26446 122.424 7.3742L121.585 11.5551C121.259 11.4674 120.957 11.4015 120.677 11.3576C120.398 11.3136 120.072 11.2917 119.699 11.2917C119.047 11.2917 118.36 11.5112 117.638 11.9501C116.939 12.3891 116.357 13.1682 115.891 14.2875V23.7686H110.756ZM127.353 24.1637C126.562 24.1637 125.84 24.032 125.188 23.7686C124.559 23.5271 124.023 23.1871 123.581 22.7481C123.138 22.2872 122.789 21.7605 122.533 21.1679C122.3 20.5753 122.183 19.9279 122.183 19.2256C122.183 17.5137 122.952 16.175 124.489 15.2093C126.026 14.2436 128.506 13.5962 131.93 13.267C131.883 12.5427 131.65 11.972 131.231 11.5551C130.835 11.1161 130.16 10.8967 129.205 10.8967C128.46 10.8967 127.714 11.0284 126.969 11.2917C126.247 11.5551 125.467 11.9172 124.629 12.3781L122.777 9.18482C123.895 8.54836 125.059 8.03261 126.27 7.63756C127.505 7.24251 128.809 7.04499 130.183 7.04499C132.419 7.04499 134.119 7.64854 135.283 8.85562C136.471 10.0408 137.065 11.8953 137.065 14.4192V23.7686H132.873L132.523 22.0897H132.384C131.639 22.7041 130.858 23.209 130.043 23.604C129.228 23.9772 128.331 24.1637 127.353 24.1637ZM129.1 20.4107C129.682 20.4107 130.183 20.2901 130.602 20.0486C131.021 19.8071 131.464 19.4671 131.93 19.0281V16.164C130.113 16.4054 128.855 16.7565 128.157 17.2174C127.458 17.6783 127.109 18.2269 127.109 18.8635C127.109 19.3902 127.284 19.7852 127.633 20.0486C128.006 20.2901 128.495 20.4107 129.1 20.4107ZM146.768 24.1637C145.697 24.1637 144.777 24.0101 144.008 23.7028C143.263 23.3955 142.646 22.9675 142.157 22.4189C141.691 21.8703 141.342 21.2118 141.109 20.4436C140.899 19.6535 140.794 18.7866 140.794 17.8429V11.2259H138.419V7.63756L141.074 7.44004L141.668 3.09453H145.929V7.44004H150.086V11.2259H145.929V17.7771C145.929 18.6989 146.128 19.3683 146.523 19.7852C146.943 20.1803 147.49 20.3778 148.165 20.3778C148.445 20.3778 148.724 20.3449 149.004 20.279C149.306 20.2132 149.574 20.1363 149.807 20.0486L150.61 23.5711C150.145 23.7028 149.597 23.8345 148.969 23.9661C148.34 24.0978 147.606 24.1637 146.768 24.1637ZM152.77 23.7686V7.44004H157.905V23.7686H152.77ZM155.32 5.03684C154.458 5.03684 153.748 4.8064 153.189 4.34551C152.63 3.86268 152.351 3.24815 152.351 2.50196C152.351 1.75577 152.63 1.15222 153.189 0.691331C153.748 0.230444 154.458 0 155.32 0C156.205 0 156.915 0.230444 157.451 0.691331C158.01 1.15222 158.289 1.75577 158.289 2.50196C158.289 3.24815 158.01 3.86268 157.451 4.34551C156.915 4.8064 156.205 5.03684 155.32 5.03684ZM169.271 24.1637C168.06 24.1637 166.93 23.9772 165.882 23.604C164.858 23.209 163.961 22.6493 163.193 21.9251C162.424 21.2008 161.819 20.312 161.376 19.2585C160.934 18.1832 160.712 16.9651 160.712 15.6043C160.712 14.2436 160.957 13.0365 161.446 11.9831C161.935 10.9077 162.587 10.0078 163.402 9.28359C164.241 8.55933 165.207 8.01066 166.302 7.63756C167.396 7.24251 168.537 7.04499 169.725 7.04499C170.796 7.04499 171.74 7.20959 172.555 7.5388C173.393 7.868 174.138 8.28499 174.79 8.78978L172.38 11.9172C171.565 11.2807 170.785 10.9625 170.039 10.9625C168.782 10.9625 167.792 11.3795 167.07 12.2135C166.348 13.0476 165.987 14.1777 165.987 15.6043C165.987 17.0309 166.348 18.1611 167.07 18.9951C167.815 19.8292 168.747 20.2461 169.865 20.2461C170.424 20.2461 170.959 20.1363 171.472 19.9169C172.007 19.6754 172.508 19.3902 172.974 19.061L175 22.2213C174.138 22.9237 173.207 23.4284 172.205 23.7357C171.204 24.021 170.226 24.1637 169.271 24.1637Z" fill="#5D576B" style="fill:#5D576B;fill:color(display-p3 0.3647 0.3412 0.4196);fill-opacity:1;"/>
<path d="M45.5648 29.826V24.855L45.7743 22.353C45.1922 22.8798 44.5168 23.3188 43.7482 23.6699C42.9797 23.9991 42.1997 24.1637 41.4077 24.1637C40.3365 24.1637 39.3584 23.9661 38.4734 23.5711C37.6117 23.176 36.8665 22.6164 36.2377 21.8921C35.6322 21.146 35.1548 20.2461 34.8055 19.1927C34.4794 18.1392 34.3164 16.943 34.3164 15.6043C34.3164 14.2656 34.5144 13.0694 34.9103 12.016C35.3295 10.9625 35.8651 10.0737 36.5172 9.34943C37.1926 8.60323 37.9611 8.03261 38.8227 7.63756C39.7077 7.24251 40.6043 7.04499 41.5125 7.04499C42.4674 7.04499 43.3058 7.20959 44.0277 7.5388C44.7498 7.84606 45.4484 8.35083 46.1237 9.05314H46.2634L46.6826 7.44004H50.6999V29.826H45.5648ZM42.7352 20.2132C43.2941 20.2132 43.7949 20.1034 44.2373 19.884C44.7031 19.6646 45.1456 19.2804 45.5648 18.7318V12.0489C45.0991 11.6539 44.6216 11.3795 44.1325 11.2259C43.6434 11.0723 43.1661 10.9955 42.7003 10.9955C41.8853 10.9955 41.1632 11.3686 40.5344 12.1148C39.9056 12.839 39.5912 13.9802 39.5912 15.5385C39.5912 17.1626 39.8592 18.3478 40.3947 19.0939C40.9536 19.84 41.7338 20.2132 42.7352 20.2132ZM59.7561 24.1637C57.8697 24.1637 56.4956 23.5821 55.634 22.4189C54.7956 21.2556 54.3764 19.6425 54.3764 17.5796V7.44004H59.5115V16.9541C59.5115 18.1392 59.6862 18.9512 60.0355 19.3902C60.3849 19.8292 60.9321 20.0486 61.6774 20.0486C62.3294 20.0486 62.8766 19.9059 63.3192 19.6206C63.7617 19.3354 64.239 18.8745 64.7515 18.238V7.44004H69.8866V23.7686H65.6947L65.3104 21.4971H65.2056C64.4603 22.3311 63.6569 22.9895 62.7952 23.4723C61.9568 23.9332 60.9438 24.1637 59.7561 24.1637ZM78.0735 24.1637C77.2816 24.1637 76.5597 24.032 75.9077 23.7686C75.2789 23.5271 74.7432 23.1871 74.3007 22.7481C73.8581 22.2872 73.5088 21.7605 73.2528 21.1679C73.0198 20.5753 72.9034 19.9279 72.9034 19.2256C72.9034 17.5137 73.672 16.175 75.209 15.2093C76.746 14.2436 79.2263 13.5962 82.6497 13.267C82.6031 12.5427 82.3702 11.972 81.9511 11.5551C81.5551 11.1161 80.8797 10.8967 79.9249 10.8967C79.1796 10.8967 78.4344 11.0284 77.6892 11.2917C76.9672 11.5551 76.1871 11.9172 75.3487 12.3781L73.4973 9.18482C74.6151 8.54836 75.7795 8.03261 76.9906 7.63756C78.2248 7.24251 79.529 7.04499 80.9031 7.04499C83.1388 7.04499 84.8388 7.64854 86.0033 8.85562C87.191 10.0408 87.7849 11.8953 87.7849 14.4192V23.7686H83.5929L83.2436 22.0897H83.1038C82.3585 22.7041 81.5783 23.209 80.7633 23.604C79.9482 23.9772 79.0516 24.1637 78.0735 24.1637ZM79.8201 20.4107C80.4023 20.4107 80.9031 20.2901 81.3223 20.0486C81.7415 19.8071 82.1839 19.4671 82.6497 19.0281V16.164C80.8332 16.4054 79.5756 16.7565 78.8769 17.2174C78.1783 17.6783 77.829 18.2269 77.829 18.8635C77.829 19.3902 78.0036 19.7852 78.353 20.0486C78.7255 20.2901 79.2146 20.4107 79.8201 20.4107ZM97.6129 24.1637C96.5417 24.1637 95.5635 23.9661 94.6785 23.5711C93.8169 23.176 93.0716 22.6164 92.4428 21.8921C91.8374 21.146 91.3599 20.2461 91.0106 19.1927C90.6846 18.1392 90.5215 16.943 90.5215 15.6043C90.5215 14.2656 90.7196 13.0694 91.1153 12.016C91.5345 10.9625 92.0702 10.0737 92.7223 9.34943C93.3977 8.60323 94.1662 8.03261 95.0278 7.63756C95.9129 7.24251 96.8094 7.04499 97.7177 7.04499C98.6958 7.04499 99.4993 7.19861 100.128 7.50588C100.757 7.81314 101.374 8.23013 101.979 8.75686L101.77 6.2549V0.691331H106.905V23.7686H102.713L102.364 22.1555H102.224C101.619 22.7262 100.908 23.209 100.093 23.604C99.2781 23.9772 98.4513 24.1637 97.6129 24.1637ZM98.9403 20.2132C99.4993 20.2132 100 20.1034 100.442 19.884C100.908 19.6646 101.351 19.2804 101.77 18.7318V12.0489C101.304 11.6539 100.827 11.3795 100.338 11.2259C99.8486 11.0723 99.3712 10.9955 98.9054 10.9955C98.0904 10.9955 97.3683 11.3686 96.7396 12.1148C96.1108 12.839 95.7964 13.9802 95.7964 15.5385C95.7964 17.1626 96.0643 18.3478 96.5998 19.0939C97.1587 19.84 97.939 20.2132 98.9403 20.2132ZM110.756 23.7686V7.44004H114.948L115.297 10.3041H115.437C116.066 9.18482 116.823 8.36181 117.708 7.83508C118.593 7.30835 119.478 7.04499 120.363 7.04499C120.852 7.04499 121.248 7.07791 121.55 7.14375C121.876 7.18765 122.168 7.26446 122.424 7.3742L121.585 11.5551C121.259 11.4674 120.957 11.4015 120.677 11.3576C120.398 11.3136 120.072 11.2917 119.699 11.2917C119.047 11.2917 118.36 11.5112 117.638 11.9501C116.939 12.3891 116.357 13.1682 115.891 14.2875V23.7686H110.756ZM127.353 24.1637C126.562 24.1637 125.84 24.032 125.188 23.7686C124.559 23.5271 124.023 23.1871 123.581 22.7481C123.138 22.2872 122.789 21.7605 122.533 21.1679C122.3 20.5753 122.183 19.9279 122.183 19.2256C122.183 17.5137 122.952 16.175 124.489 15.2093C126.026 14.2436 128.506 13.5962 131.93 13.267C131.883 12.5427 131.65 11.972 131.231 11.5551C130.835 11.1161 130.16 10.8967 129.205 10.8967C128.46 10.8967 127.714 11.0284 126.969 11.2917C126.247 11.5551 125.467 11.9172 124.629 12.3781L122.777 9.18482C123.895 8.54836 125.059 8.03261 126.27 7.63756C127.505 7.24251 128.809 7.04499 130.183 7.04499C132.419 7.04499 134.119 7.64854 135.283 8.85562C136.471 10.0408 137.065 11.8953 137.065 14.4192V23.7686H132.873L132.523 22.0897H132.384C131.639 22.7041 130.858 23.209 130.043 23.604C129.228 23.9772 128.331 24.1637 127.353 24.1637ZM129.1 20.4107C129.682 20.4107 130.183 20.2901 130.602 20.0486C131.021 19.8071 131.464 19.4671 131.93 19.0281V16.164C130.113 16.4054 128.855 16.7565 128.157 17.2174C127.458 17.6783 127.109 18.2269 127.109 18.8635C127.109 19.3902 127.284 19.7852 127.633 20.0486C128.006 20.2901 128.495 20.4107 129.1 20.4107ZM146.768 24.1637C145.697 24.1637 144.777 24.0101 144.008 23.7028C143.263 23.3955 142.646 22.9675 142.157 22.4189C141.691 21.8703 141.342 21.2118 141.109 20.4436C140.899 19.6535 140.794 18.7866 140.794 17.8429V11.2259H138.419V7.63756L141.074 7.44004L141.668 3.09453H145.929V7.44004H150.086V11.2259H145.929V17.7771C145.929 18.6989 146.128 19.3683 146.523 19.7852C146.943 20.1803 147.49 20.3778 148.165 20.3778C148.445 20.3778 148.724 20.3449 149.004 20.279C149.306 20.2132 149.574 20.1363 149.807 20.0486L150.61 23.5711C150.145 23.7028 149.597 23.8345 148.969 23.9661C148.34 24.0978 147.606 24.1637 146.768 24.1637ZM152.77 23.7686V7.44004H157.905V23.7686H152.77ZM155.32 5.03684C154.458 5.03684 153.748 4.8064 153.189 4.34551C152.63 3.86268 152.351 3.24815 152.351 2.50196C152.351 1.75577 152.63 1.15222 153.189 0.691331C153.748 0.230444 154.458 0 155.32 0C156.205 0 156.915 0.230444 157.451 0.691331C158.01 1.15222 158.289 1.75577 158.289 2.50196C158.289 3.24815 158.01 3.86268 157.451 4.34551C156.915 4.8064 156.205 5.03684 155.32 5.03684ZM169.271 24.1637C168.06 24.1637 166.93 23.9772 165.882 23.604C164.858 23.209 163.961 22.6493 163.193 21.9251C162.424 21.2008 161.819 20.312 161.376 19.2585C160.934 18.1832 160.712 16.9651 160.712 15.6043C160.712 14.2436 160.957 13.0365 161.446 11.9831C161.935 10.9077 162.587 10.0078 163.402 9.28359C164.241 8.55933 165.207 8.01066 166.302 7.63756C167.396 7.24251 168.537 7.04499 169.725 7.04499C170.796 7.04499 171.74 7.20959 172.555 7.5388C173.393 7.868 174.138 8.28499 174.79 8.78978L172.38 11.9172C171.565 11.2807 170.785 10.9625 170.039 10.9625C168.782 10.9625 167.792 11.3795 167.07 12.2135C166.348 13.0476 165.987 14.1777 165.987 15.6043C165.987 17.0309 166.348 18.1611 167.07 18.9951C167.815 19.8292 168.747 20.2461 169.865 20.2461C170.424 20.2461 170.959 20.1363 171.472 19.9169C172.007 19.6754 172.508 19.3902 172.974 19.061L175 22.2213C174.138 22.9237 173.207 23.4284 172.205 23.7357C171.204 24.021 170.226 24.1637 169.271 24.1637Z" fill="#5D576B" style="fill:#5D576B;fill:color(display-p3 0.3647 0.3412 0.4196);fill-opacity:1;"/>
<path d="M0 0.387695H11.0963V10.8448H0V0.387695Z" fill="#CB8999" style="fill:#CB8999;fill:color(display-p3 0.7961 0.5373 0.6000);fill-opacity:1;"/>
<path d="M23.5272 23.625H12.3281V33.598H23.5272V23.625Z" fill="#FFC800" style="fill:#FFC800;fill:color(display-p3 1.0000 0.7843 0.0000);fill-opacity:1;"/>
<path d="M11.0963 12.0059H0V22.5599H11.0963V12.0059Z" fill="#5D576B" style="fill:#5D576B;fill:color(display-p3 0.3647 0.3412 0.4196);fill-opacity:1;"/>
<path d="M23.5272 12.0059H12.3281V22.5599H23.5272V12.0059Z" fill="#6CD4FF" style="fill:#6CD4FF;fill:color(display-p3 0.4235 0.8314 1.0000);fill-opacity:1;"/>
<path d="M23.5292 0.387695H12.3301V10.8448H23.5292V0.387695Z" fill="#8ECB89" style="fill:#8ECB89;fill:color(display-p3 0.5579 0.7958 0.5372);fill-opacity:1;"/>
<path d="M0 0.387695H11.0963V10.8448H0V0.387695Z" fill="#CB8999" style="fill:#CB8999;fill:color(display-p3 0.7961 0.5373 0.6000);fill-opacity:1;"/>
<path d="M23.5272 23.625H12.3281V33.598H23.5272V23.625Z" fill="#FFC800" style="fill:#FFC800;fill:color(display-p3 1.0000 0.7843 0.0000);fill-opacity:1;"/>
<path d="M11.0963 12.0059H0V22.5599H11.0963V12.0059Z" fill="#5D576B" style="fill:#5D576B;fill:color(display-p3 0.3647 0.3412 0.4196);fill-opacity:1;"/>
<path d="M23.5272 12.0059H12.3281V22.5599H23.5272V12.0059Z" fill="#6CD4FF" style="fill:#6CD4FF;fill:color(display-p3 0.4235 0.8314 1.0000);fill-opacity:1;"/>
<path d="M23.5292 0.387695H12.3301V10.8448H23.5292V0.387695Z" fill="#8ECB89" style="fill:#8ECB89;fill:color(display-p3 0.5579 0.7958 0.5372);fill-opacity:1;"/>
</g>
<defs>
<clipPath id="clip0_3715_209">
<rect width="175" height="34" fill="white" style="fill:white;fill-opacity:1;"/>
</clipPath>
</defs>
</svg>
