<svg width="140" height="45" viewBox="0 0 140 45" fill="none" xmlns="http://www.w3.org/2000/svg">
<rect width="140" height="44.3042" fill="#141414"/>
<path d="M130.506 22.085C130.506 24.1947 130.072 28.95 125.296 32.1983C124.06 33.0355 122.858 33.6048 121.455 34.0066C120.086 34.4085 118.015 34.8103 114.675 34.8103C109.665 34.8103 106.626 33.7052 104.722 32.5667C104.088 32.1983 102.919 31.4281 101.75 30.0216C99.2447 26.9742 99.1445 23.8934 99.1445 22.3864C99.1445 16.4256 102.317 13.4452 104.255 12.1392C106.259 10.7662 109.131 9.56063 114.408 9.49365C115.477 9.49365 116.512 9.49365 117.581 9.59412C123.826 10.0964 126.732 12.5745 128.369 14.9187C129.137 16.0572 130.506 18.5018 130.506 22.085ZM121.822 22.152C121.822 19.1381 120.553 17.2293 119.685 16.4591C119.351 16.1242 118.549 15.5214 117.414 15.1196C116.813 14.9187 116.178 14.7512 114.909 14.7512C113.807 14.7512 112.905 14.8517 111.87 15.287C109.097 16.4591 107.828 19.3055 107.828 22.1855C107.828 22.6208 107.862 23.8264 108.296 25.0654C109.699 29.2849 113.506 29.5863 114.942 29.5863C115.343 29.5863 116.846 29.5863 118.115 29.017C120.754 27.8449 121.822 24.831 121.822 22.152Z" fill="white"/>
<path d="M96.8328 22.4533C96.8328 23.5249 96.7326 27.376 94.3279 30.189C93.9271 30.6913 93.0921 31.5285 91.6894 32.3322C91.1884 32.6001 90.1196 33.1694 88.6835 33.5377C87.4811 33.8391 86.6127 34.0066 84.2414 34.0066H69.2787V10.3643H82.6717C83.6068 10.3643 84.542 10.3977 85.4772 10.4647C90.9546 10.9335 93.3593 13.2442 94.7621 15.2869C96.766 18.1669 96.8328 21.1808 96.8328 22.4533ZM88.5833 22.2524C88.5833 21.5157 88.4831 18.8701 86.4123 17.2627C84.6422 15.9232 82.1373 15.9902 81.5695 15.9902H77.5282V28.6485H81.8367C82.3043 28.6485 82.8053 28.615 83.3062 28.5481C86.2119 28.1797 87.2473 26.8737 87.8151 25.6681C88.5499 24.1612 88.5833 22.8886 88.5833 22.2524Z" fill="white"/>
<path d="M65.2553 34.0066H40.0725V10.3643H64.9547V15.6553H48.5224V19.5399H63.719V24.8644H48.5224V28.6485H65.2553V34.0066Z" fill="white"/>
<path d="M36.6471 34.0066H27.3288L22.4526 25.4002H17.9771V34.0066H9.49377V10.3643H26.8612C30.0341 10.3643 33.0734 10.5987 34.9772 13.6126C35.4114 14.3158 36.1795 15.7223 36.1795 17.8655C36.1795 18.9706 35.9457 22.1184 32.9732 23.7593C32.4055 24.0942 31.9713 24.2616 30.7689 24.563L36.6471 34.0066ZM27.763 17.899C27.763 17.6981 27.7296 17.1623 27.3956 16.6934C26.8278 15.8562 25.8927 15.7223 24.9909 15.7223H17.9771V20.0757H24.3229C25.9261 20.0757 26.761 19.8748 27.2954 19.2385C27.7296 18.7027 27.763 18.1669 27.763 17.899Z" fill="white"/>
</svg>
