<svg width="200" height="200" viewBox="0 0 200 200" xmlns="http://www.w3.org/2000/svg">
  <!-- Background circle -->
  <circle cx="100" cy="100" r="90" fill="none" stroke="#333" stroke-width="3" stroke-dasharray="2,2"/>
  
  <!-- Face outline -->
  <ellipse cx="100" cy="100" rx="70" ry="60" fill="none" stroke="#333" stroke-width="2"/>
  
  <!-- Eyes - closed from laughing -->
  <path d="M 70 80 Q 75 85 80 80 Q 85 75 90 80" fill="none" stroke="#333" stroke-width="2" stroke-linecap="round"/>
  <path d="M 110 80 Q 115 85 120 80 Q 125 75 130 80" fill="none" stroke="#333" stroke-width="2" stroke-linecap="round"/>
  
  <!-- Tears of joy -->
  <path d="M 75 85 Q 70 95 65 105" fill="none" stroke="#333" stroke-width="1.5" stroke-linecap="round"/>
  <path d="M 125 85 Q 130 95 135 105" fill="none" stroke="#333" stroke-width="1.5" stroke-linecap="round"/>
  
  <!-- Wide open laughing mouth -->
  <path d="M 60 110 Q 80 130 100 125 Q 120 130 140 110" fill="none" stroke="#333" stroke-width="2.5" stroke-linecap="round"/>
  
  <!-- Tongue sticking out -->
  <path d="M 85 125 Q 100 140 115 125" fill="none" stroke="#333" stroke-width="2" stroke-linecap="round"/>
  
  <!-- Laugh lines around eyes -->
  <path d="M 55 70 Q 60 75 65 70" fill="none" stroke="#333" stroke-width="1" stroke-linecap="round"/>
  <path d="M 135 70 Q 140 75 145 70" fill="none" stroke="#333" stroke-width="1" stroke-linecap="round"/>
  
  <!-- Sweat drops -->
  <path d="M 40 60 Q 35 65 30 70" fill="none" stroke="#333" stroke-width="1" stroke-linecap="round"/>
  <path d="M 170 60 Q 175 65 180 70" fill="none" stroke="#333" stroke-width="1" stroke-linecap="round"/>
  
  <!-- Pencil texture lines for shading -->
  <path d="M 30 40 L 170 40" fill="none" stroke="#333" stroke-width="0.5" opacity="0.3"/>
  <path d="M 30 50 L 170 50" fill="none" stroke="#333" stroke-width="0.5" opacity="0.3"/>
  <path d="M 30 60 L 170 60" fill="none" stroke="#333" stroke-width="0.5" opacity="0.3"/>
  <path d="M 30 70 L 170 70" fill="none" stroke="#333" stroke-width="0.5" opacity="0.3"/>
  <path d="M 30 80 L 170 80" fill="none" stroke="#333" stroke-width="0.5" opacity="0.3"/>
  <path d="M 30 90 L 170 90" fill="none" stroke="#333" stroke-width="0.5" opacity="0.3"/>
  <path d="M 30 100 L 170 100" fill="none" stroke="#333" stroke-width="0.5" opacity="0.3"/>
  <path d="M 30 110 L 170 110" fill="none" stroke="#333" stroke-width="0.5" opacity="0.3"/>
  <path d="M 30 120 L 170 120" fill="none" stroke="#333" stroke-width="0.5" opacity="0.3"/>
  <path d="M 30 130 L 170 130" fill="none" stroke="#333" stroke-width="0.5" opacity="0.3"/>
  <path d="M 30 140 L 170 140" fill="none" stroke="#333" stroke-width="0.5" opacity="0.3"/>
  <path d="M 30 150 L 170 150" fill="none" stroke="#333" stroke-width="0.5" opacity="0.3"/>
  <path d="M 30 160 L 170 160" fill="none" stroke="#333" stroke-width="0.5" opacity="0.3"/>
</svg>
