<svg xmlns="http://www.w3.org/2000/svg" fill="none" viewBox="0 0 112 30">
<g fill="currentColor" clip-path="url(#striderlogowhite_svg__a)">
<path d="M37.349 21.756a7.62 7.62 0 0 1-5.092-1.926l1.558-1.867c1.08.894 2.206 1.455 3.583 1.455 1.08 0 1.731-.412 1.731-1.134v-.033c0-.668-.412-1.01-2.415-1.525-2.416-.606-3.991-1.278-3.991-3.661v-.033c0-2.177 1.748-3.616 4.2-3.616a6.94 6.94 0 0 1 4.458 1.525l-1.373 1.988c-1.064-.738-2.107-1.184-3.121-1.184s-1.542.462-1.542 1.048v.028c0 .788.515 1.043 2.589 1.575 2.432.635 3.805 1.51 3.805 3.6v.037c.013 2.387-1.805 3.723-4.39 3.723M49.91 12.018v9.565h-2.638v-9.565h-3.653V9.586h9.94v2.437zM63.553 21.583l-2.573-3.838H58.92v3.838H56.28V9.586h5.484c2.828 0 4.535 1.492 4.535 3.962v.033a3.71 3.71 0 0 1-2.573 3.71l2.931 4.284zm.05-7.899c0-1.134-.788-1.715-2.062-1.715h-2.622v3.447h2.663c1.282 0 2.02-.689 2.02-1.699zM69.466 21.583V9.586h2.638v11.997zM80.465 21.583h-4.68V9.586h4.68c3.772 0 6.377 2.596 6.377 5.966v.033c0 3.376-2.585 5.998-6.377 5.998m3.615-5.998a3.446 3.446 0 0 0-3.615-3.616h-2.062V19.2h2.061c2.16 0 3.616-1.455 3.616-3.578zM89.46 21.583V9.586h9.05v2.35h-6.419v2.432h5.649v2.35H92.09v2.52h6.514v2.345zM108.912 21.583l-2.568-3.838h-2.062v3.838h-2.642V9.586h5.487c2.828 0 4.535 1.492 4.535 3.962v.033a3.714 3.714 0 0 1-2.568 3.71l2.931 4.284zm.054-7.899c0-1.134-.788-1.715-2.062-1.715h-2.622v3.447h2.651c1.287 0 2.025-.689 2.025-1.699zM25.627 14.001a.87.87 0 0 0 .264-.639.87.87 0 0 0-.264-.635 1 1 0 0 0-.206-.152v-3.69a.795.795 0 0 0 .412-.416.8.8 0 0 0 0-.594.8.8 0 0 0-.42-.42.8.8 0 0 0-.594 0l-.095.053-2.061-1.175c0-.025.029-.046.041-.074a1.03 1.03 0 0 0-.969-1.423 1.03 1.03 0 0 0-.866.478l-6.918-3.986a.9.9 0 0 0 .05-.297 1 1 0 0 0-.079-.412.9.9 0 0 0-.222-.334 1 1 0 0 0-.334-.227 1.06 1.06 0 0 0-1.138.227 1.03 1.03 0 0 0-.264 1.01L6.802 4.267a1 1 0 0 0-.21-.128.9.9 0 0 0-.342-.066.9.9 0 0 0-.342.066.93.93 0 0 0-.483.487.9.9 0 0 0-.066.342q-.003.06 0 .12L1.39 7.372a1 1 0 0 0-.198-.12.85.85 0 0 0-.655 0 .83.83 0 0 0-.466.466.8.8 0 0 0-.066.33q0 .17.066.326a.9.9 0 0 0 .185.28q.093.089.207.148v12.32a1.03 1.03 0 0 0-.408.837A1.024 1.024 0 0 0 1.1 23.005c.134-.002.267-.028.391-.079l.083-.045 5.566 3.195 5.005 2.886a1 1 0 0 0 .07.309q.081.187.222.334a1.03 1.03 0 0 0 .746.3q.204-.001.392-.077a1.03 1.03 0 0 0 .635-.97 1 1 0 0 0 0-.152l10.142-5.879q.056.035.116.062c.13.053.27.08.412.078q.213.002.412-.078a1.03 1.03 0 0 0 .635-.969 1 1 0 0 0-.078-.412.9.9 0 0 0-.223-.334 1 1 0 0 0-.169-.136v-6.885a1 1 0 0 0 .17-.153m-1.439-1.043a.3.3 0 0 0-.033.062.9.9 0 0 0-.07.346 1 1 0 0 0 0 .079l-5.351 1.85L21.137 8.7zm-3.422-6.95c.029.221.13.427.289.585l.037.032-.169.466-1.229-1.69zm-.16 1.957-2.639 7.199-1.888-1.736v-.066a.7.7 0 0 0-.058-.289.74.74 0 0 0-.408-.408.8.8 0 0 0-.289-.057.6.6 0 0 0-.127 0L13.2 10.76l5.57-5.36zm-4.948 12.723a.8.8 0 0 0 .178.264l-.949 2.602-3.19.705c-.025-.025-.042-.054-.067-.079a1.03 1.03 0 0 0-.717-.296h-.14L8.559 20.11a.2.2 0 0 0 .024-.045q.06-.139.058-.289a.7.7 0 0 0 0-.165l8.827-3.05-1.096 3.005a.82.82 0 0 0-.71.499.8.8 0 0 0-.062.309.8.8 0 0 0 .05.313zM7.986 19.04h-.05L6.75 16.986l5.895-5.673 1.971 1.81a.7.7 0 0 0-.045.243q0 .15.057.289a.75.75 0 0 0 .165.243q.106.111.248.165a.75.75 0 0 0 .577 0l1.851 1.682zm-.775.272-4.535 1.58 3.5-3.36zm3.66-11.11a.9.9 0 0 0-.185-.277.87.87 0 0 0-.61-.251 1 1 0 0 0-.21.029l-.763-.697 8.489-1.5-4.948 4.753-1.731-1.583a1 1 0 0 0 0-.145.9.9 0 0 0-.041-.33m-3.71-3.348 5.203-2.998q.1.078.214.128c.13.055.271.082.413.079a1 1 0 0 0 .391-.079q.1-.042.19-.103l4.72 2.721L8.399 6.35l-1.27-1.166a.8.8 0 0 0 .033-.194 1 1 0 0 0-.025-.136zm-.767.997a.7.7 0 0 0 .223-.057h.037l.804.742-1.336.235zm-.52 1.728 2.297-.412 1.126 1.039a.858.858 0 0 0 1.125 1.113l.054-.03 1.649 1.497-5.788 5.517-2.062-3.505zM5.628 5.73l-.35 1.17-2.445.434zM1.686 8.287a.4.4 0 0 0 .115 0h.066l3.159-.557L3.789 11.9 1.703 8.34c-.03-.025-.025-.054-.017-.054m-.552 12.302V8.947l2.317 3.95-.623 2.06a.824.824 0 0 0-.404 1.064c0 .037.037.066.054.1zm2.016-4.056h.045a.824.824 0 0 0 .771-.515.824.824 0 0 0-.35-1.027l.362-1.204 1.79 3.05-3.806 3.65zm3.962 8.707-5.088-2.898a1 1 0 0 0 .078-.454l5.121-1.769a.713.713 0 0 0 .392.367c.09.04.189.06.288.058h.03l2.192 3.74a1 1 0 0 0-.136.226q-.024.064-.04.132zm5.194 2.977L8.11 25.825l1.942-.412a1 1 0 0 0 .487.433 1 1 0 0 0 .391.074 1 1 0 0 0 .145 0l1.31 2.239zm1.048-.413a1 1 0 0 0-.202 0h-.075l-1.344-2.292a.9.9 0 0 0 .132-.223 1 1 0 0 0 .066-.288l2.651-.577zm.779.1 1.344-3.682 8.175-1.76zm1.649-4.536.825-2.214a.776.776 0 0 0 .556-.474.82.82 0 0 0 0-.622.7.7 0 0 0-.095-.165l1.237-3.393 5.554 5.128zm8.955-2.473q-.143.014-.277.066l-.107.057-5.421-4.968 5.545-1.933q.074.047.152.082l.104.029zm0-8.502-3.299-4.572.347-.956a.9.9 0 0 0 .363-.075l2.189 1.237a1 1 0 0 0 0 .103c0 .102.02.204.061.297q.059.143.166.252.08.075.177.127z"/>
</g>
<defs>
<clipPath id="striderlogowhite_svg__a">
<path fill="currentColor" d="M0 0h112v29.849H0z"/>
</clipPath>
</defs>
</svg>
