<svg width="200" height="70" fill="none" viewBox="0 0 426 144" xmlns="http://www.w3.org/2000/svg"><g fill="#1e1f24"><path d="m82.6515 141.5c-1.3288 0-2.2881-1.272-1.9231-2.549l22.8576-80.0004c.245-.8586 1.03-1.4506 1.923-1.4506h21.716c1.365 0 2.329 1.3374 1.898 2.6325l-26.667 80.0005c-.272.816-1.037 1.367-1.898 1.367zm-48 0c-1.3288 0-2.2881-1.272-1.9231-2.549l22.5576-78.9521c.3607-1.2622 1.8189-1.8406 2.9467-1.1687l19.4596 11.5929-23.2365 69.7099c-.2722.816-1.0365 1.367-1.8973 1.367zm-5.21 0c-.8608 0-1.6251-.551-1.8973-1.367l-26.666717-80.0005c-.431686-1.2951.532257-2.6325 1.897367-2.6325h21.71655c.893 0 1.6777.592 1.923 1.4506l22.8572 80.0004c.365 1.277-.5943 2.549-1.9231 2.549zm48 0c-.8608 0-1.6251-.551-1.8973-1.367l-26.6667-80.0005c-.4317-1.2951.5322-2.6325 1.8974-2.6325h21.7165c.893 0 1.6777.592 1.923 1.4506l3.2779 11.4725 19.5793 68.5279c.365 1.277-.5943 2.549-1.9231 2.549z"/><path d="m197 141.5c-1.105 0-2-.895-2-2v-11-58-11c0-1.1045.895-2 2-2h22c1.105 0 2 .8955 2 2v80c0 1.105-.895 2-2 2zm-26 2c-7.87 0-14-1-20.5-5s-9.967-9-13-15.5c-3.033-6.499-4.5-14.5-4.5-23.4999 0-9.0001 1.467-17 4.5-23.5001 3.033-6.5 6.5-11.5 13-15.5s12.63-4.9999 20.5-4.9999c6.97 0 13.06 1.9999 17 4.9999s9 8.5993 11.5 15.5c2.5 6.9008 3.5 14.2866 3.5 23.5001 0 9.1009-1.007 16.4999-3.5 23.4999-2.493 7.001-7.433 12.5-11.5 15.5s-10.03 5-17 5zm7-24c3 0 7-1 9.5-3s4-4 5.5-7 2-7 2-9.9999c0-3.0001-.5-7.0001-2-10-1.5-3-3-5.0001-5.5-7.0001s-6.5-2.9999-9.5-2.9999-7 .9999-9.5 2.9999-4 4.0001-5.5 7.0001c-1.5 2.9999-2 6.9999-2 10 0 2.9999.5 6.9999 2 9.9999s3 5 5.5 7 6.5 3 9.5 3z"/><path d="m239 141.5c-1.105 0-2-.895-2-2v-101.7639c0-.7575.428-1.4501 1.106-1.7889l22-11c1.329-.6649 2.894.3021 2.894 1.7889v112.7639c0 1.105-.895 2-2 2z"/><path d="m316 143.5c-6 0-14-1-20-7s-7-13-7-19v-71.7639c0-.7575.428-1.4501 1.106-1.7888l22-11.0001c1.329-.6649 2.894.3014 2.894 1.7881v74.7647c0 3 .5 5.5 2 7s3.5 2.5 6 2.5 4-1 5-1.5c.277-.138.63-.353.997-.592 1.06-.69 2.51-.338 3.051.805l7.349 15.513c.361.764.203 1.67-.434 2.225-1.504 1.309-4.493 3.661-7.963 5.049-5 2-9 3-15 3zm-38-63.9999c-1.105 0-2-.8955-2-2v-18.0001c0-1.1045.895-2 2-2h56c1.105 0 2 .8955 2 2v18.0001c0 1.1045-.895 2-2 2z"/></g><path d="m378 77.6417c0 .9609.683 1.7914 1.633 1.9311 1.915.2814 3.874.4272 5.867.4272 22.091 0 40-17.9086 40-40 0-1.993-.146-3.952-.427-5.8668-.14-.9506-.97-1.6332-1.931-1.6332h-18.142c-1.105 0-2 .8951-2 1.9997v17.0003c0 3-3 6-6 6-2.343 0-12.612 0-17 0-1.105 0-2 .8954-2 2z" fill="#4836bf"/><path d="m345.927 45.8668c.14.9506.97 1.6332 1.931 1.6332h18.142c1.105 0 2-.8951 2-1.9997 0-4.3882 0-14.6577 0-17.0003 0-3 3-6 6-6h17c1.105 0 2-.8954 2-2v-18.14174c0-.96084-.683-1.791345-1.633-1.931064-1.915-.281438-3.874-.427196-5.867-.427196-22.091 0-40 17.9086-40 40 0 1.993.146 3.952.427 5.8668z" fill="#4836bf"/></svg>
