<svg fill="none" viewBox="0 0 160 160" xmlns="http://www.w3.org/2000/svg"><g fill="#4836bf"><path d="m65 155.283c0 1.922 1.3651 3.583 3.2664 3.863 3.8297.562 7.7476.854 11.7336.854 44.183 0 80-35.817 80-80 0-3.986-.292-7.9039-.854-11.7336-.28-1.9013-1.941-3.2664-3.863-3.2664h-36.283c-2.209 0-4 1.7902-4 3.9993v34.0007c0 6-6 12-12 12-4.6852 0-25.2243 0-34.0007 0-2.2091 0-3.9993 1.791-3.9993 4z"/><path d="m.854392 91.7336c.279438 1.9013 1.940458 3.2664 3.862128 3.2664h36.28348c2.2091 0 4-1.7902 4-3.9993 0-8.7764 0-29.3155 0-34.0007 0-6 6-12 12-12h34.0007c2.2091 0 3.9993-1.7909 3.9993-4v-36.28348c0-1.92167-1.3651-3.58269-3.2664-3.862128-3.8297-.562875-7.7476-.854392-11.7336-.854392-44.1828 0-80 35.8172-80 80 0 3.986.291517 7.9039.854392 11.7336z"/></g></svg>