<svg width="148" height="22" viewBox="0 0 148 22" fill="none" xmlns="http://www.w3.org/2000/svg">
<path d="M127.719 0C128.627 0 129.363 0.735698 129.363 1.64323V4.38194H134.296C135.205 4.38194 135.941 5.11764 135.941 6.02517C135.941 6.93269 135.205 7.66839 134.296 7.66839H129.363V13.6936C129.363 15.8111 131.081 17.5278 133.2 17.5278H134.296C135.205 17.5278 135.941 18.2635 135.941 19.171C135.941 20.0785 135.205 20.8142 134.296 20.8142H133.2C129.264 20.8142 126.074 17.6262 126.074 13.6936V1.64323C126.074 0.735698 126.81 0 127.719 0Z" fill="#444444"/>
<path d="M144.163 7.66839C142.649 7.66839 141.422 8.89455 141.422 10.4071V19.171C141.422 20.0785 140.686 20.8142 139.778 20.8142C138.87 20.8142 138.133 20.0785 138.133 19.171V10.4071C138.133 7.0795 140.833 4.38194 144.163 4.38194H146.356C147.264 4.38194 148 5.11764 148 6.02517C148 6.93269 147.264 7.66839 146.356 7.66839H144.163Z" fill="#444444"/>
<path d="M117.085 21.1429C114.453 21.1429 112.457 20.6826 110.484 19.4776C109.716 19.0394 109.388 18.0535 109.826 17.2866C110.265 16.5198 111.251 16.1912 112.019 16.6294C113.663 17.5057 115.002 17.8564 117.085 17.8564C119.387 17.8564 121.141 17.0896 121.141 15.9941C121.141 14.7099 119.26 14.5176 117.019 14.2885C113.716 13.9507 109.63 13.533 109.63 9.42117C109.63 6.46336 112.809 4.05329 116.756 4.05329C118.839 4.05329 120.867 4.60104 122.511 5.69652C123.298 6.15028 123.568 7.15631 123.114 7.94225C122.66 8.72819 121.653 8.99854 120.867 8.54478C120.099 7.99704 118.181 7.33975 116.756 7.33975C114.453 7.33975 112.919 8.43523 112.919 9.42117C112.919 10.6934 114.765 10.8588 116.978 11.0572C120.292 11.3542 124.43 11.725 124.43 15.9941C124.43 19.8283 120.264 21.1429 117.085 21.1429Z" fill="#444444"/>
<path fill-rule="evenodd" clip-rule="evenodd" d="M104.148 19.0503C102.695 20.3538 100.798 21.1429 98.7215 21.1429C94.1502 21.1429 90.4445 17.3172 90.4445 12.5981C90.4445 7.87892 94.1502 4.05329 98.7215 4.05329C100.798 4.05329 102.695 4.84238 104.148 6.14588V6.02517C104.148 5.11764 104.884 4.38194 105.793 4.38194C106.701 4.38194 107.437 5.11764 107.437 6.02517V19.171C107.437 20.0785 106.701 20.8142 105.793 20.8142C104.884 20.8142 104.148 20.0785 104.148 19.171V19.0503ZM104.587 12.5981C104.587 15.5022 102.157 17.8564 99.16 17.8564C96.1629 17.8564 93.7333 15.5022 93.7333 12.5981C93.7333 9.69398 96.1629 7.33975 99.16 7.33975C102.157 7.33975 104.587 9.69398 104.587 12.5981Z" fill="#444444"/>
<path d="M77.5082 12.5981C77.5082 9.74201 79.9135 7.33975 82.9896 7.33975C84.5337 7.33975 85.9304 7.78105 87.0238 8.49462C87.7842 8.99085 88.8032 8.77716 89.2998 8.01732C89.7964 7.25748 89.5826 6.23923 88.8222 5.74299C87.1816 4.6724 85.1575 4.05329 82.9896 4.05329C78.1947 4.05329 74.2193 7.83089 74.2193 12.5981C74.2193 17.3653 78.1947 21.1429 82.9896 21.1429C85.1575 21.1429 87.1816 20.5237 88.8222 19.4532C89.5826 18.9569 89.7964 17.9387 89.2998 17.1788C88.8032 16.419 87.7842 16.2053 87.0238 16.7015C85.9304 17.4151 84.5337 17.8564 82.9896 17.8564C79.9135 17.8564 77.5082 15.4541 77.5082 12.5981Z" fill="#444444"/>
<path d="M69.8889 20.5944C69.3974 20.3103 69.0667 19.7792 69.0667 19.171V12.2694C69.0667 9.54684 66.858 7.33975 64.1333 7.33975C61.4087 7.33975 59.2 9.54684 59.2 12.2694V19.171C59.2 19.7792 58.8693 20.3103 58.3778 20.5944C58.1359 20.7342 57.8551 20.8142 57.5556 20.8142C56.6474 20.8142 55.9111 20.0785 55.9111 19.171V6.02517C55.9111 5.11764 56.6474 4.38194 57.5556 4.38194C58.4638 4.38194 59.2 5.11764 59.2 6.02517V6.27851C60.4053 4.91394 62.1687 4.05329 64.1333 4.05329C68.6744 4.05329 72.3556 7.73178 72.3556 12.2694V19.171C72.3556 20.0785 71.6193 20.8142 70.7111 20.8142C70.4116 20.8142 70.1308 20.7342 69.8889 20.5944Z" fill="#444444"/>
<path fill-rule="evenodd" clip-rule="evenodd" d="M52.0741 14.2413H39.747C40.4926 16.3567 42.638 17.8564 45.1126 17.8564C47.2507 17.8564 48.3359 17.4196 49.5723 16.6648C50.3473 16.1916 51.3594 16.4358 51.8329 17.2102C52.3064 17.9847 52.062 18.996 51.287 19.4692C49.5806 20.511 47.9079 21.1429 45.1126 21.1429C40.4966 21.1429 36.1778 17.6178 36.1778 12.5981C36.1778 7.83089 40.1532 4.05329 44.9482 4.05329C49.7431 4.05329 53.7185 7.83089 53.7185 12.5981C53.7185 13.5056 52.9823 14.2413 52.0741 14.2413ZM39.7413 10.9548C40.4554 8.87738 42.4871 7.33975 44.9482 7.33975C47.4092 7.33975 49.4409 8.87738 50.155 10.9548H39.7413Z" fill="#444444"/>
<path d="M30.247 7.66839L21.926 7.6684C21.0178 7.6684 20.2816 6.9327 20.2816 6.02517C20.2816 5.11764 21.0178 4.38195 21.926 4.38195L33.9852 4.38194C34.6374 4.38194 35.2279 4.76701 35.4905 5.3635C35.7531 5.95998 35.6381 6.65517 35.1974 7.13553L25.6642 17.5278H33.9852C34.8934 17.5278 35.6297 18.2635 35.6297 19.171C35.6297 20.0785 34.8934 20.8142 33.9852 20.8142H21.926C21.2738 20.8142 20.6833 20.4291 20.4207 19.8326C20.1581 19.2362 20.2731 18.541 20.7138 18.0606L30.247 7.66839Z" fill="#444444"/>
<path fill-rule="evenodd" clip-rule="evenodd" d="M6.79592 5.85185C4.91928 5.85185 3.39796 7.37318 3.39796 9.24983C3.39796 11.1265 4.91928 12.6478 6.79592 12.6478C8.67256 12.6478 10.1939 11.1265 10.1939 9.24983C10.1939 7.37318 8.67256 5.85185 6.79592 5.85185ZM6.79592 2.45386C3.04264 2.45386 0 5.49652 0 9.24983C0 13.0031 3.04264 16.0458 6.79592 16.0458C10.5492 16.0458 13.5918 13.0031 13.5918 9.24983C13.5918 5.49652 10.5492 2.45386 6.79592 2.45386Z" fill="#444444"/>
<rect x="1.70483" y="17.7444" width="10.1939" height="3.398" rx="1.699" fill="#444444"/>
</svg>
